<?xml version="1.0" encoding="utf-8"?>
<!-- Generator: Adobe Illustrator 14.0.0, SVG Export Plug-In . SVG Version: 6.00 Build 43363)  -->
<!DOCTYPE svg PUBLIC "-//W3C//DTD SVG 1.1//EN" "http://www.w3.org/Graphics/SVG/1.1/DTD/svg11.dtd">
<svg version="1.1" id="Layer_1" xmlns="http://www.w3.org/2000/svg" xmlns:xlink="http://www.w3.org/1999/xlink" x="0px" y="0px"
	 width="200px" height="200px" viewBox="0 0 200 200" enable-background="new 0 0 200 200" xml:space="preserve">
<g id="character_6_">
	<path fill="#010101" d="M103.73,42.604c0.833,0.182,1.658,0.379,2.48,0.6c1.897,0.505,3.754,1.136,5.574,1.858
		c2.285,0.976,4.498,2.097,6.648,3.334c2.14,1.234,4.197,2.608,6.178,4.075c2.247,1.75,4.379,3.635,6.4,5.637
		c1.986,1.964,3.855,4.047,5.613,6.222c3.253,4.28,6.052,8.911,8.286,13.812c0.865,2.112,1.613,4.272,2.239,6.471
		c0.361,1.264,0.676,2.538,0.951,3.824c0.188,0.865,0.359,1.728,0.504,2.597c0.182,1.655,0.274,3.316,0.287,4.976
		c0.019,1.689-0.054,3.392-0.218,5.078c-0.249,1.55-0.575,3.089-0.988,4.606c-0.374,1.416-0.826,2.82-1.344,4.197
		c-0.56,1.238-1.173,2.445-1.849,3.627c-0.642,1.133-1.339,2.228-2.089,3.297c-0.7,0.848-1.439,1.667-2.216,2.453
		c-0.762,0.775-1.557,1.51-2.386,2.216c-1.036,0.747-2.113,1.451-3.226,2.099c-0.771,0.445-1.56,0.87-2.358,1.272
		c-0.399,0.195-0.807,0.388-1.212,0.578c-0.201,0.092-0.405,0.185-0.606,0.275c-0.07,0.028-0.138,0.061-0.205,0.088
		c-0.253,0.098-0.508,0.185-0.76,0.277c-1.021,0.362-2.056,0.681-3.103,0.979c-1.652,0.459-3.327,0.826-5.02,1.115
		c-4.428,0.495-8.897,0.466-13.328,0.011c-5.346-0.8-10.604-2.193-15.645-4.171c-2.198-0.957-4.35-2.019-6.443-3.193
		c-2.09-1.179-4.106-2.474-6.035-3.88c-1.404-1.113-2.754-2.291-4.039-3.529c-1.26-1.223-2.453-2.517-3.574-3.868
		c-1.61-2.168-3.022-4.48-4.158-6.938c-0.427-1.065-0.798-2.146-1.111-3.247c-0.313-1.105-0.565-2.228-0.759-3.362
		c-0.127-1.135-0.203-2.27-0.22-3.41c-0.006-1.221,0.053-2.448,0.173-3.672c0.211-1.407,0.504-2.806,0.867-4.181
		c0.406-1.541,0.916-3.06,1.5-4.544c1.838-4.247,4.261-8.214,7.031-11.914c2.585-3.353,5.438-6.506,8.446-9.495
		c3.613-3.583,7.471-6.905,11.459-10.049l-0.004,0C98.171,46.606,100.926,44.575,103.73,42.604 M101.728,34.691
		c-0.801,0.05-1.596,0.129-2.394,0.227c-1.09,0.132-2.174,0.292-3.251,0.488c-1.625,0.288-3.228,0.679-4.807,1.16
		c-2.052,0.62-4.052,1.426-5.99,2.333c-1.871,0.873-3.666,1.91-5.375,3.059c-1.81,1.217-3.524,2.574-5.141,4.039
		c-1.701,1.537-3.27,3.217-4.738,4.984c-0.018,0.019,0.006,0.04,0.029,0.023c0.061-0.046,0.122-0.097,0.185-0.149
		c0,0.008-0.005,0.006-0.007,0.013c1.558-1.221,3.182-2.346,4.872-3.365c1.686-1.018,3.448-1.911,5.259-2.696
		c-0.103,0.048-0.208,0.094-0.311,0.138c1.649-0.706,3.346-1.3,5.072-1.793c1.613-0.455,3.254-0.799,4.908-1.055
		c1.778-0.233,3.565-0.357,5.363-0.367c1.689-0.001,3.374,0.104,5.048,0.296c0.859,0.122,1.714,0.266,2.566,0.433
		C95.46,45.476,88.1,49.011,81.211,53.33c-1.581,0.992-3.128,2.028-4.645,3.112c-1.644,1.167-3.226,2.404-4.789,3.675
		c-2.478,2.025-4.828,4.213-6.995,6.576c-0.966,1.058-1.897,2.161-2.783,3.298c-1.088,1.404-2.156,2.83-3.126,4.317
		c-0.704,1.086-1.364,2.209-1.97,3.354c-0.278,0.521-0.541,1.064-0.798,1.601c-0.479,1.01-0.895,2.052-1.322,3.083
		c-0.887,2.154-1.571,4.385-2.022,6.673c-0.1,0.521-0.187,1.043-0.263,1.568c-0.121,0.829-0.217,1.66-0.319,2.489
		c-0.042,0.311-0.073,0.613-0.098,0.926c-0.107,1.081-0.15,2.172-0.142,3.257c0.003,1.067,0.072,2.13,0.188,3.191
		c0.024,0.253,0.055,0.502,0.091,0.752c0.112,0.879,0.236,1.756,0.373,2.63c0.085,0.546,0.184,1.096,0.29,1.639
		c0.422,2.081,1.047,4.122,1.836,6.094c0.439,1.087,0.909,2.163,1.393,3.234c0.224,0.511,0.469,1.026,0.723,1.528
		c0.48,0.973,1.008,1.924,1.57,2.858c0.566,0.939,1.166,1.854,1.799,2.75c0.31,0.432,0.622,0.853,0.942,1.275
		c0.784,1.028,1.582,2.045,2.395,3.045c1.44,1.763,3,3.426,4.655,4.995c0.839,0.796,1.702,1.559,2.584,2.298
		c0.433,0.358,0.863,0.712,1.302,1.061c1.083,0.856,2.194,1.688,3.301,2.517c3.826,2.864,7.975,5.276,12.324,7.25
		c0.52,0.24,1.049,0.466,1.578,0.689c1.376,0.583,2.752,1.16,4.143,1.705c1.126,0.444,2.266,0.854,3.417,1.233
		c2.276,0.76,4.599,1.391,6.945,1.9c1.163,0.249,2.333,0.47,3.513,0.649c0.56,0.087,1.117,0.164,1.682,0.237
		c1.57,0.202,3.143,0.416,4.718,0.576c2.34,0.23,4.684,0.314,7.028,0.249c1.336-0.036,2.667-0.129,3.993-0.273
		c0.317-0.032,0.64-0.075,0.956-0.112c1.321-0.172,2.639-0.368,3.963-0.559c0.677-0.1,1.354-0.22,2.026-0.349
		c2.376-0.457,4.72-1.107,6.975-1.981c0.317-0.086,0.627-0.183,0.925-0.308c1.05-0.45,2.099-0.905,3.145-1.358
		c0.241-0.109,0.489-0.22,0.732-0.334c0.523-0.241,1.046-0.499,1.56-0.773c0.991-0.515,1.953-1.087,2.886-1.695
		c1.772-1.149,3.406-2.493,5.058-3.797c0.889-0.699,1.741-1.446,2.556-2.231c0.837-0.797,1.622-1.644,2.371-2.519
		c0.366-0.425,0.724-0.863,1.073-1.306c0.766-0.983,1.516-1.984,2.264-2.982c0.203-0.27,0.399-0.536,0.588-0.807
		c1.428-2.013,2.638-4.183,3.66-6.428c0.13-0.282,0.257-0.565,0.379-0.848c0.493-1.163,0.97-2.336,1.448-3.512
		c0.175-0.422,0.339-0.85,0.497-1.279c0.055-0.272,0.11-0.544,0.166-0.816c0.241-3.921,0.182-7.822-0.16-11.754
		c-3.441-18.189-11.482-34.946-18.475-52.053c-0.416-0.389-0.839-0.773-1.266-1.15c-0.637-0.571-1.297-1.125-1.956-1.675
		c-1.177-0.975-2.398-1.892-3.615-2.816c-2.808-2.127-5.774-4.044-8.881-5.699c-1.549-0.83-3.144-1.592-4.76-2.294
		c-1.193-0.516-2.404-1.016-3.622-1.487c-0.826-0.322-1.667-0.62-2.51-0.902c-3.234-1.094-6.583-1.866-9.965-2.328
		c-1.147-0.162-2.295-0.305-3.448-0.41c-0.86-0.085-1.721-0.133-2.585-0.168c-0.696-0.027-1.398-0.039-2.104-0.034
		C103.647,34.586,102.688,34.627,101.728,34.691"/>
	<path opacity="0.485" fill="#010101" d="M151.482,60.539c-0.021,0.006-0.024,0.041,0.001,0.04c0.253,0.01,0.512,0.016,0.768,0.024
		c-0.013-0.035-0.03-0.07-0.042-0.104C151.966,60.513,151.724,60.527,151.482,60.539"/>
	<path opacity="0.485" fill="#010101" d="M157.418,98.92c-0.021,0.001-0.022,0.034,0.002,0.039c2.978,0.324,5.979,0.368,8.973,0.264
		c-0.056-0.231-0.115-0.464-0.177-0.695C163.296,98.84,160.352,99.003,157.418,98.92"/>
	<path opacity="0.485" fill="#010101" d="M97.649,141.273c0.003-0.009,0.003-0.02,0.005-0.031c-0.001-0.003-0.001-0.003,0-0.006
		C97.652,141.251,97.65,141.262,97.649,141.273 M93.855,150.615c0.016-0.022,0.03-0.045,0.048-0.063
		C93.886,150.57,93.871,150.593,93.855,150.615 M86.398,156.463c-0.02,0.009-0.039,0.018-0.057,0.027
		C86.36,156.48,86.378,156.472,86.398,156.463 M75.152,132.315c-0.312,1.111-0.587,2.232-0.827,3.359
		c-0.231,1.104-0.412,2.211-0.562,3.332c-0.309,2.229-0.425,4.478-0.394,6.725c0.037,2.147,0.264,4.279,0.617,6.392
		c0.387,2.302,0.99,4.569,1.747,6.775c0.042,0.139,0.118,0.269,0.225,0.369c0.102,0.109,0.231,0.18,0.373,0.218
		c0.752,0.102,1.503,0.177,2.263,0.206c0.738,0.025,1.484-0.001,2.225-0.069c1.503-0.147,2.986-0.485,4.412-0.979
		c0.655-0.233,1.285-0.511,1.909-0.806c0.703-0.329,1.37-0.716,2.016-1.136c0.569-0.361,1.103-0.771,1.631-1.188
		c0.598-0.474,1.158-0.999,1.693-1.545c0.996-1.019,1.863-2.164,2.619-3.374c0.753-1.215,1.346-2.531,1.824-3.88
		c0.482-1.365,0.777-2.794,0.946-4.229c0.179-1.556,0.148-3.133-0.041-4.688c-0.002-0.02-0.036-0.021-0.035,0.002
		c0.042,1.149-0.001,2.293-0.138,3.437l0,0c-0.001,0.003-0.001,0.003,0,0.006c-0.002,0.015-0.002,0.025-0.005,0.04
		c0,0,0-0.003,0-0.009c-0.117,0.867-0.285,1.717-0.5,2.562c-0.213,0.842-0.503,1.67-0.83,2.475c0.009-0.026,0.023-0.058,0.035-0.084
		c-0.327,0.793-0.702,1.561-1.127,2.302c-0.417,0.744-0.895,1.449-1.401,2.131c0.009-0.02,0.017-0.03,0.029-0.044
		c-0.502,0.645-1.034,1.254-1.606,1.84c-0.554,0.568-1.146,1.096-1.767,1.589c0.007-0.006,0.012-0.009,0.018-0.015
		c-0.608,0.468-1.238,0.901-1.896,1.297c-0.681,0.421-1.403,0.783-2.134,1.108c-0.699,0.294-1.406,0.546-2.136,0.767
		c-0.779,0.228-1.579,0.396-2.385,0.525c-0.874,0.122-1.743,0.194-2.616,0.218c-0.725,0.017-1.45-0.009-2.172-0.071
		c-0.539-1.489-1.014-2.998-1.422-4.533c-0.436-1.647-0.77-3.317-1.017-5.001c0,0.004,0.003,0.005,0,0.007
		c-0.134-0.98-0.246-1.962-0.326-2.951c-0.087-1.1-0.122-2.202-0.137-3.311c-0.022-2.131,0.125-4.257,0.389-6.366c0,0,0,0-0.003,0
		c0.145-1.135,0.328-2.266,0.541-3.396c0.003-0.013-0.006-0.019-0.016-0.019C75.162,132.302,75.155,132.308,75.152,132.315"/>
	<path opacity="0.485" fill="#010101" d="M127.338,164.141c0.021,0.001,0.041,0.002,0.062,0.005
		C127.381,164.146,127.359,164.142,127.338,164.141 M129.805,163.801c-0.034,0.014-0.073,0.028-0.106,0.041
		C129.731,163.826,129.77,163.812,129.805,163.801 M125.76,163.688c0.058,0.022,0.114,0.041,0.171,0.071
		C125.874,163.735,125.816,163.712,125.76,163.688 M112.524,143.349c0.419,2.199,0.954,4.374,1.648,6.504
		c0.59,1.826,1.31,3.614,2.153,5.338c0.74,1.52,1.598,2.983,2.587,4.361c0.829,1.151,1.757,2.235,2.81,3.194
		c0.449,0.401,0.929,0.777,1.415,1.132c0.472,0.335,0.977,0.635,1.498,0.886c0.46,0.216,0.938,0.4,1.431,0.535
		c0.484,0.14,0.994,0.217,1.498,0.245c0.446,0.025,0.891-0.021,1.326-0.094c0.465-0.077,0.904-0.245,1.327-0.438
		c0.402-0.182,0.76-0.441,1.105-0.715c0.394-0.302,0.726-0.676,1.029-1.069c0.291-0.378,0.54-0.78,0.763-1.198
		c0.246-0.461,0.445-0.944,0.622-1.435c0.429-1.159,0.661-2.385,0.807-3.6c0.407-3.473,0.078-6.992-0.484-10.427
		c-0.006-0.02-0.04-0.015-0.04,0.006c0.246,3.008,0.316,6.035-0.063,9.034c0.004-0.033,0.011-0.064,0.016-0.097
		c-0.208,1.564-0.537,3.109-1.12,4.582c-0.301,0.73-0.668,1.426-1.129,2.064c-0.324,0.422-0.686,0.805-1.105,1.137
		c0.001-0.003,0.005-0.003,0.007-0.006c-0.297,0.215-0.611,0.405-0.941,0.561c-0.355,0.14-0.716,0.238-1.091,0.299
		c-0.373,0.041-0.743,0.04-1.119,0.005c-0.588-0.082-1.157-0.243-1.713-0.465c-0.887-0.388-1.719-0.896-2.491-1.482
		c0.05,0.036,0.094,0.077,0.146,0.108c-1.358-1.038-2.541-2.282-3.602-3.621c-1.98-2.545-3.529-5.392-4.808-8.349
		c0.002,0.016,0.011,0.028,0.02,0.044c-0.979-2.293-1.789-4.648-2.466-7.049c-0.003-0.011-0.008-0.016-0.017-0.013
		C112.531,143.327,112.521,143.335,112.524,143.349"/>
	<path opacity="0.485" fill="#010101" d="M146.984,63.963c-0.02,0.006-0.021,0.04,0.002,0.04c2.289,0.019,4.578,0.128,6.857,0.375
		c-0.08-0.193-0.164-0.386-0.244-0.578c-0.56-0.018-1.121-0.026-1.682-0.025c-0.18-0.005-0.361-0.003-0.541-0.003
		C149.912,63.782,148.448,63.856,146.984,63.963"/>
	<path opacity="0.485" fill="#010101" d="M51.34,115.093c-0.014-0.007-0.029-0.013-0.042-0.017
		C51.313,115.082,51.328,115.087,51.34,115.093 M66.665,53.258c-6.589,1.693-13.303,2.862-19.859,4.68
		c-1.573,0.436-3.135,0.916-4.681,1.454c-1.5,0.526-2.975,1.117-4.422,1.772c-2.697,1.224-5.245,2.772-7.462,4.746
		c-0.503,0.446-0.974,0.919-1.422,1.414c-0.528,0.569-1.001,1.175-1.46,1.8c-0.833,1.137-1.512,2.374-2.053,3.677
		c-0.296,0.71-0.554,1.424-0.771,2.162c-0.227,0.776-0.388,1.561-0.519,2.354c-0.135,0.838-0.225,1.681-0.274,2.526
		c-0.051,0.918-0.031,1.832,0.013,2.75c0.053,0.958,0.169,1.914,0.306,2.867c0.147,1.062,0.349,2.119,0.581,3.166
		c0.228,1.016,0.496,2.021,0.821,3.012c0.353,1.082,0.802,2.135,1.278,3.171c0.929,2.029,2.12,3.919,3.449,5.705
		c1.382,1.845,2.925,3.552,4.594,5.131c1.474,1.403,3.064,2.687,4.719,3.878c1.672,1.201,3.444,2.279,5.269,3.238
		c1.737,0.918,3.544,1.702,5.398,2.365c1.842,0.666,3.738,1.178,5.669,1.53c0.021,0.007,0.027-0.028,0.003-0.033
		c-1.531-0.413-3.031-0.933-4.502-1.531c0.003,0.001,0.007,0.003,0.009,0.006c-1.688-0.711-3.323-1.522-4.911-2.433
		c-1.694-0.965-3.309-2.058-4.858-3.228c-1.472-1.128-2.873-2.33-4.208-3.618c-1.375-1.333-2.654-2.763-3.848-4.267
		c-0.916-1.188-1.77-2.418-2.556-3.704c-0.73-1.203-1.372-2.456-1.947-3.741c-0.539-1.27-0.99-2.565-1.341-3.894
		c-0.181-0.678-0.321-1.366-0.462-2.051c-0.147-0.742-0.276-1.501-0.383-2.25c0.001,0.005,0.002,0.014,0.002,0.022
		c-0.178-1.334-0.289-2.67-0.314-4.017c-0.025-1.205,0.038-2.413,0.178-3.612c0.113-0.825,0.268-1.643,0.469-2.449
		c0.197-0.776,0.453-1.537,0.744-2.28c0.294-0.693,0.629-1.37,1.005-2.022c0.358-0.627,0.755-1.215,1.188-1.791
		c0.52-0.654,1.071-1.28,1.663-1.875c0.635-0.638,1.323-1.233,2.03-1.792c2.499-1.918,5.3-3.385,8.184-4.637
		c-0.051,0.023-0.098,0.042-0.148,0.063c3.951-1.69,8.057-3.002,12.168-4.255c4.234-1.292,8.493-2.517,12.675-3.977
		c0.022-0.007,0.012-0.034-0.007-0.034C66.669,53.259,66.668,53.257,66.665,53.258"/>
	<path opacity="0.485" fill="#010101" d="M157.116,59.404c4.895,2.052,9.633,4.528,13.871,7.74c1.183,0.915,2.322,1.884,3.398,2.921
		c1.077,1.031,2.079,2.137,3.01,3.305c-0.052-0.062-0.104-0.127-0.153-0.191c0.739,0.945,1.426,1.929,2.05,2.958
		c0.625,1.03,1.167,2.106,1.641,3.208c0.41,0.996,0.763,2.013,1.05,3.05c0.312,1.112,0.531,2.252,0.698,3.398
		c-0.019-0.121-0.035-0.232-0.055-0.351c0.403,2.916,0.325,5.872-0.028,8.79c-0.287,2.122-0.733,4.216-1.305,6.281
		c-0.633,2.299-1.443,4.555-2.353,6.764c0.039-0.096,0.08-0.187,0.115-0.274c-1.809,4.374-4.015,8.573-6.449,12.634
		c-2.503,4.154-5.253,8.153-8.181,12.011c-0.018,0.021,0.012,0.035,0.029,0.023c4.686-5.188,9.093-10.657,12.791-16.598
		c1.776-2.842,3.375-5.812,4.697-8.897c0.658-1.517,1.249-3.055,1.769-4.622c0.491-1.48,0.899-2.981,1.222-4.496
		c0.148-0.714,0.268-1.433,0.375-2.152c0.123-0.83,0.218-1.667,0.285-2.505c0.107-1.465,0.1-2.93-0.016-4.392
		c-0.057-0.75-0.163-1.503-0.277-2.247c-0.11-0.744-0.259-1.479-0.435-2.207c-0.354-1.457-0.852-2.871-1.443-4.24
		c-0.597-1.373-1.31-2.685-2.131-3.94c-0.875-1.343-1.884-2.604-2.972-3.787c-1.164-1.269-2.446-2.417-3.795-3.494
		c-1.479-1.169-3.043-2.219-4.664-3.184c-1.908-1.134-3.899-2.12-5.928-3.004c-2.224-0.972-4.501-1.798-6.808-2.538
		c-0.003,0-0.003,0-0.006,0.001C157.104,59.37,157.1,59.394,157.116,59.404"/>
	<path opacity="0.485" fill="#010101" d="M29.281,70.14c0.037-0.027,0.075-0.056,0.11-0.085
		C29.355,70.082,29.32,70.111,29.281,70.14 M8.348,93.073c-0.002,0.019-0.005,0.041-0.006,0.061
		c0.002-0.031,0.007-0.063,0.011-0.097C8.351,93.048,8.351,93.061,8.348,93.073 M15.461,112.853c0.002-0.002,0.004,0,0.005,0.001
		c-0.003-0.001-0.008-0.004-0.013-0.007C15.457,112.849,15.458,112.85,15.461,112.853 M20.658,115.775
		c0.036,0.012,0.067,0.027,0.1,0.041C20.724,115.803,20.692,115.79,20.658,115.775 M27.557,100.466
		c0.008,0.014,0.018,0.023,0.026,0.037C27.574,100.489,27.564,100.48,27.557,100.466 M27.442,100.327
		c0.026,0.026,0.048,0.058,0.072,0.084C27.489,100.383,27.467,100.354,27.442,100.327 M17.958,90.702
		c0.016,0.094,0.03,0.188,0.042,0.281C17.986,90.887,17.971,90.795,17.958,90.702 M14.143,79.538
		c-0.057,0.075-0.116,0.15-0.171,0.22C14.027,79.683,14.085,79.61,14.143,79.538 M30.66,69.094c-0.791,0.84-1.537,1.724-2.237,2.639
		c0.081-0.104,0.157-0.209,0.236-0.312c-0.846,1.091-1.644,2.215-2.371,3.398c-0.663,1.082-1.261,2.21-1.794,3.368
		c-1.056,2.292-1.875,4.694-2.366,7.165c-0.108,0.557-0.196,1.112-0.27,1.666c-0.091,0.68-0.164,1.357-0.211,2.037
		c-0.077,1.113-0.068,2.228,0.019,3.34c0.049,0.605,0.134,1.202,0.223,1.8c0.082,0.549,0.195,1.085,0.323,1.621
		c0.116,0.485,0.262,0.964,0.424,1.438c0.197,0.586,0.438,1.155,0.683,1.72c0.363,0.815,0.803,1.598,1.306,2.336
		c0.298,0.434,0.624,0.847,0.959,1.254c0.287,0.345,0.589,0.674,0.909,0.99c0.074,0.075,0.148,0.148,0.226,0.221
		c-0.153-0.055-0.303-0.111-0.454-0.171c-0.477-0.21-0.941-0.437-1.394-0.694c-0.401-0.22-0.782-0.47-1.149-0.739
		c-0.559-0.456-1.065-0.964-1.521-1.521c-0.561-0.76-1.057-1.571-1.537-2.384c-0.435-0.756-0.826-1.54-1.183-2.336
		c-0.345-0.813-0.652-1.64-0.915-2.488c-0.24-0.798-0.427-1.612-0.561-2.433c-0.092-0.693-0.145-1.382-0.162-2.078
		c-0.013-0.717,0.025-1.435,0.096-2.143c0.106-0.715,0.247-1.418,0.427-2.111c0.206-0.794,0.477-1.56,0.775-2.315
		c0.796-1.867,1.849-3.603,3.071-5.229c2.098-2.7,4.602-5.045,7.279-7.157c-0.032,0.027-0.065,0.054-0.098,0.081
		C29.808,69.731,30.233,69.409,30.66,69.094 M52.673,57.044c-1.5,0.432-2.993,0.907-4.469,1.416
		c-0.079,0.005-0.159,0.012-0.233,0.016c-0.905,0.076-1.807,0.176-2.7,0.308c-3.68,0.519-7.285,1.483-10.766,2.77
		c-1.815,0.675-3.597,1.446-5.337,2.295c-1.683,0.824-3.32,1.752-4.913,2.752c-0.759,0.477-1.508,0.98-2.238,1.499
		c-0.838,0.595-1.648,1.216-2.449,1.85c-1.445,1.147-2.814,2.384-4.1,3.691c-1.307,1.332-2.487,2.759-3.598,4.255
		c-1.056,1.425-1.994,2.941-2.808,4.523c-0.406,0.789-0.767,1.606-1.108,2.428c-0.35,0.851-0.661,1.707-0.937,2.583
		c-0.253,0.811-0.454,1.63-0.629,2.463c-0.205,0.952-0.337,1.907-0.443,2.87c-0.21,1.87-0.2,3.752-0.025,5.621
		c0.092,0.979,0.233,1.951,0.417,2.91c0.174,0.949,0.42,1.878,0.71,2.795c0.26,0.814,0.582,1.602,0.931,2.382
		c0.346,0.78,0.76,1.534,1.21,2.262c0.411,0.657,0.887,1.282,1.371,1.896c0.501,0.628,1.06,1.218,1.643,1.771
		c0.486,0.472,1.018,0.909,1.55,1.322c0.55,0.421,1.121,0.818,1.711,1.187c1.238,0.775,2.557,1.4,3.907,1.942
		c2.812,1.139,5.812,1.785,8.81,2.186c3.197,0.424,6.426,0.544,9.646,0.517c3.38-0.038,6.758-0.266,10.122-0.577
		c0.023-0.005,0.024-0.038-0.001-0.036c-5.543,0.161-11.113,0.151-16.625-0.533c-3.578-0.468-7.138-1.224-10.499-2.566
		c0.007,0.001,0.011,0.006,0.016,0.006c-0.947-0.396-1.871-0.829-2.773-1.317c-0.901-0.5-1.77-1.061-2.599-1.677
		c0.034,0.025,0.066,0.055,0.101,0.078c-0.036-0.026-0.07-0.056-0.106-0.079c-0.024-0.021-0.049-0.035-0.071-0.056
		c0.023,0.017,0.046,0.032,0.063,0.05c-0.594-0.462-1.165-0.958-1.707-1.478c-0.587-0.561-1.123-1.169-1.625-1.799
		c0.051,0.062,0.103,0.125,0.155,0.186c-0.468-0.595-0.895-1.22-1.285-1.873c-0.428-0.698-0.789-1.429-1.116-2.18
		c-0.319-0.787-0.594-1.588-0.831-2.405c-0.278-0.983-0.474-1.997-0.628-3.008c-0.157-1.198-0.248-2.395-0.268-3.597
		c-0.02-1.19,0.055-2.376,0.192-3.559c-0.007,0.051-0.016,0.104-0.024,0.155c0.008-0.072,0.021-0.146,0.03-0.216
		c0.006-0.039,0.01-0.076,0.013-0.112c0.001,0.025-0.006,0.053-0.008,0.076c0.16-1.119,0.382-2.223,0.669-3.319
		c0.288-1.111,0.668-2.198,1.092-3.261c0.496-1.181,1.065-2.323,1.707-3.434c0.696-1.213,1.479-2.372,2.327-3.49
		c1.003-1.293,2.091-2.513,3.248-3.678c1.245-1.25,2.582-2.415,3.97-3.512c-0.102,0.083-0.201,0.161-0.305,0.236
		c1.765-1.373,3.627-2.626,5.558-3.766c1.369-0.804,2.778-1.539,4.214-2.218c-0.783,0.494-1.557,1.009-2.315,1.536
		c-1.279,0.898-2.521,1.857-3.714,2.865c-1.136,0.959-2.214,1.984-3.228,3.07c-1.01,1.077-1.933,2.23-2.776,3.44
		c-0.79,1.118-1.477,2.312-2.048,3.558c-0.584,1.277-1.044,2.608-1.35,3.977c-0.16,0.699-0.25,1.41-0.341,2.124
		c-0.086,0.701-0.12,1.408-0.115,2.115c0,0.671,0.05,1.344,0.133,2.012c0.099,0.822,0.24,1.642,0.434,2.452
		c0.384,1.608,1.004,3.147,1.728,4.628c0.563,1.147,1.231,2.251,1.947,3.308c0.384,0.574,0.811,1.111,1.275,1.618
		c0.417,0.449,0.896,0.841,1.377,1.211c0.269,0.206,0.535,0.402,0.813,0.592c0.284,0.195,0.586,0.375,0.886,0.541
		c0.609,0.348,1.256,0.623,1.9,0.891c1.244,0.5,2.533,0.857,3.849,1.12c0.689,0.135,1.384,0.237,2.075,0.328
		c0.762,0.104,1.531,0.182,2.3,0.244c1.323,0.11,2.655,0.148,3.982,0.151c0.166,0.014,0.332,0.027,0.496,0.041
		c1.285,0.103,2.579,0.1,3.86,0.04c1.514-0.073,3.016-0.266,4.512-0.51c0.248-0.067,0.462-0.194,0.646-0.377
		c0.272-0.277,0.426-0.658,0.423-1.044c-0.002-0.39-0.165-0.761-0.438-1.036c-0.273-0.263-0.658-0.43-1.041-0.423
		c-2.321,0.075-4.646,0.172-6.97,0.205c-1.078,0.016-2.16,0.015-3.244-0.014c-1.106-0.229-2.194-0.544-3.241-0.967
		c-1.039-0.459-2.025-1.02-2.939-1.697c-0.802-0.644-1.533-1.365-2.182-2.168c-0.66-0.874-1.213-1.818-1.664-2.814
		c-0.564-1.349-0.944-2.759-1.163-4.207c-0.228-1.808-0.208-3.636-0.006-5.444c0.325-2.44,0.983-4.821,1.901-7.102
		c1.053-2.485,2.398-4.827,4.001-6.991c1.649-2.152,3.543-4.11,5.662-5.806c1.026-0.797,2.094-1.534,3.205-2.2
		c1.165-0.703,2.375-1.316,3.62-1.857c-0.084,0.038-0.167,0.071-0.253,0.107c1.195-0.508,2.424-0.949,3.681-1.309
		c1.377-0.401,2.789-0.693,4.211-0.9c0.693-0.089,1.39-0.159,2.092-0.208c0.843-0.057,1.683-0.069,2.526-0.065
		c0.39,0.002,0.777-0.169,1.049-0.442c0.276-0.281,0.43-0.665,0.428-1.054c-0.004-0.396-0.165-0.774-0.444-1.048
		c-0.103-0.078-0.199-0.152-0.301-0.23c-0.234-0.134-0.489-0.198-0.753-0.198c-1.626-0.173-3.266-0.25-4.895-0.258
		c1.1-0.432,2.21-0.846,3.329-1.239c1.656-0.582,3.333-1.114,5.031-1.551c0.022-0.006,0.011-0.034-0.012-0.035
		C56.71,55.953,54.681,56.471,52.673,57.044"/>
	<path opacity="0.485" fill="#010101" d="M181.151,106.091L181.151,106.091L181.151,106.091L181.151,106.091 M174.55,108.468
		c0,0-0.003,0.002-0.007,0.002c-0.057,0.006-0.116,0.015-0.171,0.023C174.432,108.484,174.493,108.476,174.55,108.468
		 M173.435,108.071c-0.048,0.008-0.094,0.01-0.145,0.018C173.338,108.083,173.385,108.077,173.435,108.071 M186.432,80.41
		c0.051,0.068,0.101,0.137,0.155,0.205C186.532,80.545,186.482,80.478,186.432,80.41 M178.378,80.007
		c0.064,0.049,0.127,0.095,0.188,0.141C178.505,80.102,178.442,80.056,178.378,80.007 M178.097,79.79
		c0.047,0.035,0.092,0.072,0.139,0.105C178.188,79.86,178.142,79.825,178.097,79.79 M177.89,73.27
		c-1.313-1.109-2.684-2.163-4.064-3.191c-0.395-0.291-0.789-0.58-1.187-0.861c2.277,1.26,4.47,2.672,6.552,4.233
		c1.379,1.056,2.703,2.181,3.961,3.381c1.227,1.183,2.377,2.449,3.438,3.785c0.562,0.742,1.091,1.503,1.59,2.292
		c-1.847-2.229-4.023-4.181-6.295-5.974C180.611,75.653,179.267,74.438,177.89,73.27 M164.786,66.137
		c0.47,0.035,0.94,0.081,1.41,0.14c-0.017-0.001-0.041-0.008-0.057-0.008c0.099,0.013,0.195,0.027,0.296,0.041
		c1.037,0.742,2.068,1.5,3.085,2.271c-0.047-0.027-0.087-0.062-0.133-0.095c0.372,0.283,0.74,0.566,1.106,0.853
		C168.608,68.239,166.7,67.184,164.786,66.137 M162.024,64.635c1.137,0.356,2.263,0.751,3.375,1.178
		c-0.171-0.008-0.342-0.015-0.513-0.018c-0.251-0.008-0.498-0.011-0.747-0.012C163.433,65.4,162.73,65.017,162.024,64.635
		 M152.576,57.175c0.747,0.485,1.494,0.965,2.242,1.439c-0.421-0.057-0.846-0.107-1.271-0.151c-1.02-0.111-2.042-0.16-3.065-0.159
		c-0.989,0.002-1.877,0.698-2.128,1.651c-0.105,0.39-0.102,0.785,0.01,1.18c0.072,0.173,0.149,0.349,0.222,0.531
		c0.2,0.33,0.468,0.595,0.802,0.791c0.403,0.298,0.814,0.582,1.223,0.867c0.239,0.167,0.477,0.334,0.71,0.496
		c0.251,0.174,0.507,0.33,0.756,0.493c1.045,0.669,2.116,1.295,3.194,1.91c2.46,1.4,4.951,2.732,7.425,4.093
		c5.377,2.944,10.74,5.979,15.652,9.667c2.581,1.988,5.028,4.183,7.084,6.722c0.558,0.724,1.082,1.469,1.562,2.249
		c0.286,0.467,0.554,0.946,0.801,1.437c0.171,0.642,0.312,1.293,0.415,1.953c0.073,0.576,0.114,1.155,0.128,1.737
		c0.02,0.695-0.026,1.393-0.11,2.082c-0.081,0.536-0.188,1.062-0.321,1.591c-0.16,0.627-0.371,1.24-0.605,1.839
		c-0.541,1.254-1.215,2.445-2.01,3.554c-0.199,0.251-0.41,0.489-0.634,0.719c-0.201,0.2-0.416,0.392-0.636,0.572
		c-0.886,0.672-1.853,1.206-2.868,1.655c0.075-0.03,0.147-0.061,0.221-0.09c-0.073,0.029-0.146,0.06-0.221,0.09
		c-0.036,0.018-0.081,0.035-0.118,0.055c0.038-0.021,0.077-0.037,0.118-0.055c-2.565,1.055-5.308,1.632-8.045,2.022
		c-2.818,0.378-5.651,0.566-8.489,0.648c-1.288,0.045-2.575,0.057-3.866,0.048c-1.133-0.008-2.265-0.037-3.396-0.049
		c-0.384-0.002-0.765,0.17-1.036,0.444c-0.276,0.271-0.426,0.65-0.423,1.041s0.16,0.762,0.438,1.038
		c0.278,0.28,0.653,0.418,1.042,0.42c1.009,0.065,2.02,0.094,3.03,0.104c0.136,0.006,0.274,0.011,0.415,0.02
		c1.366,0.064,2.74,0.107,4.114,0.133c3.103,0.05,6.209-0.047,9.299-0.416c1.372-0.162,2.741-0.378,4.094-0.664
		c-1.471,0.552-2.974,1.011-4.495,1.402c-1.845,0.476-3.714,0.842-5.591,1.125c-2.052,0.287-4.129,0.501-6.203,0.483
		c-0.516-0.008-1.021,0.224-1.379,0.587c-0.365,0.371-0.573,0.875-0.568,1.39c0.004,0.52,0.218,1.02,0.587,1.383
		c0.131,0.103,0.268,0.203,0.398,0.305c0.307,0.178,0.641,0.266,0.989,0.263c0.896,0.068,1.783,0.135,2.675,0.181
		c0.916,0.037,1.832,0.048,2.748,0.023c0.803-0.029,1.6-0.081,2.395-0.146c0.936-0.082,1.857-0.207,2.777-0.35
		c1.453-0.213,2.88-0.526,4.29-0.932c1.374-0.397,2.71-0.924,4.022-1.509c1.117-0.506,2.188-1.102,3.208-1.777
		c0.469-0.307,0.919-0.64,1.356-0.982c0.539-0.421,1.065-0.854,1.571-1.321c0.117-0.109,0.231-0.219,0.345-0.328
		c0.128-0.101,0.248-0.202,0.373-0.304c0.348-0.287,0.681-0.589,0.999-0.9c0.276-0.269,0.535-0.547,0.781-0.831
		c0.329-0.377,0.627-0.78,0.93-1.178c0.486-0.647,0.893-1.357,1.233-2.09c0.223-0.481,0.42-0.974,0.622-1.466
		c0.144-0.364,0.276-0.738,0.403-1.107c0.266-0.771,0.469-1.55,0.628-2.341c0.07-0.354,0.13-0.702,0.18-1.06
		c0.001-0.016,0.003-0.026,0.002-0.041c0.64-1.638,0.95-3.379,1.106-5.124c0.068-0.773,0.072-1.546,0.039-2.326
		c-0.035-0.923-0.16-1.837-0.313-2.746c-0.272-1.59-0.771-3.141-1.403-4.624c-0.345-0.817-0.718-1.611-1.138-2.388
		c-0.412-0.777-0.874-1.526-1.36-2.257c-0.51-0.764-1.062-1.494-1.632-2.214c-0.566-0.725-1.165-1.425-1.78-2.106
		c-1.231-1.352-2.556-2.609-3.944-3.792c-0.677-0.582-1.382-1.136-2.094-1.679c-0.845-0.653-1.704-1.287-2.583-1.89
		c-2.183-1.504-4.469-2.845-6.827-4.042c-1.194-0.612-2.408-1.173-3.637-1.702c-1.292-0.562-2.602-1.083-3.934-1.554
		c-2.24-0.798-4.539-1.436-6.865-1.905c-0.61-0.122-1.224-0.226-1.839-0.315c-0.938-0.511-1.876-1.022-2.801-1.549
		c-0.007-0.002-0.01-0.002-0.014-0.002C152.569,57.143,152.562,57.167,152.576,57.175"/>
	<path opacity="0.485" fill="#010101" d="M60.248,56.032c-0.018,0.005-0.032,0.007-0.049,0.009c0.025-0.002,0.049-0.003,0.075-0.01
		C60.264,56.032,60.257,56.033,60.248,56.032 M35.558,64.992c-0.002,0.002-0.005,0.002-0.005,0.002c0.003,0,0.007,0,0.011-0.004
		C35.561,64.992,35.56,64.993,35.558,64.992 M26.808,108.315c-0.107-0.057-0.213-0.119-0.321-0.177
		c0.114,0.054,0.229,0.108,0.344,0.158c0.878,0.414,1.774,0.78,2.673,1.146c0.863,0.349,1.736,0.672,2.613,0.975
		c0.873,0.309,1.751,0.596,2.638,0.858c-1.796-0.434-3.564-0.979-5.282-1.667C28.562,109.221,27.674,108.793,26.808,108.315
		 M30.942,107.61c0.021,0.003,0.042,0.004,0.063,0.006C30.985,107.614,30.964,107.613,30.942,107.61 M56.548,63.171l-0.001,0.002
		l0,0C56.548,63.171,56.548,63.171,56.548,63.171 M50.719,63.149c1.911,0.263,3.798,0.655,5.659,1.146
		c-0.006,0.1-0.014,0.204-0.024,0.307c-6.698,0.926-13.429,1.735-20.015,3.344c-1.747,0.426-3.477,0.917-5.187,1.49
		c-1.329,0.444-2.632,0.951-3.919,1.505c0.925-0.992,1.917-1.916,2.981-2.766c1.65-1.264,3.435-2.329,5.338-3.181
		c-0.07,0.032-0.144,0.061-0.216,0.091c0.072-0.03,0.147-0.062,0.221-0.093c0.075-0.031,0.152-0.068,0.229-0.102
		c-0.076,0.035-0.149,0.067-0.223,0.099c1.007-0.423,2.037-0.778,3.086-1.081c1.138-0.323,2.299-0.571,3.471-0.751
		C44.978,62.784,47.863,62.813,50.719,63.149 M62.194,55.279c-2.706,0.105-5.413,0.408-8.089,0.829
		c-2.991,0.474-5.945,1.123-8.869,1.918c-1.239,0.342-2.471,0.713-3.694,1.115c-0.129,0.022-0.26,0.046-0.388,0.069
		c-1.208,0.232-2.406,0.545-3.576,0.925c-1.223,0.406-2.424,0.906-3.59,1.461c-1.025,0.489-2.011,1.051-2.962,1.668
		c-0.539,0.352-1.069,0.727-1.585,1.117c-0.485,0.273-0.967,0.553-1.446,0.846c-1.265,0.758-2.491,1.586-3.674,2.476
		c-1.201,0.898-2.358,1.855-3.445,2.886c-0.997,0.944-1.931,1.959-2.784,3.032c-0.889,1.115-1.699,2.287-2.392,3.529
		c-0.304,0.55-0.583,1.117-0.838,1.69c-0.317,0.716-0.605,1.444-0.854,2.187c-0.198,0.596-0.361,1.208-0.494,1.825
		c-0.024,0.104-0.048,0.208-0.068,0.313c-0.057,0.125-0.111,0.254-0.165,0.384c-0.228,0.544-0.45,1.082-0.644,1.637
		c-0.155,0.43-0.283,0.879-0.396,1.32c-0.216,0.793-0.355,1.601-0.463,2.416c-0.156,1.161-0.275,2.319-0.319,3.484
		c-0.032,0.832-0.021,1.667,0.026,2.498c0.057,1.062,0.206,2.117,0.371,3.169c0.238,1.476,0.645,2.934,1.214,4.32
		c0.339,0.835,0.701,1.655,1.125,2.45c0.344,0.636,0.729,1.241,1.144,1.826c0.313,0.451,0.662,0.876,0.999,1.31
		c0.206,0.26,0.411,0.511,0.627,0.76c0.461,0.532,0.967,1.034,1.493,1.515c0.643,0.595,1.342,1.126,2.047,1.658
		c0.574,0.432,1.17,0.838,1.783,1.218c1.203,0.755,2.486,1.388,3.796,1.945c0.843,0.36,1.694,0.705,2.562,1.014
		c0.725,0.259,1.46,0.488,2.203,0.702c1.46,0.418,2.949,0.749,4.442,1.021c0.729,0.129,1.461,0.234,2.196,0.337
		c1.02,0.138,2.03,0.262,3.051,0.361c3.074,0.299,6.165,0.358,9.258,0.248c2.875-0.1,5.749-0.363,8.6-0.765
		c1.329-0.186,2.647-0.384,3.968-0.628c0.481-0.139,0.902-0.387,1.256-0.743c0.533-0.542,0.831-1.271,0.829-2.03
		c-0.01-0.52-0.145-0.999-0.41-1.442c-0.146-0.19-0.295-0.39-0.448-0.58c-0.36-0.352-0.785-0.593-1.267-0.726
		c-2.288-0.665-4.631-1.117-6.97-1.545c-2.862-0.534-5.73-1.006-8.595-1.521c-2.733-0.5-5.465-1.044-8.171-1.693
		c1.243-0.46,2.448-1.016,3.622-1.629c0.016-0.013,0.001-0.042-0.026-0.029c-0.145,0.063-0.29,0.126-0.438,0.19l0.008-0.002
		c-1.224,0.521-2.476,0.977-3.757,1.331c-0.126-0.031-0.251-0.063-0.377-0.098c-2.873-0.716-5.728-1.563-8.469-2.692
		c-2.078-0.893-4.09-1.941-5.913-3.284c-0.458-0.362-0.901-0.744-1.327-1.145c-0.458-0.433-0.888-0.899-1.292-1.386
		c-0.052-0.07-0.107-0.139-0.157-0.211c-0.35-1.116-0.602-2.264-0.777-3.428c-0.317-2.353-0.302-4.744-0.029-7.102
		c0.205-1.605,0.539-3.192,0.98-4.744c0.034-0.051,0.072-0.102,0.107-0.152c0.465-0.581,0.959-1.133,1.488-1.665
		c0.539-0.541,1.121-1.056,1.72-1.54c2.027-1.527,4.253-2.747,6.565-3.771c4.551-1.906,9.356-3.135,14.178-4.131
		c4.83-0.995,9.702-1.721,14.551-2.581c0.411-0.116,0.759-0.329,1.063-0.63c0.29-0.301,0.499-0.66,0.607-1.066
		c0.061-0.215,0.077-0.511,0.092-0.764c0.008-0.158,0.021-0.318,0.029-0.476c0.025-0.52,0.056-1.045,0.075-1.566
		c0.023-0.508,0.042-1.012,0.054-1.52c0.004-0.142,0.003-0.283-0.003-0.424c-0.006-0.231-0.047-0.465-0.095-0.689
		c-0.076-0.378-0.361-0.776-0.617-1.041c-0.335-0.345-0.798-0.567-1.275-0.646c-1.519-0.407-3.05-0.749-4.602-1.008
		c-0.871-0.144-1.752-0.255-2.626-0.357c-0.763-0.09-1.54-0.151-2.309-0.191c-0.277-0.015-0.555-0.027-0.834-0.036
		c0.484-0.144,0.973-0.287,1.458-0.425c3.265-0.922,6.583-1.65,9.938-2.137c-0.004,0-0.004,0-0.007,0
		c0.021-0.002,0.038-0.004,0.056-0.009c0.011-0.002,0.019-0.001,0.029-0.002c0,0-0.004,0-0.003,0c2.865-0.4,5.779-0.652,8.675-0.49
		c0.022,0,0.023-0.033,0.001-0.04c-1.641-0.206-3.289-0.276-4.94-0.265C63.405,55.241,62.799,55.255,62.194,55.279"/>
	<path opacity="0.485" fill="#010101" d="M50.923,99.739c0.001,0.002,0.008,0.001,0.01,0C50.932,99.74,50.925,99.741,50.923,99.739
		 M51.136,99.733c-0.007,0-0.017,0.001-0.027,0.004C51.119,99.734,51.129,99.732,51.136,99.733 M50.739,99.654
		c0.002,0.003,0.004,0.009,0.007,0.013C50.743,99.663,50.742,99.657,50.739,99.654 M50.629,99.38c0,0.005,0.006,0.006,0.003,0.008
		C50.632,99.389,50.629,99.385,50.629,99.38 M28.952,95.508c-0.029,0.071-0.057,0.136-0.084,0.207
		c-0.014,0.034-0.029,0.069-0.045,0.106C28.868,95.714,28.909,95.613,28.952,95.508 M45.428,90.391
		c-0.011,0.088-0.026,0.177-0.035,0.263C45.402,90.568,45.416,90.478,45.428,90.391 M47.764,64.729
		c-0.233,0.098-0.456,0.188-0.682,0.287c-0.421,0.256-0.764,0.598-1.011,1.031c-1.161,2.29-2.281,4.599-3.409,6.911
		c-1.172,2.415-2.346,4.829-3.544,7.229c-0.279,0.556-0.559,1.108-0.845,1.664c0.275-1.441,0.5-2.888,0.679-4.343
		c0.147-1.203,0.262-2.413,0.333-3.628c0.082-1.335,0.094-2.67,0.06-4.007c-0.007-0.361-0.099-0.697-0.285-1.01
		c-0.261-0.444-0.699-0.776-1.203-0.913c-0.351-0.093-0.707-0.089-1.062,0.007c-0.159,0.069-0.323,0.139-0.48,0.207
		c-0.299,0.184-0.54,0.423-0.713,0.723c-1.081,2.1-2.001,4.27-2.84,6.476c-0.846,2.25-1.578,4.539-2.277,6.832
		c-1.392,4.536-2.662,9.109-4.451,13.501c0.03-0.076,0.059-0.153,0.09-0.227c-0.14,0.337-0.282,0.668-0.426,1.001
		c-0.009-0.12-0.019-0.243-0.025-0.365c-0.053-0.835-0.065-1.685-0.059-2.527c0.016-1.667,0.151-3.334,0.354-4.989
		c-0.005,0.049-0.011,0.097-0.018,0.145c0.509-3.95,1.436-7.822,2.461-11.659c1.09-4.083,2.303-8.135,3.33-12.233
		c0.005-0.023-0.029-0.035-0.033-0.012c-1.99,6.04-4.375,11.952-6.121,18.073c-0.42,1.466-0.787,2.945-1.11,4.438
		c-0.304,1.439-0.539,2.895-0.714,4.351c-0.177,1.473-0.254,2.952-0.253,4.428c0.004,0.74,0.035,1.476,0.088,2.203
		c0.057,0.849,0.175,1.684,0.304,2.52c0.06,0.195,0.165,0.371,0.31,0.523c0.149,0.146,0.325,0.247,0.528,0.303
		c0.521,0.137,1.062-0.099,1.34-0.558c0.923-1.545,1.758-3.133,2.522-4.76c-0.079,0.186-0.157,0.374-0.234,0.558
		c-0.234,0.409-0.349,0.851-0.353,1.321c0.005,0.695,0.293,1.358,0.783,1.845c0.489,0.486,1.163,0.756,1.853,0.75
		c0.232-0.029,0.464-0.064,0.695-0.096c0.446-0.126,0.828-0.354,1.153-0.681c0.927-0.904,1.812-1.854,2.641-2.85
		c0.556-0.658,1.076-1.343,1.597-2.029c0.448-0.591,0.876-1.187,1.303-1.789c1.785-2.54,3.354-5.221,4.835-7.937
		c0.72-1.312,1.404-2.639,2.086-3.973c0.373-0.737,0.739-1.481,1.1-2.227c-0.013,3.911-0.23,7.82-0.71,11.704
		c-0.301,2.176-0.691,4.332-1.194,6.467c-0.103,0.438-0.212,0.875-0.329,1.312c-0.596,1.769-1.172,3.542-1.725,5.326
		c-0.109,0.409-0.105,0.814,0.011,1.222c0.162,0.569,0.543,1.062,1.06,1.358c0.526,0.303,1.173,0.381,1.766,0.219
		c0.18-0.08,0.366-0.161,0.547-0.234c0.344-0.207,0.611-0.484,0.815-0.832c0.645-1.476,1.231-2.965,1.744-4.489
		c0.525-1.547,0.966-3.121,1.351-4.707c0.326-1.343,0.603-2.697,0.842-4.06c0.453-1.461,0.913-2.924,1.371-4.382
		c1.233-3.91,2.473-7.818,3.65-11.746c0,0.029,0.003,0.059,0.005,0.086c0.064,1.054,0.079,2.104,0.062,3.149
		c-0.027,2.036-0.207,4.066-0.456,6.083c0.001-0.002,0-0.004,0-0.008c-0.597,4.608-1.614,9.137-2.708,13.644
		c-0.127,0.065-0.263,0.126-0.395,0.179c0.017-0.007,0.027-0.012,0.045-0.017c-0.216,0.085-0.43,0.157-0.657,0.209
		c0.001-0.002,0.001-0.002,0.003-0.001c-0.08,0.019-0.16,0.017-0.238,0.012c-0.037-0.004-0.073-0.013-0.109-0.027
		c0.004,0,0.004,0,0.006,0.001c-0.014-0.012-0.026-0.022-0.045-0.029c-0.015-0.015-0.033-0.035-0.046-0.047
		c-0.027-0.042-0.047-0.082-0.068-0.12c0.008,0.01,0.012,0.022,0.019,0.032c-0.02-0.055-0.037-0.11-0.051-0.168
		c-0.027-0.206-0.027-0.412-0.029-0.616c-0.001-0.317-0.004-0.627-0.029-0.94c-0.018-0.23-0.067-0.461-0.126-0.68
		c-0.068-0.3-0.216-0.558-0.389-0.812c-0.012-0.017-0.04-0.001-0.026,0.022c0.061,0.101,0.121,0.208,0.166,0.321l-0.001-0.005
		c0.046,0.109,0.081,0.219,0.116,0.333c0.029,0.107,0.052,0.221,0.064,0.339c0-0.008,0-0.013,0.002-0.019
		c0.051,0.435,0.036,0.858,0.003,1.293c-0.027,0.341-0.063,0.68,0.015,1.013c0.017,0.073,0.061,0.163,0.113,0.225
		c0.065,0.081,0.135,0.131,0.234,0.174c0.089,0.043,0.191,0.05,0.291,0.061c0.091,0.002,0.189-0.004,0.279-0.023
		c0.141-0.017,0.274-0.05,0.407-0.086c0.151-0.044,0.305-0.093,0.452-0.149c0.102-0.036,0.207-0.076,0.309-0.123
		c0.129-0.081,0.168-0.328,0.201-0.431c0.293-0.9,0.585-1.793,0.866-2.694c0.546-1.752,1.071-3.507,1.551-5.272
		c0.482-1.785,0.909-3.584,1.274-5.396c0.357-1.767,0.633-3.549,0.826-5.335c0.197-1.776,0.274-3.557,0.236-5.342
		c-0.035-1.729-0.228-3.457-0.545-5.156c-0.064-0.222-0.178-0.406-0.337-0.57c-0.245-0.24-0.574-0.374-0.912-0.372
		c-0.237,0.002-0.454,0.068-0.655,0.182c-0.084,0.068-0.174,0.136-0.258,0.205c-0.158,0.166-0.268,0.352-0.33,0.573
		c-0.896,2.562-1.828,5.107-2.781,7.651c0.009-0.277,0.012-0.551,0.016-0.827c0.023-1.547,0.005-3.097-0.042-4.643
		c-0.014-0.815-0.045-1.626-0.09-2.437c-0.039-0.803-0.075-1.598-0.116-2.4c-0.008-0.514-0.135-0.994-0.399-1.431
		c-0.376-0.639-0.996-1.109-1.709-1.294c-0.252-0.067-0.506-0.097-0.756-0.097C48.266,64.622,48.016,64.658,47.764,64.729"/>
	<path opacity="0.485" fill="#010101" d="M148.105,65.112c1.355,5.131,2.878,10.216,4.256,15.339
		c0.646,2.407,1.257,4.833,1.794,7.266c0.561,2.539,1.027,5.09,1.394,7.664c-0.016-0.09-0.027-0.179-0.037-0.271
		c0.207,1.514,0.383,3.032,0.507,4.552c0.142,1.672,0.199,3.351,0.246,5.028c0.014,0.316,0.131,0.609,0.357,0.834
		c0.222,0.218,0.527,0.345,0.844,0.345c0.31-0.004,0.616-0.136,0.835-0.357c0.224-0.222,0.341-0.522,0.343-0.839
		c0.033-4.145-0.061-8.279-0.08-12.422c-0.011-2.16,0.013-4.323,0.094-6.482c0.033-0.998,0.086-1.99,0.16-2.979
		c0.072,0.278,0.145,0.558,0.212,0.839c0.613,2.489,1.087,5.011,1.462,7.547c0.193,1.363,0.353,2.733,0.482,4.102
		c0.023,1.77,0.044,3.544,0.064,5.32c0.022,1.44,0.038,2.886,0.062,4.334c0.012,0.722,0.022,1.444,0.031,2.169
		c0.004,0.356,0.013,0.718,0.015,1.079c0.008,0.484,0.001,0.968,0.001,1.446c0.002,0.526,0.223,1.039,0.596,1.407
		c0.379,0.373,0.887,0.577,1.413,0.573c0.531-0.005,1.037-0.216,1.408-0.594c0.101-0.136,0.208-0.271,0.31-0.408
		c0.177-0.312,0.264-0.645,0.262-1.008c0.154-2.928,0.178-5.861,0.048-8.794c-0.014-0.31-0.031-0.62-0.048-0.928
		c0.001-1.183,0.002-2.367,0.001-3.549c0.459,2.04,0.893,4.083,1.269,6.141c0.088,0.314,0.248,0.585,0.481,0.816
		c0.346,0.343,0.822,0.535,1.316,0.535c0.333-0.007,0.644-0.093,0.931-0.265c0.415-0.244,0.705-0.643,0.836-1.112
		c0.932-3.211,2.011-6.376,3.274-9.473c0.996-2.358,2.1-4.67,3.344-6.911c0.788-1.422,1.641-2.811,2.549-4.161
		c0.129,0.94,0.248,1.883,0.35,2.83c0.142,1.315,0.242,2.632,0.33,3.953c0.161,2.564,0.224,5.141,0.261,7.714
		c0.027,2.102,0.031,4.202,0.031,6.304c-0.122,1.281-0.194,2.568-0.206,3.858c-0.009,0.88,0.008,1.764,0.053,2.638
		c0.05,0.982,0.147,1.965,0.239,2.948c0.01,0.096,0.023,0.188,0.039,0.283c0.054,0.18,0.145,0.332,0.275,0.467
		c0.201,0.196,0.473,0.306,0.755,0.306c0.275-0.004,0.554-0.117,0.751-0.315c0.193-0.207,0.302-0.473,0.305-0.754
		c0.042-5.312,0.321-10.618,0.426-15.925c0.051-0.243,0.101-0.49,0.155-0.732c0.001,0.203,0.008,0.407,0.01,0.612
		c0.037,1.802,0.089,3.605,0.149,5.408c0.121,3.605,0.268,7.208,0.432,10.812c-0.003,0.022,0.032,0.023,0.038,0
		c0.076-3.488,0.157-6.97,0.25-10.458c0.043-1.801,0.104-3.604,0.152-5.408c0.054-1.803,0.11-3.607,0.174-5.41
		c0.016-0.283-0.208-0.54-0.472-0.613c-0.167-0.044-0.347-0.02-0.493,0.067c-0.047,0.033-0.088,0.067-0.128,0.103
		c-0.081,0.079-0.135,0.175-0.163,0.283c-0.026,0.063-0.051,0.129-0.074,0.195c-0.021-1.684-0.077-3.367-0.176-5.047
		c-0.086-1.413-0.207-2.825-0.382-4.232c-0.083-0.672-0.185-1.337-0.287-2.008c-0.11-0.741-0.241-1.477-0.376-2.214
		c-0.082-0.263-0.212-0.494-0.413-0.69c-0.192-0.19-0.427-0.326-0.692-0.396c-0.278-0.072-0.553-0.072-0.837,0.007
		c-0.267,0.073-0.488,0.21-0.687,0.405c-1.468,1.809-2.837,3.689-4.093,5.643c-1.242,1.924-2.356,3.933-3.383,5.981
		c-1.018,2.039-1.92,4.134-2.759,6.253c-0.359-1.74-0.731-3.478-1.105-5.212c-0.865-4.062-1.711-8.137-2.315-12.249
		c-0.144-1.039-0.269-2.077-0.375-3.115c-0.022-0.185-0.051-0.372-0.078-0.551c-0.104-0.355-0.288-0.667-0.541-0.925
		c-0.401-0.386-0.934-0.602-1.487-0.599c-0.554,0.005-1.089,0.229-1.478,0.623c-0.384,0.392-0.607,0.931-0.603,1.484
		c0.011,1.088,0.023,2.181,0.035,3.27c-0.031-0.094-0.064-0.189-0.099-0.285c-0.264-0.745-0.548-1.487-0.831-2.227
		c-0.08-0.277-0.222-0.519-0.429-0.719c-0.312-0.311-0.73-0.483-1.168-0.479c-0.717,0.006-1.415,0.515-1.577,1.223
		c-0.122,0.509-0.224,1.017-0.329,1.528c-0.103,0.526-0.183,1.063-0.253,1.596c-0.167,1.266-0.287,2.533-0.368,3.81
		c-0.104,1.662-0.135,3.335-0.128,5.003c-0.204-0.712-0.415-1.424-0.631-2.133c-0.994-3.247-2.116-6.46-3.252-9.662
		c-1.19-3.348-2.39-6.686-3.532-10.045c-0.006-0.006-0.016-0.012-0.022-0.011C148.112,65.087,148.103,65.097,148.105,65.112"/>
	<path fill="#010101" d="M103.837,105.455c-0.131,0.058-0.265,0.113-0.396,0.168C103.572,105.568,103.706,105.513,103.837,105.455
		 M77.662,97.799c-0.118,0.092-0.234,0.184-0.349,0.276C77.428,97.983,77.544,97.891,77.662,97.799 M107.738,42.947
		c-3.417,2.066-6.923,3.973-10.44,5.854c-3.744,2.001-7.499,3.984-11.163,6.131c-1.767,1.03-3.505,2.109-5.208,3.243
		c-0.269,0.179-0.539,0.36-0.807,0.545c-0.606,0.27-1.213,0.54-1.824,0.801c0.003,0.002,0.004,0,0.011-0.001
		c-0.142,0.058-0.279,0.118-0.416,0.177c1.385-1.179,2.799-2.324,4.229-3.446c-0.045,0.035-0.09,0.068-0.136,0.103
		c6.02-4.708,12.336-9.004,18.523-13.481c0.016-0.016,0.001-0.045-0.023-0.034c-4.737,3.031-9.542,5.966-14.248,9.047
		c-2.391,1.565-4.757,3.177-7.074,4.857c-2.276,1.642-4.491,3.374-6.641,5.174c-0.122,0.118-0.201,0.266-0.245,0.424
		c-0.073,0.257-0.03,0.526,0.101,0.747c0.218,0.366,0.682,0.561,1.094,0.438c0.221-0.067,0.441-0.135,0.663-0.204
		c-1.017,0.886-1.996,1.822-2.926,2.798c-0.644,0.678-1.25,1.393-1.831,2.126c-0.702,0.894-1.372,1.803-2.003,2.738
		c-0.314,0.552-0.467,1.141-0.463,1.769c0.003,0.347,0.053,0.683,0.155,1.001c-0.873,0.855-1.706,1.745-2.496,2.679
		c-0.232,0.272-0.46,0.551-0.676,0.834c-0.513,0.655-1.014,1.313-1.489,1.983c-0.404,0.568-0.771,1.16-1.106,1.771
		c-0.51,0.893-0.761,1.848-0.75,2.871c0.005,1.024,0.272,1.977,0.792,2.861c0.307,0.505,0.672,0.949,1.096,1.333
		c0.037,0.305,0.099,0.612,0.181,0.917c0.285,0.982,0.789,1.827,1.514,2.543c0.728,0.713,1.582,1.206,2.565,1.475
		c0.475,0.103,0.952,0.194,1.426,0.276c0.079,0.01,0.158,0.022,0.236,0.038c0.224,0.031,0.446,0.058,0.667,0.088
		c-0.745,0.722-1.452,1.485-2.153,2.252c-0.527,0.537-0.89,1.164-1.081,1.889c-0.299,1.101-0.129,2.299,0.453,3.282
		c0.385,0.641,0.896,1.146,1.539,1.516c0.338,0.143,0.68,0.287,1.025,0.424c0.751,0.199,1.512,0.192,2.265-0.015
		c0.249-0.06,0.491-0.116,0.741-0.177c0.247-0.062,0.495-0.115,0.755-0.158c0.515-0.076,1.028-0.171,1.542-0.265
		c0.519-0.095,1.039-0.205,1.557-0.299c0.621-0.106,1.244-0.217,1.863-0.331c0.286-0.057,0.57-0.11,0.856-0.167
		c-0.572,0.463-1.138,0.933-1.698,1.404c-0.908,0.765-1.782,1.564-2.653,2.365c-0.459,0.428-0.914,0.859-1.358,1.312
		c-0.43,0.442-0.861,0.894-1.282,1.346c-0.243,0.246-0.405,0.529-0.496,0.857c-0.088,0.341-0.087,0.687,0.006,1.03
		c0.097,0.328,0.264,0.608,0.509,0.849c0.132,0.103,0.261,0.197,0.393,0.298c0.298,0.175,0.63,0.261,0.975,0.259
		c0.606-0.062,1.219-0.096,1.822-0.15c0.611-0.055,1.221-0.127,1.825-0.206c1.286-0.159,2.57-0.365,3.845-0.605
		c1.998-0.367,3.965-0.854,5.917-1.413c-0.292,0.258-0.583,0.52-0.881,0.774c-0.393,0.341-0.774,0.688-1.162,1.041
		c-0.373,0.341-0.763,0.673-1.139,1.016c-0.374,0.33-0.752,0.647-1.131,0.975c-0.317,0.328-0.536,0.714-0.655,1.157
		c-0.122,0.463-0.12,0.928,0.009,1.39c0.127,0.446,0.352,0.825,0.674,1.147c0.183,0.14,0.359,0.274,0.535,0.408
		c0.408,0.235,0.85,0.349,1.319,0.348c1.343-0.117,2.682-0.31,4.014-0.506c0.301-0.046,0.598-0.106,0.892-0.165
		c0.301-0.059,0.592-0.115,0.891-0.176c0.594-0.123,1.181-0.258,1.767-0.392c1.508-0.346,3.009-0.75,4.496-1.192
		c-0.304,0.276-0.61,0.556-0.91,0.833c-0.471,0.432-0.926,0.872-1.381,1.321c-0.441,0.438-0.875,0.898-1.308,1.354
		c-0.504,0.518-0.856,1.126-1.044,1.823c-0.191,0.729-0.187,1.46,0.016,2.187c0.198,0.692,0.56,1.297,1.073,1.805
		c0.276,0.208,0.557,0.422,0.834,0.634c0.647,0.369,1.34,0.549,2.079,0.549c1.147-0.081,2.283-0.199,3.417-0.332
		c0.875-0.1,1.745-0.226,2.612-0.35c0.359-0.051,0.716-0.107,1.07-0.168c-0.346,0.457-0.685,0.918-1.014,1.392
		c-0.185,0.323-0.279,0.669-0.274,1.042c0.001,0.368,0.102,0.719,0.29,1.032c0.183,0.312,0.432,0.55,0.741,0.735
		c0.481,0.272,1.052,0.343,1.586,0.192c0.322-0.089,0.646-0.182,0.965-0.267c0.43-0.129,0.853-0.277,1.275-0.417
		c0.85-0.282,1.69-0.597,2.527-0.911c1.684-0.635,3.356-1.311,5.019-1.993c3.239-1.33,6.445-2.732,9.667-4.113
		c4.588-1.964,9.213-3.878,13.94-5.49c-0.237,0.17-0.474,0.342-0.706,0.509c-1.854,1.358-3.672,2.774-5.446,4.235
		c-3.668,2.999-7.148,6.226-10.508,9.565c-0.019,0.019,0.005,0.039,0.028,0.022c2.42-2.164,4.903-4.264,7.457-6.264
		c-0.022,0.011-0.037,0.026-0.062,0.038c2.365-1.843,4.794-3.606,7.292-5.271c1.249-0.836,2.526-1.636,3.809-2.414
		c0.647-0.387,1.293-0.771,1.945-1.143c0.378-0.22,0.76-0.413,1.145-0.608c0.387-0.194,0.771-0.395,1.154-0.59
		c0.146-0.086,0.257-0.199,0.34-0.349c0.132-0.22,0.161-0.486,0.091-0.729c-0.067-0.236-0.229-0.444-0.444-0.565
		c-0.072-0.035-0.146-0.062-0.228-0.097c-0.17-0.044-0.332-0.043-0.502,0.002c-1.636,0.314-3.263,0.683-4.88,1.084
		c-1.726,0.436-3.44,0.937-5.144,1.455c-2.817,0.872-5.606,1.839-8.386,2.839c0.172-0.081,0.34-0.161,0.51-0.242
		c4.461-2.113,8.753-4.563,12.903-7.221c2.045-1.312,4.04-2.688,6.007-4.098c2.113-1.519,4.178-3.117,6.217-4.742
		c0.357-0.371,0.604-0.804,0.74-1.299c0.203-0.76,0.092-1.586-0.312-2.259c-0.261-0.438-0.615-0.786-1.058-1.043
		c-0.237-0.102-0.471-0.195-0.702-0.295c-0.521-0.132-1.042-0.129-1.56,0.01c-3.571,1.457-7.113,2.993-10.596,4.634
		c-3.91,1.844-7.743,3.827-11.503,5.954c-3.647,2.06-7.208,4.288-10.61,6.749c-0.858,0.288-1.72,0.557-2.587,0.817
		c-0.772,0.231-1.552,0.448-2.33,0.654c5.683-4.077,11.683-7.723,17.762-11.184c3.876-2.204,7.792-4.331,11.74-6.401
		c0.963-0.504,1.924-1.018,2.888-1.524c0.954-0.499,1.903-0.991,2.854-1.489c0.936-0.483,1.872-0.965,2.811-1.445
		c0.423-0.22,0.838-0.43,1.261-0.65c0.079-0.044,0.158-0.091,0.235-0.141c0.163-0.099,0.32-0.196,0.479-0.299
		c0.236-0.148,0.473-0.292,0.707-0.44c0.271-0.21,0.539-0.429,0.811-0.639c0.497-0.506,0.838-1.103,1.025-1.788
		c0.275-1.042,0.121-2.178-0.429-3.107c-0.54-0.892-1.413-1.561-2.427-1.835c-0.356-0.043-0.712-0.09-1.069-0.131
		c-0.37,0-0.729,0.053-1.073,0.149c0.001-0.002,0.001-0.002,0.001-0.002c-0.009,0.003-0.017,0.005-0.025,0.009
		c-0.215,0.062-0.424,0.144-0.628,0.242c-0.3,0.112-0.599,0.228-0.897,0.349c-0.519,0.207-1.008,0.437-1.504,0.677
		c-0.261,0.12-0.513,0.247-0.766,0.372c-1.126,0.545-2.247,1.097-3.366,1.646c-2.22,1.092-4.432,2.187-6.629,3.322
		c-4.516,2.329-8.99,4.742-13.377,7.312c-0.038,0.022-0.075,0.044-0.112,0.065c-1.782,0.943-3.567,1.877-5.361,2.794
		c-3.562,1.815-7.167,3.561-10.847,5.142c-3.131,1.319-6.315,2.52-9.567,3.534c-0.658,0.203-1.314,0.401-1.979,0.586
		c0.598-0.533,1.198-1.057,1.809-1.568c0.945-0.801,1.912-1.577,2.891-2.34c-0.016,0.011-0.032,0.022-0.049,0.037
		c0.948-0.739,1.9-1.463,2.862-2.173c1.107-0.514,2.205-1.044,3.295-1.588c4.701-2.347,9.243-5.021,13.677-7.84
		c2.126-1.35,4.217-2.745,6.303-4.155c1.013-0.692,2.024-1.389,3.037-2.086c0.497-0.336,0.997-0.684,1.49-1.027
		c0.575-0.395,1.153-0.778,1.72-1.171c0.129-0.102,0.261-0.206,0.389-0.308c0.236-0.239,0.396-0.521,0.492-0.85
		c0.131-0.494,0.055-1.036-0.209-1.479c-0.255-0.43-0.672-0.744-1.155-0.875c-0.168-0.022-0.341-0.042-0.509-0.064
		c-0.352,0.004-0.672,0.096-0.971,0.268c-1.836,0.883-3.658,1.796-5.461,2.741c-2.021,1.055-4.026,2.15-6.005,3.266
		c-4.093,2.297-8.11,4.729-12.036,7.296c-2.738,1.785-5.435,3.65-8.067,5.598c-0.01,0.003-0.024,0.009-0.036,0.016
		c-2.902,1.227-5.859,2.317-8.876,3.225c-2.47,0.748-4.983,1.344-7.523,1.783c0.81-0.678,1.626-1.34,2.453-1.992
		c2.873-2.247,5.854-4.357,8.902-6.363c2.784-0.924,5.535-1.946,8.254-3.042c2.542-1.026,5.06-2.118,7.549-3.251
		c2.311-1.05,4.59-2.171,6.847-3.322c2.235-1.136,4.448-2.328,6.639-3.547c2.138-1.194,4.236-2.447,6.323-3.726
		c0.896-0.544,1.783-1.1,2.662-1.672c0.938-0.605,1.866-1.222,2.794-1.844c0.905-0.607,1.795-1.236,2.678-1.869
		c0.426-0.308,0.858-0.621,1.286-0.937c0.539-0.394,1.052-0.822,1.568-1.249c0.328-0.335,0.558-0.738,0.688-1.197
		c0.184-0.695,0.076-1.459-0.29-2.078c-0.358-0.603-0.952-1.049-1.626-1.231c-0.69-0.188-1.463-0.085-2.079,0.287
		c-0.229,0.126-0.453,0.252-0.686,0.372c-0.178,0.102-0.358,0.206-0.534,0.312c-0.058,0.029-0.111,0.061-0.168,0.089
		c-0.474,0.253-0.945,0.504-1.418,0.756c-0.484,0.257-0.962,0.504-1.452,0.746c-0.576,0.287-1.15,0.574-1.725,0.854
		c-2.104,1.05-4.205,2.094-6.305,3.149c-2.077,1.042-4.147,2.083-6.217,3.136c1.522-0.927,3.043-1.865,4.557-2.808
		c2.892-1.801,5.765-3.621,8.662-5.403c1.362-0.841,2.74-1.657,4.109-2.479c1.293-0.778,2.604-1.523,3.916-2.278
		c1.183-0.682,2.064-1.879,2.416-3.192c0.368-1.377,0.167-2.873-0.566-4.1c-0.703-1.186-1.863-2.067-3.193-2.423
		c-0.475-0.06-0.946-0.116-1.421-0.177c-0.96,0.01-1.852,0.256-2.678,0.745c-0.236,0.103-0.474,0.211-0.71,0.316
		c-0.164,0.067-0.321,0.142-0.48,0.211c-0.156,0.08-0.309,0.155-0.465,0.235c-0.253,0.126-0.5,0.257-0.751,0.388
		c0.131-0.176,0.248-0.357,0.359-0.55c0.781-1.351,0.983-2.989,0.554-4.496c-0.411-1.45-1.394-2.707-2.703-3.46
		c-0.466-0.196-0.932-0.389-1.396-0.577c-1.036-0.271-2.071-0.263-3.104,0.022c-1.008,0.347-2.008,0.71-3.003,1.089
		c-1.115,0.419-2.212,0.872-3.309,1.329c-0.36-1.108-1.136-2.064-2.144-2.651c-0.381-0.154-0.76-0.311-1.14-0.472
		c-0.838-0.212-1.68-0.206-2.521,0.021c-0.664,0.243-1.337,0.462-1.998,0.722c-0.774,0.311-1.552,0.626-2.331,0.955
		c-0.746,0.312-1.486,0.633-2.228,0.959c0.05-0.029,0.1-0.058,0.148-0.092c1.093-0.667,2.171-1.354,3.247-2.045
		c1.096-0.709,2.17-1.452,3.226-2.217c0.142-0.11,0.283-0.223,0.422-0.331c0.254-0.263,0.431-0.568,0.524-0.919
		c0.144-0.539,0.065-1.126-0.22-1.604c-0.275-0.461-0.731-0.808-1.248-0.946c-0.184-0.021-0.369-0.048-0.556-0.068
		C108.406,42.661,108.057,42.76,107.738,42.947"/>
	<path fill="#010101" d="M101.743,98.897c-0.021-0.049-0.042-0.102-0.066-0.154c-0.025-0.061-0.054-0.122-0.077-0.181
		C101.646,98.676,101.693,98.785,101.743,98.897 M125.277,122.529c-0.092,0.017-0.183,0.024-0.273,0.04
		C125.095,122.554,125.186,122.54,125.277,122.529 M91.986,122.771c-0.874-0.205-1.73-0.475-2.569-0.787
		c0.648,0.09,1.299,0.164,1.947,0.238c0.788,0.081,1.574,0.139,2.367,0.179c0.234,0.013,0.469,0.021,0.705,0.028
		c0.169,0.292,0.338,0.592,0.508,0.889c-0.059-0.007-0.119-0.009-0.176-0.02C93.832,123.164,92.905,122.994,91.986,122.771
		 M130.231,116.234c0.163-0.214,0.324-0.432,0.49-0.646c0.272-0.481,0.412-0.989,0.42-1.542c0.426,2.234,0.842,4.473,1.229,6.716
		c-2.514,0.915-5.142,1.471-7.783,1.86c-4.877,0.631-9.806,0.79-14.721,0.88c-2.786,0.057-5.578,0.127-8.362,0.12
		c-0.631-0.001-1.263-0.008-1.89-0.021c0.009-0.458,0.017-0.91,0.025-1.362c0.291-0.029,0.58-0.063,0.871-0.098
		c1.071-0.126,2.145-0.281,3.206-0.472c1.495-0.257,2.974-0.608,4.433-1.036c0.6-0.176,1.197-0.371,1.79-0.579
		c0.132,0.253,0.304,0.483,0.512,0.692c0.522,0.517,1.242,0.806,1.978,0.799c0.733-0.007,1.445-0.305,1.962-0.829
		c0.522-0.524,0.81-1.237,0.804-1.972c0.001-0.178,0-0.354-0.002-0.528c0.439-0.048,0.882-0.109,1.317-0.171
		c1.62-0.233,3.223-0.574,4.8-1.01c1.348-0.368,2.673-0.82,3.971-1.334c0.127,0.203,0.28,0.394,0.459,0.568
		c0.599,0.59,1.416,0.917,2.249,0.91C128.833,117.174,129.643,116.836,130.231,116.234 M138.995,115.223
		c-0.067-0.705-0.138-1.417-0.207-2.125c0.485,0.266,1.032,0.426,1.594,0.46c-0.385,0.817-0.825,1.598-1.323,2.348
		C139.037,115.677,139.02,115.45,138.995,115.223 M82.414,105.099c0.024,0.009,0.046,0.018,0.07,0.026
		c-0.001,0.001-0.001,0.001-0.001,0.001C82.46,105.116,82.438,105.107,82.414,105.099 M95.299,98.036
		c0.049,1.814,0.097,3.622,0.14,5.431c-0.001,0.054,0.001,0.104,0.002,0.154c-0.613-0.502-1.213-1.021-1.791-1.561
		c0.229-0.722,0.492-1.44,0.782-2.146c-0.005,0.016-0.013,0.028-0.018,0.043C94.688,99.304,94.985,98.665,95.299,98.036
		 M75.007,98.087c0.029,0.936,0.057,1.871,0.089,2.806c-0.517-0.437-1.009-0.903-1.471-1.395
		C74.061,99.003,74.522,98.533,75.007,98.087 M78.658,95.462c0,0.004,0.001,0.01,0.004,0.014c0.06,0.515,0.135,1.035,0.218,1.547
		c0.084,0.484,0.199,0.971,0.339,1.444c0.133,0.462,0.29,0.913,0.469,1.365c0.196,0.49,0.413,0.979,0.626,1.462
		c0.122,0.278,0.251,0.547,0.384,0.819c0.526,1.039,1.117,2.041,1.775,3.002c-0.091-0.035-0.182-0.074-0.273-0.109
		c-1.792-0.767-3.539-1.654-5.178-2.709c0.02-1.8,0.042-3.602,0.066-5.402c0.001-0.15,0.002-0.304,0.006-0.456
		C77.605,96.097,78.128,95.77,78.658,95.462 M99.915,103.436c0.007-2.922,0.001-5.843-0.014-8.765
		c0.57,1.295,1.135,2.594,1.699,3.892c-0.026-0.067-0.058-0.131-0.084-0.198c0.051,0.128,0.105,0.253,0.161,0.379
		c0.036,0.078,0.067,0.156,0.104,0.236c-0.015-0.027-0.025-0.056-0.037-0.083c1.146,2.677,2.271,5.367,3.358,8.069
		c-0.696,0.175-1.402,0.317-2.115,0.429c-0.496,0.057-0.994,0.101-1.496,0.126c-0.537-0.276-1.066-0.565-1.588-0.865
		C99.909,105.581,99.912,104.508,99.915,103.436 M95.205,94.515c0.015,0.66,0.038,1.319,0.053,1.979
		c-0.533,1.061-1.007,2.149-1.419,3.263c-0.229,0.625-0.438,1.257-0.622,1.898c-0.529-0.514-1.047-1.042-1.542-1.586
		c0.097-0.474,0.235-0.935,0.405-1.386c0.353-0.785,0.794-1.522,1.305-2.22C93.938,95.768,94.553,95.121,95.205,94.515
		 M115.278,93.058c-0.004-0.253-0.007-0.511-0.009-0.766c1.056,2.608,2.157,5.196,3.273,7.777c-0.081,0.065-0.164,0.135-0.249,0.201
		c-0.976,0.75-1.984,1.462-3.021,2.134C115.292,99.289,115.301,96.173,115.278,93.058 M92.967,90.659
		c-0.21,0.181-0.418,0.365-0.623,0.552c-0.56,0.521-1.092,1.079-1.592,1.667c-0.324,0.386-0.631,0.789-0.93,1.199
		c-0.223,0.297-0.428,0.6-0.626,0.916c-0.171,0.277-0.333,0.566-0.482,0.86c-0.019,0.034-0.037,0.069-0.052,0.102
		c-0.345-0.594-0.663-1.203-0.952-1.828c-0.282-0.688-0.523-1.393-0.714-2.11C88.958,91.454,90.956,91.01,92.967,90.659
		 M107.674,99.546c-1.33-3.002-2.707-5.994-4.091-8.979c-0.119-0.258-0.241-0.513-0.358-0.769c2.015-0.014,4.028,0.064,6.04,0.232
		c0.023,0.906,0.044,1.81,0.064,2.715c0.076,3.635,0.11,7.269,0.136,10.905C108.875,102.278,108.277,100.909,107.674,99.546
		 M74.691,87.276c0.021,0.825,0.042,1.647,0.066,2.471c0.008,0.187,0.011,0.372,0.018,0.559c-0.487,0.299-0.967,0.617-1.435,0.949
		c-0.268,0.189-0.524,0.386-0.78,0.584c0.16-0.589,0.347-1.172,0.57-1.747C73.57,89.108,74.095,88.168,74.691,87.276 M94.911,83.362
		c0.004,0.176,0.008,0.353,0.012,0.529c-0.455,0.059-0.91,0.12-1.366,0.187C94.001,83.827,94.453,83.589,94.911,83.362
		 M104.157,80.651c-0.11,0.016-0.223,0.032-0.336,0.05C103.935,80.684,104.047,80.667,104.157,80.651 M108.861,80.51
		c0.016,0.228,0.029,0.453,0.041,0.68c-0.985,0.682-1.938,1.406-2.865,2.167c-1.91-0.061-3.823-0.041-5.731,0.053
		c-0.019,0.001-0.036,0.002-0.055,0.002c-0.266-0.582-0.526-1.168-0.792-1.754c0,0,0,0-0.001-0.001
		c1.346-0.385,2.715-0.69,4.099-0.914C105.316,80.524,107.093,80.437,108.861,80.51 M83.692,80.274
		c-0.208,0.271-0.413,0.544-0.612,0.825c-0.251,0.367-0.479,0.738-0.691,1.126c-0.328,0.604-0.585,1.243-0.839,1.88
		c-0.15,0.36-0.275,0.727-0.384,1.104c-0.081,0.125-0.161,0.25-0.237,0.376c-0.421,0.688-0.769,1.415-1.076,2.157
		c-0.323,0.137-0.639,0.276-0.958,0.416c-0.14-0.375-0.277-0.753-0.412-1.128c-0.335-0.961-0.647-1.931-0.927-2.913
		c0.269-0.242,0.545-0.475,0.826-0.704C80.029,82.178,81.82,81.137,83.692,80.274 M124.632,77.102
		c-0.129,0.359-0.196,0.735-0.179,1.11c0.002,0.074,0.004,0.145,0.007,0.219c-0.352-0.329-0.72-0.641-1.098-0.936
		c-0.109-0.083-0.218-0.164-0.327-0.247C123.566,77.182,124.099,77.132,124.632,77.102 M120.327,75.473
		c-0.077-0.042-0.153-0.081-0.233-0.118c0.358,0.029,0.718,0.063,1.075,0.103c0.102,0.017,0.205,0.033,0.31,0.047
		c-0.045,0.01-0.095,0.019-0.138,0.029c-0.213,0.043-0.426,0.095-0.637,0.145C120.58,75.609,120.456,75.539,120.327,75.473
		 M108.446,64.986c-0.158,0.209-0.314,0.415-0.472,0.62c-0.273,0.477-0.404,0.992-0.4,1.54c0.117,0.852,0.228,1.703,0.331,2.552
		c-0.272,0.038-0.544,0.074-0.814,0.113c-1.86,0.263-3.714,0.58-5.548,0.982c-2.253-0.178-4.521-0.172-6.77,0.002
		c-1.419,0.107-2.831,0.305-4.243,0.524c-1.145,0.177-2.286,0.412-3.414,0.692C86,72.286,84.9,72.61,83.818,72.985
		c-1.296,0.452-2.564,0.986-3.816,1.555c-1.975,0.901-3.86,2.01-5.574,3.348c-0.603,0.463-1.197,0.929-1.766,1.427
		c-0.41,0.357-0.804,0.729-1.183,1.114c-0.903,0.918-1.698,1.93-2.459,2.971c-0.609,0.829-1.147,1.713-1.609,2.633
		c-0.34,0.677-0.622,1.378-0.905,2.076c-0.21,0.508-0.389,1.025-0.554,1.546c-0.035,0.116-0.068,0.236-0.103,0.354
		c-0.774-1.313-1.543-2.628-2.309-3.945c-0.011-0.017-0.044-0.002-0.035,0.021c0.735,1.464,1.478,2.921,2.222,4.379
		c-0.057,0.227-0.111,0.457-0.16,0.686c-0.183,0.816-0.282,1.647-0.388,2.484c-0.146,1.143-0.189,2.296-0.144,3.447
		c0.019,0.585,0.07,1.17,0.137,1.752c0.107,0.92,0.244,1.841,0.416,2.755c0.26,1.358,0.615,2.719,1.099,4.021
		c0.208,0.557,0.448,1.1,0.684,1.644c0.133,0.311,0.276,0.621,0.424,0.926c0.318,0.651,0.683,1.277,1.072,1.887
		c0.492,0.768,1.056,1.48,1.621,2.195c0.445,0.558,0.913,1.084,1.407,1.596c0.361,0.363,0.736,0.716,1.124,1.052
		c0.089,0.213,0.186,0.423,0.279,0.633c0.426,0.945,0.889,1.868,1.389,2.774c0.418,0.76,0.876,1.505,1.361,2.224
		c0.229,0.338,0.469,0.665,0.713,0.989c0.434,0.584,0.884,1.15,1.353,1.713c0.479,0.573,0.991,1.111,1.526,1.628
		c0.255,0.247,0.526,0.486,0.797,0.719c0.524,0.447,1.074,0.852,1.621,1.265c1.13,0.854,2.375,1.555,3.671,2.12
		c0.883,0.385,1.78,0.75,2.699,1.046c0.717,0.24,1.452,0.424,2.185,0.591c0.708,0.158,1.422,0.277,2.134,0.386
		c1.098,0.168,2.207,0.295,3.309,0.393c1.685,0.157,3.381,0.212,5.076,0.241c1.875,0.025,3.753,0.006,5.627-0.021
		c3.884-0.057,7.768-0.085,11.649-0.294c1.68-0.093,3.372-0.218,5.053-0.396c0.747-0.084,1.497-0.176,2.24-0.283
		c1.074-0.151,2.14-0.305,3.209-0.502c1.36-0.248,2.714-0.556,4.039-0.949c0.598-0.171,1.177-0.365,1.766-0.578
		c0.884-0.318,1.75-0.704,2.618-1.083c1.065-0.478,2.089-1.044,3.051-1.695c0.225-0.146,0.444-0.309,0.664-0.474
		c0.46-0.342,0.903-0.694,1.354-1.062c0.451-0.364,0.871-0.758,1.28-1.168c0.313-0.312,0.611-0.648,0.895-0.989
		c0.147-0.171,0.282-0.345,0.422-0.528c0.318-0.421,0.65-0.843,0.957-1.274c0.571-0.795,1.057-1.646,1.483-2.526
		c0.352-0.715,0.64-1.455,0.94-2.192c0.195-0.471,0.366-0.95,0.521-1.44c0.317-0.952,0.566-1.925,0.768-2.905
		c0.05-0.04,0.099-0.079,0.146-0.119c0.506-0.513,0.852-1.113,1.045-1.812c0.093-0.558,0.178-1.119,0.252-1.685
		c0.124-0.94,0.235-1.874,0.312-2.817c0.11-1.399,0.117-2.81,0.057-4.217c-0.028-0.632-0.078-1.259-0.141-1.886
		c-0.091-1.017-0.244-2.022-0.39-3.026c-0.225-1.593-0.575-3.16-0.983-4.713c-0.202-0.698-0.558-1.3-1.07-1.811
		c-0.774-0.763-1.833-1.19-2.919-1.182c-0.342,0.001-0.679,0.047-1.002,0.131c-0.365-1.484-0.703-2.974-1.025-4.469
		c-0.281-1.326-0.544-2.662-0.786-4c-0.082-0.435-0.158-0.875-0.232-1.315c-0.322-3.043-0.689-6.078-1.1-9.106
		c-0.048-0.35-0.102-0.705-0.15-1.056c-0.197-0.671-0.541-1.255-1.035-1.745c-0.744-0.74-1.771-1.155-2.818-1.148
		c-1.05,0.008-2.063,0.438-2.806,1.189c-0.199,0.268-0.406,0.535-0.614,0.807c-0.352,0.625-0.528,1.293-0.528,2.011
		c0.113,1.588,0.262,3.174,0.433,4.762c0.05,0.448,0.103,0.896,0.161,1.342c-0.36-0.489-0.738-0.971-1.158-1.408
		c-0.24-0.253-0.496-0.488-0.761-0.713c-0.325-0.273-0.673-0.526-1.008-0.776c-0.171-0.131-0.348-0.253-0.53-0.378
		c-0.696-0.463-1.45-0.841-2.229-1.164c-0.634-0.261-1.256-0.521-1.915-0.737c-0.491-0.16-0.995-0.298-1.501-0.418
		c-1.324-0.323-2.675-0.5-4.026-0.655c-1.299-0.148-2.609-0.212-3.907-0.214c-1.104-0.004-2.212,0.034-3.313,0.103
		c-0.211-0.913-0.409-1.825-0.585-2.746c-0.149-0.513-0.414-0.959-0.794-1.34c-0.57-0.561-1.351-0.878-2.153-0.871
		C109.789,64.089,109.013,64.417,108.446,64.986"/>
	<path fill="#010101" d="M106.699,74.406c-0.017-0.002-0.033-0.004-0.051-0.005c-0.032-0.007-0.067-0.011-0.103-0.013
		C106.595,74.392,106.648,74.4,106.699,74.406 M112.816,75.983l-0.003-0.002c-0.022-0.009-0.045-0.017-0.066-0.027
		C112.771,75.964,112.794,75.972,112.816,75.983 M90.354,76.576c-0.018,0.01-0.034,0.018-0.052,0.023
		c0.032-0.013,0.061-0.026,0.091-0.039C90.379,76.567,90.367,76.573,90.354,76.576 M116.134,77.872
		c-0.005-0.006-0.011-0.013-0.017-0.017c-0.015-0.01-0.027-0.02-0.043-0.032C116.094,77.84,116.114,77.857,116.134,77.872
		 M99.578,84.108c0.006-0.007,0.012-0.014,0.016-0.021C99.59,84.095,99.584,84.101,99.578,84.108 M91.967,114.726
		c1.26,0.271,2.525,0.511,3.795,0.718c-0.005-0.002-0.013-0.002-0.021-0.005c0.023,0.006,0.047,0.009,0.07,0.014
		C94.517,115.273,93.232,115.046,91.967,114.726 M82.807,105.631c0.144,0.062,0.287,0.122,0.429,0.182
		c-0.138,0.123-0.278,0.247-0.413,0.37C82.813,105.999,82.805,105.817,82.807,105.631 M106.673,104.686
		c-0.05,0.008-0.099,0.016-0.143,0.021C106.574,104.701,106.623,104.693,106.673,104.686 M98.932,104.317
		c-0.15,0.063-0.297,0.129-0.448,0.191C98.633,104.445,98.783,104.38,98.932,104.317 M92.159,104.09
		c-0.008,0.002-0.02,0.007-0.028,0.01C92.139,104.097,92.151,104.092,92.159,104.09 M80.612,100.631
		c0.062,0.044,0.122,0.092,0.182,0.142C80.733,100.726,80.673,100.677,80.612,100.631 M80.46,100.514
		c0.028,0.021,0.055,0.045,0.084,0.067C80.515,100.559,80.488,100.536,80.46,100.514 M122.504,98.016
		c0.569-0.049,1.141-0.102,1.711-0.154c-0.262,0.241-0.533,0.477-0.812,0.703c-1.643,1.26-3.466,2.26-5.356,3.092
		c-3.573,1.496-7.366,2.434-11.189,3.004c-3.264,0.451-6.57,0.64-9.861,0.521c0.454-0.212,0.907-0.418,1.36-0.616
		c5.152-2.184,10.526-3.808,15.941-5.166c0.688-0.176,1.382-0.345,2.068-0.513c0.685-0.176,1.366-0.337,2.05-0.502
		c0.119-0.027,0.237-0.057,0.361-0.084C120.018,98.217,121.261,98.12,122.504,98.016 M87.021,97.293
		c1.605,0.05,3.21,0.089,4.814,0.116c0.101,0.017,0.2,0.034,0.299,0.05c0.502,0.087,1.007,0.205,1.508,0.278
		c0.591,0.091,1.179,0.162,1.768,0.231c0.374,0.046,0.755,0.091,1.131,0.135c-0.658,0.271-1.315,0.552-1.973,0.836
		c-0.979,0.423-1.952,0.872-2.917,1.348c-1.663,0.822-3.276,1.739-4.817,2.765c-0.19,0.128-0.378,0.258-0.568,0.393
		c-0.569-0.186-1.134-0.388-1.693-0.61c-0.362-0.151-0.717-0.316-1.07-0.484c0.488-1.109,1.131-2.138,1.859-3.111
		C85.886,98.565,86.439,97.919,87.021,97.293 M132.98,96.926c0.046,1.933,0.056,3.87,0.046,5.803
		c-0.004,0.75-0.016,1.493-0.034,2.246c-0.01,0.368-0.027,0.729-0.037,1.099c-0.013,0.358-0.011,0.722-0.013,1.077
		c-0.008,0.537-0.016,1.075-0.024,1.616c-1.385-0.002-2.764-0.007-4.146-0.015c-0.598-0.006-1.202-0.007-1.806-0.014
		c-0.357-0.009-0.722-0.036-1.084-0.044c-0.117,0.001-0.235,0.001-0.361-0.002c-0.237,0.002-0.478,0.003-0.724,0.005
		c-1.44,0.004-2.889,0.017-4.328,0.019c-5.657,0.021-11.309,0.023-16.967-0.048c-0.37-0.004-0.737,0.049-1.094,0.152
		c-0.111-0.008-0.223-0.019-0.335-0.028c-0.732-0.062-1.466-0.128-2.197-0.204c1.735-0.015,3.474-0.113,5.203-0.287
		c1.341-0.127,2.681-0.312,4.012-0.532c1.21-0.204,2.41-0.449,3.601-0.726c2.257-0.538,4.473-1.237,6.608-2.148
		c1.087-0.461,2.151-0.959,3.186-1.527c0.872-0.486,1.719-1.03,2.521-1.623c1.202-0.896,2.33-1.887,3.266-3.072
		c0.335-0.429,0.654-0.864,0.945-1.321C130.475,97.214,131.729,97.07,132.98,96.926 M99.646,90.206
		c-0.073,0.013-0.145,0.021-0.22,0.032C99.5,90.226,99.574,90.214,99.646,90.206 M103.865,89.765
		c-2.131,0.23-4.261,0.495-6.384,0.779c0.588-0.1,1.182-0.195,1.773-0.281C100.786,90.051,102.322,89.881,103.865,89.765
		 M132.119,84.299c0.019,0.147,0.04,0.292,0.061,0.437C132.159,84.59,132.138,84.446,132.119,84.299 M101.021,81.678
		c-0.005,0.009-0.009,0.012-0.011,0.02C101.013,81.69,101.017,81.687,101.021,81.678 M118.543,80.822
		c0.012,0.026,0.024,0.051,0.035,0.076C118.567,80.874,118.555,80.848,118.543,80.822 M98.06,74.464
		c-0.056,0.009-0.112,0.019-0.168,0.025C97.947,74.483,98.004,74.473,98.06,74.464 M99.305,74.322
		c0.136,0.158,0.266,0.319,0.395,0.482c-0.001,0.001-0.002,0.001-0.002,0c0.501,0.654,0.937,1.339,1.264,2.094
		c0-0.004,0-0.004,0-0.008c0.219,0.526,0.378,1.059,0.471,1.62c-0.007-0.016-0.006-0.028-0.012-0.043
		c0.077,0.531,0.087,1.056,0.029,1.587c-0.001-0.022,0.006-0.041,0.005-0.062c-0.075,0.591-0.229,1.162-0.448,1.715
		c-0.363,0.86-0.854,1.64-1.412,2.382c0.012-0.016,0.025-0.032,0.041-0.047c-0.716,0.914-1.523,1.756-2.372,2.554
		c-0.244,0.231-0.49,0.456-0.739,0.679c-0.068,0.013-0.132,0.022-0.202,0.035c-3.702,0.627-7.356,1.529-10.915,2.731
		c-0.976,0.337-1.944,0.7-2.903,1.085c-0.288,0.086-0.541,0.234-0.745,0.445c-0.321,0.319-0.499,0.761-0.495,1.211
		c0,0.308,0.082,0.595,0.238,0.859c0.091,0.113,0.18,0.233,0.273,0.343c0.203,0.202,0.448,0.342,0.722,0.427
		c-0.011,0.104-0.018,0.207-0.015,0.314c0.002,0.667,0.278,1.311,0.75,1.776c0.172,0.126,0.342,0.263,0.515,0.389
		c0.345,0.196,0.711,0.309,1.102,0.331c-0.79,0.854-1.522,1.757-2.166,2.729c-0.319,0.479-0.604,0.98-0.853,1.495
		c-0.423-0.255-0.832-0.528-1.228-0.822c-0.694-0.553-1.334-1.166-1.902-1.845c-0.426-0.571-0.797-1.181-1.097-1.83
		c-0.252-0.635-0.437-1.292-0.548-1.973c-0.08-0.753-0.079-1.509-0.007-2.265c0.179-1.254,0.54-2.475,1.005-3.65
		c0.42-0.981,0.913-1.925,1.451-2.841c0.633-1.078,1.337-2.118,2.094-3.112c-0.078,0.107-0.164,0.214-0.243,0.325
		c1.043-1.364,2.246-2.582,3.582-3.664c1.649-1.277,3.454-2.324,5.363-3.168c-0.04,0.018-0.079,0.034-0.121,0.051
		c0.059-0.024,0.115-0.049,0.173-0.074c0.057-0.025,0.118-0.05,0.176-0.076c-0.046,0.021-0.09,0.041-0.136,0.061
		c2.396-0.998,4.909-1.673,7.47-2.065C98.343,74.428,98.825,74.369,99.305,74.322 M102.332,74.157
		c1.405-0.016,2.814,0.065,4.214,0.23c-0.038-0.007-0.079-0.01-0.116-0.017c0.073,0.008,0.146,0.018,0.219,0.03
		c0.04,0.001,0.076,0.007,0.115,0.013c-0.022-0.003-0.045-0.003-0.064-0.008c1.027,0.141,2.049,0.335,3.059,0.584
		c1.02,0.249,2.017,0.569,2.989,0.964c-0.057-0.025-0.115-0.048-0.175-0.074c0.081,0.033,0.16,0.067,0.241,0.101
		c0.013,0.007,0.033,0.015,0.05,0.021c-0.016-0.008-0.031-0.013-0.047-0.019c1.148,0.495,2.252,1.096,3.258,1.84
		c-0.034-0.026-0.064-0.052-0.096-0.078c0.046,0.037,0.093,0.073,0.139,0.109c0.029,0.023,0.062,0.046,0.094,0.07
		c-0.025-0.018-0.052-0.035-0.077-0.053c0.56,0.447,1.078,0.946,1.538,1.498c0.324,0.434,0.609,0.89,0.835,1.375
		c0.19,0.457,0.325,0.933,0.408,1.421c0.057,0.486,0.06,0.977,0.014,1.464c-0.099,0.693-0.294,1.369-0.556,2.022
		c-0.219,0.495-0.472,0.973-0.748,1.434c-0.908-0.176-1.82-0.315-2.733-0.433c-1.012-0.13-2.026-0.235-3.042-0.306
		c-1.049-0.079-2.094-0.111-3.138-0.125c-3.56-0.038-7.123,0.276-10.646,0.807c0.434-0.46,0.853-0.933,1.253-1.421
		c0.677-0.83,1.288-1.711,1.761-2.67c0.206-0.408,0.377-0.833,0.517-1.269c0.145-0.455,0.229-0.923,0.282-1.398
		c0.106-0.938-0.042-1.892-0.358-2.778c-0.438-1.204-1.202-2.256-2.082-3.183C100.401,74.217,101.364,74.165,102.332,74.157
		 M121.854,52.136c-0.668,0.677-1.045,1.606-1.039,2.556c0.007,0.809,0.289,1.595,0.795,2.222c-0.649-0.104-1.301-0.182-1.95-0.25
		c-0.707,0.005-1.366,0.19-1.974,0.551c-0.878,0.521-1.526,1.378-1.793,2.359c-0.268,1.02-0.12,2.121,0.421,3.026
		c0.205,0.263,0.416,0.528,0.622,0.786c0.493,0.489,1.073,0.816,1.74,1c1.369,0.293,2.728,0.646,4.071,1.052
		c0.634,0.319,1.242,0.684,1.83,1.09c0.805,0.663,1.537,1.402,2.205,2.2c0.966,1.321,1.763,2.752,2.44,4.238
		c1.438,3.51,2.275,7.232,2.842,10.974c0.295,2.174,0.497,4.362,0.642,6.556c-0.786-0.176-1.57-0.329-2.361-0.472
		c-1.173-0.207-2.344-0.375-3.519-0.517c-0.789-0.1-1.574-0.189-2.359-0.27c-0.433-0.194-0.874-0.377-1.314-0.557
		c-0.873-0.355-1.769-0.643-2.676-0.907c-0.262-0.078-0.523-0.152-0.788-0.22c0.165-0.286,0.319-0.573,0.459-0.87
		c0.356-0.753,0.638-1.541,0.794-2.356c0.145-0.741,0.195-1.505,0.128-2.256c-0.075-0.724-0.23-1.433-0.508-2.108
		c-0.149-0.361-0.31-0.711-0.498-1.05c-0.173-0.304-0.374-0.595-0.584-0.876c-0.249-0.32-0.503-0.634-0.776-0.932
		c-0.262-0.274-0.534-0.533-0.825-0.78c-0.639-0.548-1.329-1.041-2.052-1.47c-0.72-0.43-1.479-0.797-2.258-1.119
		c-0.9-0.374-1.814-0.699-2.747-0.975c-1.954-0.579-3.987-0.908-6.016-1.086c-2.1-0.189-4.224-0.166-6.325,0.029
		c-1.158,0.113-2.31,0.278-3.456,0.496c-1.071,0.207-2.131,0.469-3.175,0.774c-1.043,0.314-2.069,0.689-3.068,1.115
		c-1.079,0.459-2.134,0.97-3.146,1.554c-0.942,0.545-1.839,1.149-2.695,1.816c-0.481,0.377-0.956,0.761-1.41,1.167
		c-0.42,0.375-0.829,0.773-1.224,1.183c-0.909,0.95-1.702,2.001-2.463,3.071c-0.795,1.118-1.52,2.287-2.15,3.513
		c-0.263,0.517-0.499,1.043-0.724,1.578c-0.261,0.629-0.506,1.259-0.703,1.904c-0.327,1.06-0.504,2.161-0.587,3.258
		c-0.073,1.007,0.02,2.001,0.196,2.99c0.171,0.931,0.512,1.816,0.915,2.671c0.408,0.848,0.961,1.608,1.559,2.333
		c0.549,0.668,1.185,1.263,1.864,1.8c0.812,0.645,1.655,1.226,2.565,1.728c0.014,0.006,0.023,0.014,0.038,0.021
		c-0.001,0.008-0.003,0.013-0.004,0.021c-0.041,0.308-0.072,0.625-0.093,0.944c-0.018,0.315-0.013,0.633,0.006,0.952
		c0.02,0.329,0.068,0.657,0.115,0.979c0.043,0.284,0.1,0.564,0.165,0.841c0.067,0.293,0.151,0.58,0.25,0.862
		c0.007,0.278,0.05,0.557,0.124,0.824c0.17,0.587,0.471,1.095,0.903,1.519c0.094,0.091,0.187,0.176,0.286,0.252
		c0.087,0.123,0.177,0.24,0.267,0.362c0.222,0.285,0.453,0.565,0.702,0.832c0.359,0.391,0.758,0.749,1.171,1.087
		c0.512,0.412,1.052,0.794,1.615,1.14c1.111,0.687,2.326,1.203,3.55,1.658c1.287,0.472,2.617,0.823,3.954,1.104
		c1.526,0.323,3.081,0.539,4.631,0.715c3.204,0.359,6.432,0.441,9.646,0.404c2.446-0.032,4.895-0.147,7.336-0.309
		c0.17,0.216,0.34,0.433,0.511,0.65c0.401,0.392,0.853,0.695,1.358,0.906c-1.048,0.199-2.101,0.373-3.155,0.529
		c-2.123,0.301-4.249,0.52-6.381,0.723c-0.233,0.035-0.456,0.063-0.683,0.094c-0.441,0.129-0.817,0.352-1.137,0.677
		c-0.476,0.481-0.742,1.146-0.738,1.823c0.005,0.684,0.281,1.343,0.764,1.82c0.179,0.133,0.353,0.262,0.53,0.397
		c0.402,0.229,0.832,0.344,1.301,0.341c1.744,0.206,3.49,0.32,5.243,0.315c1.588,0.001,3.176-0.112,4.75-0.328
		c0.893-0.124,1.783-0.263,2.664-0.442c0.739-0.153,1.462-0.332,2.183-0.54c1.499-0.438,2.95-1.025,4.36-1.678
		c1.131-0.526,2.216-1.147,3.256-1.839c0.739,0.049,1.48,0.087,2.223,0.118c1.615,0.071,3.231,0.125,4.855,0.162
		c0.384-0.056,0.766-0.113,1.151-0.168c0.731-0.207,1.368-0.586,1.909-1.126c0.222-0.297,0.444-0.594,0.667-0.887
		c0.387-0.676,0.577-1.411,0.579-2.191c-0.147-2.391-0.164-4.791-0.179-7.181c-0.003-1.173-0.009-2.348-0.011-3.521
		c0.032-0.095,0.068-0.185,0.103-0.278c0.234-0.646,0.443-1.299,0.64-1.96c0.388-1.291,0.694-2.605,0.938-3.93
		c0.121-0.645,0.221-1.295,0.313-1.945c0.129-0.938,0.247-1.885,0.33-2.835c0.268-2.827,0.244-5.681,0.015-8.515
		c-0.137-1.685-0.362-3.362-0.632-5.032c-0.229-1.445-0.522-2.879-0.865-4.308c-0.063-0.249-0.124-0.498-0.189-0.747
		c0.096,0.072,0.189,0.147,0.286,0.224c0.466,0.458,1.018,0.771,1.651,0.94c0.962,0.259,2.015,0.116,2.87-0.394
		c0.826-0.494,1.447-1.305,1.694-2.239c0.042-0.333,0.086-0.662,0.121-0.99c-0.005-0.673-0.179-1.301-0.521-1.88
		c-0.431-0.6-0.885-1.18-1.343-1.758c-0.377-0.471-0.77-0.928-1.173-1.37c-0.843-0.926-1.76-1.784-2.705-2.602
		c-0.49-0.426-0.993-0.83-1.508-1.227c-0.697-0.542-1.401-1.069-2.125-1.583c-0.249-0.18-0.503-0.352-0.755-0.526
		c-0.545-0.562-1.085-1.132-1.623-1.703c-0.861-0.914-1.691-1.845-2.535-2.778c-0.817-0.904-1.638-1.811-2.46-2.709
		c-1.511-1.914-3.202-3.688-5.047-5.278c-0.247-0.183-0.49-0.368-0.734-0.553c-0.567-0.324-1.174-0.483-1.823-0.478
		C123.438,51.073,122.519,51.465,121.854,52.136"/>
	<path fill="#010101" d="M80.439,81.445c7.504,1.517,15.021,3.021,22.535,4.503c3.758,0.741,7.518,1.471,11.282,2.193
		c0.088,0.019,0.18,0.035,0.267,0.052c-0.287,0.011-0.572,0.02-0.86,0.032c-0.347,0.013-0.69,0.042-1.042,0.064
		c-0.344,0.019-0.689,0.039-1.032,0.064c-0.688,0.045-1.385,0.106-2.073,0.168c-2.755,0.24-5.505,0.616-8.236,1.089
		c-1.36,0.231-2.72,0.491-4.075,0.771c-0.675,0.139-1.354,0.288-2.024,0.433c-0.338,0.077-0.674,0.17-1.005,0.258
		c-0.444,0.116-0.89,0.236-1.335,0.359c-0.537,0.145-0.917,0.663-0.913,1.213c0.001,0.545,0.392,1.079,0.93,1.204
		c3.819,0.894,7.696,1.492,11.561,2.137c3.071,0.511,6.138,1.059,9.169,1.787c-0.431,0.11-0.856,0.229-1.279,0.352
		c-1.253,0.36-2.481,0.782-3.712,1.209c-1.224,0.421-2.44,0.848-3.673,1.242c-1.316,0.418-2.641,0.767-3.995,1.027
		c-0.022-0.001-0.016,0.03,0.008,0.031c1.055-0.115,2.099-0.29,3.141-0.508c1.155-0.241,2.302-0.542,3.441-0.839
		c1.151-0.303,2.302-0.618,3.46-0.902c1.264-0.315,2.532-0.579,3.817-0.776c-0.043,0.009-0.094,0.013-0.138,0.019
		c0.528-0.072,1.064-0.138,1.6-0.188c0.108,0.001,0.212-0.023,0.306-0.08c0.132-0.079,0.23-0.212,0.277-0.364
		c0.034-0.157,0.011-0.326-0.067-0.468c-0.087-0.142-0.21-0.219-0.364-0.274c-1.864-0.67-3.761-1.245-5.674-1.755
		c-1.929-0.517-3.869-0.967-5.811-1.403c-2.088-0.467-4.179-0.912-6.264-1.388c0.878-0.175,1.76-0.347,2.646-0.491
		c0.906-0.155,1.822-0.296,2.737-0.429c-0.119,0.021-0.231,0.036-0.351,0.055c1.829-0.265,3.663-0.48,5.498-0.658
		c0.921-0.092,1.842-0.166,2.764-0.235c0.463-0.037,0.919-0.068,1.384-0.087c0.229-0.015,0.457-0.034,0.688-0.045
		c0.232-0.021,0.463-0.031,0.696-0.044c1.84-0.116,3.689-0.187,5.535-0.222c1.955-0.037,3.917-0.058,5.872-0.021
		c0.452,0.007,0.869-0.324,0.983-0.754c0.065-0.267,0.03-0.554-0.112-0.792c-0.052-0.066-0.109-0.131-0.159-0.2
		c-0.125-0.129-0.279-0.215-0.455-0.262c-0.797-0.112-1.597-0.226-2.398-0.317c-0.771-0.095-1.542-0.183-2.314-0.277
		c-0.814-0.106-1.629-0.246-2.443-0.37c-0.825-0.131-1.656-0.261-2.488-0.391c-1.782-0.281-3.559-0.555-5.341-0.836
		c-3.441-0.532-6.883-1.071-10.323-1.618c-6.878-1.084-13.758-2.182-20.633-3.307C80.42,81.408,80.416,81.441,80.439,81.445"/>
	<path fill="#010101" d="M102.186,103.653c-0.003-0.003-0.007-0.006-0.013-0.013C102.177,103.645,102.183,103.65,102.186,103.653
		 M79.229,72.405c1.849,2.867,3.683,5.735,5.547,8.599c0.931,1.423,1.867,2.846,2.812,4.257c0.947,1.412,1.902,2.825,2.897,4.2
		c0.985,1.384,2.014,2.744,3.053,4.092c0.988,1.282,1.99,2.552,3.011,3.812c2.13,2.617,4.345,5.172,6.652,7.635
		c0.018,0.022,0.039-0.005,0.027-0.022c-0.349-0.441-0.697-0.881-1.043-1.324c0.002,0.003,0.002,0.003,0.003,0.003
		c-1.941-2.478-3.827-5.006-5.671-7.558c-0.925-1.282-1.838-2.57-2.746-3.864c-0.982-1.388-1.948-2.783-2.941-4.161
		c-1.862-2.58-3.742-5.155-5.633-7.723c-1.955-2.67-3.931-5.328-5.939-7.963c-0.004-0.009-0.01-0.011-0.017-0.011
		C79.233,72.376,79.223,72.39,79.229,72.405"/>
	<path fill="#010101" d="M91.749,84.743c4.95,7.119,9.897,14.242,14.852,21.361c0.01,0.022,0.044,0.001,0.034-0.019
		c-4.954-7.118-9.902-14.241-14.852-21.36c-0.005-0.008-0.011-0.011-0.017-0.008C91.755,84.716,91.741,84.73,91.749,84.743"/>
	<path fill="#010101" d="M87.331,96.249c6.064-0.044,5.994-9.447-0.069-9.402C81.198,86.89,81.266,96.295,87.331,96.249"/>
	<path fill="#010101" d="M105.413,88.261c0.382,0.018,0.765,0.044,1.146,0.089c0.907,0.13,1.807,0.325,2.69,0.567
		c0.323,0.088,0.647,0.183,0.967,0.287c0.011,0.407,0,0.816-0.033,1.225c-0.014,0.094-0.032,0.184-0.053,0.275
		c-0.49-0.167-0.977-0.347-1.464-0.538c-0.479-0.211-0.948-0.442-1.413-0.68c-0.489-0.257-0.963-0.54-1.417-0.851
		C105.69,88.513,105.552,88.39,105.413,88.261 M89.412,85.052c-0.61,0.422-1.195,0.875-1.776,1.333
		c0.196-0.196,0.401-0.386,0.611-0.567C88.625,85.543,89.014,85.291,89.412,85.052 M123.604,92.607
		c0.066-0.226,0.115-0.454,0.157-0.679c0.022-0.114,0.034-0.228,0.052-0.339c0.057-0.458,0.127-0.922,0.161-1.381
		c0.018-0.225,0.015-0.458,0.01-0.684c-0.009-0.114-0.022-0.225-0.032-0.337c-0.039-0.42-0.114-0.882-0.176-1.266
		c-0.078-0.503-0.22-0.994-0.409-1.467c-0.21-0.496-0.421-1.002-0.673-1.48c-0.121-0.23-0.258-0.451-0.4-0.664
		c-0.074-0.114-0.153-0.219-0.233-0.328c-0.253-0.341-0.52-0.674-0.787-1.005c-0.175-0.217-0.358-0.421-0.55-0.623
		c0.885,0.176,1.763,0.374,2.64,0.592c1.108,0.274,2.215,0.588,3.301,0.94c0.847,0.275,1.684,0.583,2.516,0.916
		c0.927,0.402,1.835,0.844,2.718,1.341c0.489,0.273,0.967,0.563,1.432,0.873c0.288,0.192,0.573,0.381,0.859,0.577
		c0.597,0.494,1.151,1.028,1.659,1.612c0.131,0.187,0.257,0.376,0.372,0.575c0.126,0.207,0.241,0.416,0.35,0.629
		c0.147,0.414,0.269,0.833,0.356,1.263c0.031,0.403,0.036,0.807,0.019,1.209c-0.603,0.055-1.202,0.1-1.803,0.141
		c-1.712,0.108-3.431,0.154-5.143,0.172c-1.915,0.014-3.838-0.028-5.752-0.122c-0.26-0.012-0.518-0.027-0.778-0.04
		C123.52,92.889,123.562,92.748,123.604,92.607 M102.729,72.263c-0.589,0.062-1.175,0.139-1.764,0.218
		c-0.98,0.136-1.958,0.274-2.934,0.443c-1.153,0.198-2.298,0.438-3.43,0.712c-1.067,0.267-2.128,0.573-3.172,0.921
		c-1.296,0.439-2.551,0.975-3.796,1.531c-0.856,0.385-1.689,0.827-2.486,1.318c-0.362,0.223-0.71,0.458-1.048,0.708
		c-0.433,0.313-0.861,0.662-1.282,0.993c-0.179,0.143-0.353,0.292-0.527,0.444c-0.291,0.251-0.566,0.52-0.823,0.792
		c-0.506,0.536-0.936,1.138-1.374,1.723c-0.214,0.278-0.402,0.579-0.576,0.885c-0.088,0.149-0.167,0.308-0.24,0.463
		c-0.039,0.079-0.07,0.156-0.112,0.237c-0.182,0.412-0.348,0.831-0.521,1.258c-0.12,0.316-0.219,0.645-0.3,0.971
		c-0.04,0.171-0.074,0.343-0.098,0.51c-0.087,0.543-0.158,1.094-0.209,1.64c-0.03,0.357-0.03,0.715-0.012,1.07
		c0.016,0.182,0.033,0.368,0.058,0.547c0.071,0.57,0.14,1.152,0.262,1.716c0.156,0.74,0.489,1.434,0.791,2.12
		c0.192,0.439,0.422,0.855,0.691,1.249c0.216,0.321,0.463,0.629,0.704,0.933c-0.148,0.401-0.269,0.805-0.371,1.218
		c-0.055,0.238-0.097,0.474-0.136,0.717c-0.069,0.448-0.117,0.9-0.171,1.354c-0.021,0.142-0.032,0.289-0.041,0.43
		c0.005,0.724,0.194,1.395,0.562,2.014c0.361,0.601,0.839,1.072,1.447,1.424c0.694,0.441,1.407,0.844,2.137,1.212
		c0.364,0.178,0.741,0.344,1.115,0.503c0.685,0.296,1.383,0.586,2.09,0.846c1.569,0.582,3.2,0.973,4.858,1.23
		c0.68,0.1,1.37,0.181,2.058,0.26c0.397,0.048,0.792,0.079,1.196,0.11c0.859,0.062,1.719,0.078,2.583,0.065
		c1.933-0.03,3.853-0.271,5.759-0.585c1.573-0.256,3.127-0.639,4.643-1.125c0.705-0.22,1.398-0.473,2.086-0.751
		c0.599-0.236,1.189-0.5,1.78-0.753c0.376-0.166,0.756-0.338,1.127-0.521c1.25-0.604,2.445-1.311,3.57-2.118
		c0.466,0.068,0.928,0.136,1.394,0.198c2.027,0.277,4.058,0.512,6.099,0.668c3.183,0.241,6.376,0.308,9.562,0.201
		c1.305-0.044,2.606-0.128,3.906-0.24c0.517-0.048,1.038-0.101,1.555-0.17c0.85-0.1,1.697-0.221,2.546-0.368
		c0.365-0.156,0.729-0.316,1.095-0.471c0.691-0.419,1.241-0.977,1.65-1.676c0.189-0.447,0.378-0.895,0.554-1.347
		c0.094-0.234,0.182-0.465,0.267-0.703c0.173-0.483,0.304-0.98,0.421-1.479c0.179-0.803,0.264-1.629,0.354-2.443
		c0.055-0.457,0.072-0.917,0.063-1.375c-0.012-0.791-0.156-1.58-0.269-2.359c-0.058-0.429-0.151-0.847-0.27-1.263
		c-0.102-0.384-0.24-0.756-0.39-1.119c-0.311-0.741-0.618-1.486-1.011-2.184c-0.2-0.355-0.423-0.693-0.651-1.025
		c-0.12-0.165-0.247-0.33-0.373-0.494c-0.374-0.483-0.74-0.972-1.142-1.433c-0.591-0.688-1.264-1.311-1.957-1.894
		c-0.174-0.146-0.359-0.286-0.536-0.426c-0.48-0.371-0.959-0.733-1.446-1.09c-0.422-0.304-0.863-0.571-1.307-0.84
		c-0.902-0.535-1.847-1.007-2.803-1.437c-0.822-0.373-1.661-0.716-2.505-1.044c-0.55-0.215-1.105-0.41-1.661-0.596
		c-1.122-0.378-2.256-0.702-3.399-0.988c-1.192-0.303-2.399-0.547-3.608-0.765c-1.621-0.292-3.25-0.501-4.879-0.698
		c-2.563-0.303-5.142-0.447-7.723-0.461c-0.332-0.004-0.661-0.005-0.994-0.001C107.15,71.889,104.936,72.023,102.729,72.263"/>
	<path fill="#010101" d="M134.521,94.264c0,0.012-0.002,0.027-0.007,0.04C134.519,94.29,134.519,94.274,134.521,94.264
		 M124.369,64.159c2.589,4.015,5.006,8.153,6.908,12.54c-0.016-0.039-0.036-0.077-0.052-0.125c0.367,0.875,0.72,1.749,1.049,2.638
		c0.321,0.875,0.61,1.765,0.882,2.657c0.275,0.879,0.52,1.764,0.734,2.661c0.236,0.971,0.417,1.961,0.56,2.949
		c0.136,1.066,0.226,2.14,0.251,3.218c0.028,1.213-0.046,2.425-0.187,3.627c-0.068,0.497-0.147,0.985-0.235,1.477
		c-0.117,0.625-0.263,1.241-0.422,1.853c-0.302,1.167-0.711,2.3-1.173,3.411c0.005-0.001,0.005-0.001,0.006-0.003
		c-0.044,0.107-0.089,0.21-0.136,0.31c-0.01,0.022,0.018,0.04,0.032,0.022c0.415-0.783,0.8-1.583,1.146-2.399
		c0.294-0.703,0.548-1.423,0.775-2.151c0.476-1.508,0.763-3.064,0.938-4.637c0.175-1.607,0.155-3.228,0.02-4.837
		c-0.143-1.673-0.46-3.326-0.886-4.945c-0.208-0.796-0.467-1.579-0.75-2.356c-0.262-0.732-0.559-1.46-0.869-2.175
		c-0.726-1.656-1.551-3.262-2.443-4.831c-1.794-3.13-3.905-6.075-6.113-8.918c-0.006-0.006-0.013-0.008-0.02-0.007
		C124.372,64.133,124.363,64.145,124.369,64.159"/>
	<path fill="#010101" d="M127.295,65.258c-0.016-0.018-0.03-0.037-0.044-0.054C127.264,65.224,127.279,65.24,127.295,65.258
		 M136.797,81.165c-0.018-0.039-0.033-0.078-0.048-0.114c-0.008-0.019-0.018-0.038-0.021-0.054
		C136.748,81.053,136.772,81.108,136.797,81.165 M140.076,97.059c-0.002-0.01,0.001-0.021,0.001-0.032
		c0.004-0.022,0.005-0.041,0.009-0.062C140.079,96.995,140.077,97.027,140.076,97.059 M119.806,57.415
		c1.273,0.995,2.443,2.112,3.562,3.279c1.376,1.431,2.659,2.949,3.884,4.511c-0.009-0.013-0.018-0.022-0.025-0.036
		c3.794,4.862,7.032,10.171,9.503,15.828c-0.006-0.005-0.007-0.012-0.009-0.018c0.01,0.024,0.018,0.048,0.029,0.072
		c0.023,0.05,0.045,0.102,0.066,0.153c-0.006-0.012-0.012-0.026-0.019-0.039c1.437,3.372,2.661,6.863,3.191,10.507
		c0.226,1.757,0.293,3.529,0.098,5.292c0.003-0.013,0.004-0.025,0.007-0.038c-0.004,0.034-0.009,0.065-0.016,0.101
		c0.001,0.022-0.003,0.047-0.006,0.069c0.002-0.011,0.001-0.024,0.005-0.037c-0.091,0.674-0.22,1.338-0.386,1.996
		c-0.17,0.67-0.4,1.321-0.656,1.959c-0.459,1.059-1.034,2.052-1.729,2.981c-0.383,0.489-0.785,0.951-1.219,1.397
		c-0.471,0.491-0.987,0.935-1.516,1.356c0.018-0.01,0.027-0.023,0.045-0.036c-0.629,0.499-1.289,0.95-1.97,1.368
		c-0.73,0.453-1.501,0.847-2.284,1.214c-0.017,0.007-0.005,0.039,0.018,0.03c0.75-0.28,1.486-0.588,2.207-0.939
		c0.782-0.378,1.532-0.814,2.249-1.288c1.223-0.812,2.33-1.79,3.274-2.906c0.893-1.047,1.614-2.221,2.175-3.474
		c0.562-1.259,0.928-2.595,1.151-3.955c0.48-2.952,0.222-5.981-0.4-8.897c-0.339-1.574-0.803-3.119-1.356-4.631
		c-0.57-1.582-1.277-3.127-2.035-4.628c-1.197-2.366-2.593-4.629-4.09-6.815c-1.436-2.097-2.998-4.115-4.655-6.041
		c-1.487-1.735-3.073-3.392-4.757-4.938c-1.349-1.245-2.776-2.421-4.314-3.426c-0.003-0.002-0.007-0.002-0.012-0.002
		C119.803,57.384,119.791,57.405,119.806,57.415"/>
	<path fill="#010101" d="M132.706,58.22L132.706,58.22L132.706,58.22 M142.042,110.436c0.005-0.012,0.009-0.023,0.014-0.035
		C142.051,110.407,142.047,110.42,142.042,110.436 M123.168,52.878c0.165,0.067,0.325,0.134,0.49,0.197
		c-0.003,0.002-0.003,0.002-0.005,0c1.619,0.676,3.197,1.444,4.729,2.301c1.483,0.839,2.911,1.781,4.275,2.808
		c0.019,0.011,0.033,0.024,0.049,0.036c-0.007-0.007-0.01-0.01-0.018-0.015c0.014,0.011,0.026,0.022,0.044,0.033
		c-0.009-0.006-0.019-0.013-0.026-0.018c1.168,0.891,2.276,1.848,3.327,2.876c1.012,0.989,1.952,2.044,2.838,3.152
		c0.895,1.147,1.719,2.353,2.466,3.612c0.754,1.264,1.416,2.59,2,3.947c-0.026-0.058-0.048-0.117-0.069-0.173
		c0.705,1.664,1.286,3.375,1.759,5.118c0.236,0.892,0.435,1.795,0.623,2.696c0.175,0.835,0.324,1.676,0.447,2.518
		c0.308,2.153,0.465,4.321,0.475,6.496c0.014,2.25-0.137,4.5-0.409,6.73c0.005-0.07,0.017-0.133,0.023-0.199
		c-0.333,2.618-0.852,5.212-1.527,7.759c-0.689,2.602-1.575,5.159-2.603,7.649c0-0.004,0.003-0.005,0.003-0.005
		c-0.465,1.128-0.966,2.243-1.503,3.348c-0.003,0.025,0.024,0.043,0.036,0.021c1.016-1.752,1.95-3.542,2.802-5.374
		c0.82-1.76,1.533-3.562,2.178-5.394c0.646-1.833,1.187-3.709,1.63-5.6c0.432-1.843,0.741-3.719,0.972-5.597
		c0.221-1.843,0.329-3.705,0.32-5.563c-0.01-1.831-0.159-3.667-0.416-5.478c-0.124-0.853-0.265-1.7-0.453-2.535
		c-0.202-0.904-0.443-1.79-0.715-2.669c-0.526-1.698-1.198-3.346-1.969-4.941c-1.991-4.104-4.885-7.761-8.369-10.698
		c-1.846-1.551-3.867-2.886-5.986-4.03c-2.357-1.271-4.855-2.257-7.404-3.042c-0.003-0.003-0.006-0.002-0.009-0.004
		C123.154,52.841,123.148,52.869,123.168,52.878"/>
	<path fill="#010101" d="M64.059,91.242c0,0.012,0.001,0.021-0.004,0.033C64.057,91.265,64.057,91.253,64.059,91.242 M75.929,62.049
		c-0.022,0.03-0.044,0.06-0.069,0.091C75.882,62.11,75.907,62.079,75.929,62.049 M99.88,43.887c-0.894,0.054-1.78,0.167-2.66,0.303
		c-3.342,0.512-6.554,1.75-9.509,3.371c-1.525,0.838-2.97,1.815-4.349,2.871c-0.718,0.553-1.424,1.129-2.106,1.729
		c-0.711,0.62-1.387,1.275-2.048,1.947c-1.313,1.333-2.513,2.76-3.648,4.238c-1.188,1.546-2.287,3.148-3.31,4.812
		c-2.075,3.372-3.768,6.971-5.143,10.678c-1.407,3.787-2.419,7.721-3.051,11.711c-0.74,4.652-0.913,9.392-0.448,14.085
		c0,0.024,0.034,0.024,0.034,0c-0.078-2.818,0.075-5.634,0.421-8.434l0,0c0.354-2.694,0.891-5.362,1.594-7.987
		c0.708-2.661,1.608-5.264,2.653-7.804c2.006-4.784,4.575-9.332,7.707-13.473c2.651-3.437,5.692-6.565,9.104-9.256
		c-0.095,0.08-0.192,0.155-0.289,0.229c1.21-0.942,2.468-1.821,3.774-2.627c1.244-0.766,2.543-1.445,3.877-2.039
		c1.138-0.483,2.301-0.906,3.49-1.248c1.175-0.341,2.371-0.591,3.577-0.764c0.966-0.123,1.936-0.193,2.909-0.21
		c1.104-0.02,2.203,0.047,3.298,0.172c1.112,0.148,2.212,0.368,3.299,0.648c1.189,0.309,2.346,0.712,3.479,1.179
		c-0.007-0.004-0.008-0.006-0.012-0.006c1.226,0.518,2.412,1.118,3.572,1.777c1.371,0.785,2.67,1.675,3.931,2.627
		c-0.027-0.018-0.051-0.041-0.08-0.055c1.156,0.876,2.265,1.812,3.334,2.799c1.154,1.061,2.249,2.182,3.307,3.339
		c0.02,0.017,0.047-0.004,0.029-0.023c-1.415-1.831-2.932-3.583-4.576-5.209c-1.486-1.477-3.089-2.821-4.789-4.041
		c-2.994-2.141-6.382-3.772-9.959-4.661c-1.647-0.406-3.351-0.625-5.046-0.697c-0.367-0.017-0.734-0.023-1.101-0.021
		C100.725,43.849,100.303,43.863,99.88,43.887"/>
	<path fill="#010101" d="M60.082,89.956c0.003-0.029,0.007-0.058,0.011-0.084C60.089,89.9,60.085,89.926,60.082,89.956
		 M84.847,49.66c-0.077,0.033-0.151,0.064-0.231,0.099C84.691,49.725,84.769,49.692,84.847,49.66 M84.953,49.612
		c-0.01,0.006-0.02,0.011-0.033,0.015C84.933,49.623,84.943,49.618,84.953,49.612 M95.936,46.633
		c-0.028,0.003-0.056,0.009-0.085,0.011C95.879,46.642,95.908,46.636,95.936,46.633 M89.34,45.059
		c-1.308,0.298-2.6,0.675-3.87,1.115c-0.62,0.212-1.234,0.449-1.843,0.703c-0.67,0.275-1.341,0.575-1.999,0.884
		c-1.167,0.552-2.298,1.182-3.395,1.865c-1.204,0.753-2.35,1.599-3.458,2.489c0.072-0.059,0.143-0.112,0.212-0.166
		c-1.086,0.854-2.095,1.798-3.057,2.795c-1.01,1.043-1.928,2.159-2.807,3.311c-0.855,1.125-1.644,2.296-2.381,3.505
		c-0.761,1.261-1.452,2.566-2.082,3.899c-0.672,1.429-1.271,2.902-1.819,4.385c-0.551,1.519-1.034,3.072-1.451,4.635
		c-0.924,3.404-1.534,6.885-1.953,10.385c-0.382,3.178-0.57,6.379-0.624,9.585c-0.069,3.622,0.059,7.247,0.311,10.866
		c0.006,0.028,0.042,0.023,0.041-0.002c0.005-5.133,0.271-10.266,0.914-15.358c-0.002,0.019-0.008,0.042-0.012,0.063
		c0.826-6.416,2.259-12.777,4.697-18.776c-0.001,0.002-0.003,0.005-0.004,0.009c1.517-3.655,3.424-7.137,5.799-10.309
		c0.962-1.252,1.999-2.439,3.101-3.57c1.104-1.122,2.282-2.161,3.509-3.138c1.164-0.9,2.372-1.73,3.634-2.489
		c1.335-0.804,2.736-1.514,4.17-2.141c1.626-0.682,3.289-1.26,4.983-1.735c1.921-0.542,3.874-0.934,5.842-1.217
		c2.595-0.35,5.212-0.509,7.834-0.512c2.995-0.005,5.985,0.199,8.955,0.573c-0.062-0.006-0.129-0.017-0.191-0.023
		c5.944,0.766,11.8,2.135,17.529,3.872c0.026,0.011,0.035-0.021,0.013-0.033c-3.723-1.476-7.52-2.782-11.383-3.844
		c-1.771-0.49-3.567-0.918-5.366-1.294c-1.708-0.355-3.423-0.642-5.149-0.883c-2.831-0.405-5.698-0.62-8.561-0.599
		C96.073,43.935,92.67,44.295,89.34,45.059"/>
	<path fill="#010101" d="M129.755,56.498c-0.006-0.002-0.01-0.003-0.014-0.008C129.745,56.494,129.749,56.496,129.755,56.498
		 M136.526,60.426c0.021,0.019,0.043,0.034,0.065,0.051C136.569,60.46,136.545,60.443,136.526,60.426 M125.442,55.116
		c1.472,0.339,2.907,0.801,4.299,1.374c-0.012-0.004-0.025-0.01-0.034-0.015c1.22,0.511,2.406,1.107,3.552,1.772
		c1.171,0.679,2.296,1.446,3.376,2.265c-0.006-0.006-0.013-0.009-0.019-0.015c1.286,0.993,2.501,2.062,3.653,3.202
		c1.229,1.219,2.358,2.52,3.428,3.874c1.323,1.705,2.524,3.502,3.608,5.372c0.562,0.956,1.083,1.929,1.581,2.915
		c0.499,0.999,0.958,2.008,1.394,3.029c0.88,2.095,1.668,4.223,2.323,6.399c0.7,2.33,1.227,4.704,1.578,7.109
		c-0.014-0.091-0.024-0.187-0.037-0.276c0.257,1.807,0.412,3.624,0.446,5.445c0.037,1.848-0.071,3.691-0.297,5.527
		c-0.176,1.308-0.422,2.603-0.746,3.885c-0.344,1.375-0.792,2.722-1.333,4.045c0.013-0.023,0.017-0.046,0.027-0.064
		c-0.358,0.86-0.754,1.713-1.188,2.54c-0.437,0.841-0.922,1.648-1.436,2.443c-0.011,0.019,0.011,0.032,0.027,0.018
		c1.069-1.372,2.017-2.832,2.838-4.368c0.825-1.533,1.504-3.149,2.063-4.791c1.156-3.396,1.701-6.977,1.786-10.547
		c0.043-1.822-0.06-3.646-0.266-5.458c-0.218-1.856-0.554-3.698-0.998-5.515c-0.439-1.799-1.009-3.569-1.677-5.299
		c-0.686-1.751-1.514-3.454-2.41-5.108c-1.417-2.577-3.097-5.006-4.972-7.264c-1.814-2.191-3.841-4.195-6.057-5.97
		c-2.117-1.696-4.414-3.148-6.877-4.288c-2.415-1.125-4.986-1.896-7.624-2.266C125.431,55.083,125.421,55.11,125.442,55.116"/>
	<path fill="#010101" d="M132.851,50.811c0,0,0,0-0.005,0c-0.008-0.002-0.021-0.002-0.029-0.004
		C132.83,50.811,132.841,50.813,132.851,50.811 M140.076,52.726c-0.021-0.008-0.039-0.016-0.056-0.023
		c-0.012-0.004-0.021-0.009-0.028-0.01C140.019,52.705,140.046,52.715,140.076,52.726 M158.795,82.113
		c0-0.016-0.002-0.032-0.005-0.047c-0.009-0.052-0.015-0.105-0.023-0.156C158.775,81.978,158.786,82.044,158.795,82.113
		 M145.646,55.925c0.043,0.03,0.086,0.06,0.126,0.091C145.73,55.988,145.69,55.958,145.646,55.925 M129.933,50.528
		c-0.022,0.001-0.021,0.039,0.001,0.039c0.967,0.043,1.928,0.121,2.883,0.24c0,0,0,0-0.004,0c0.011,0,0.022,0.004,0.033,0.004
		c0.005,0,0.005-0.001,0.005-0.001v0.001c1.266,0.171,2.515,0.416,3.748,0.734c1.155,0.306,2.286,0.697,3.394,1.147
		c-0.005-0.004-0.009-0.005-0.01-0.006c0.013,0.004,0.023,0.009,0.038,0.016c0.021,0.008,0.045,0.017,0.069,0.026
		c-0.006-0.001-0.009-0.001-0.014-0.003c1.972,0.84,3.839,1.912,5.56,3.192c0.957,0.73,1.86,1.518,2.718,2.361
		c0.854,0.843,1.643,1.745,2.386,2.681c-0.004-0.004-0.007-0.008-0.011-0.012c0.89,1.145,1.696,2.348,2.436,3.597
		c0.795,1.351,1.486,2.759,2.107,4.188c0.867,2.054,1.564,4.172,2.129,6.322c0.308,1.162,0.571,2.334,0.796,3.52
		c0.218,1.105,0.405,2.216,0.57,3.334c-0.004-0.029-0.007-0.059-0.013-0.089c0.014,0.082,0.024,0.166,0.036,0.245
		c0.005,0.036,0.009,0.067,0.015,0.099c-0.003-0.016-0.006-0.036-0.01-0.052c0.738,5.453,0.778,10.994,0.106,16.457
		c-0.6,4.561-1.679,9.065-3.419,13.332c0.002-0.007,0.002-0.01,0.005-0.021c-1.211,2.935-2.732,5.732-4.653,8.261
		c0.006-0.006,0.013-0.012,0.017-0.018c-0.386,0.502-0.776,0.983-1.192,1.462c-0.012,0.017,0.012,0.039,0.026,0.022
		c1.887-1.846,3.505-3.942,4.901-6.181c1.509-2.405,2.716-4.994,3.724-7.645c1.058-2.799,1.852-5.699,2.416-8.637
		c0.296-1.532,0.514-3.077,0.686-4.634c0.168-1.532,0.276-3.069,0.317-4.613c0.044-1.537,0.021-3.079-0.063-4.617
		c-0.085-1.581-0.256-3.164-0.482-4.732c-0.108-0.717-0.225-1.438-0.367-2.157c-0.146-0.766-0.325-1.528-0.518-2.289
		c-0.363-1.446-0.799-2.871-1.305-4.27c-0.992-2.756-2.25-5.419-3.812-7.894c-0.759-1.211-1.604-2.356-2.504-3.463
		c-0.873-1.062-1.824-2.068-2.837-2.997c-1.265-1.157-2.633-2.185-4.086-3.09c-1.457-0.91-3.021-1.644-4.63-2.243
		c-3.185-1.182-6.589-1.673-9.976-1.649C130.743,50.501,130.34,50.51,129.933,50.528"/>
	<path fill="#010101" d="M127.716,58.48c0.888,2.432,1.708,4.877,2.466,7.347c0.795,2.572,1.509,5.161,2.194,7.756
		c0.313,1.189,0.64,2.374,0.942,3.563c0.339,1.298,0.651,2.601,0.95,3.903c0.606,2.613,1.129,5.244,1.584,7.884
		c0.007,0.016,0.041,0.012,0.032-0.005c-0.46-5.253-1.286-10.49-2.61-15.596c-0.169-0.648-0.368-1.292-0.559-1.934
		c-0.192-0.649-0.393-1.287-0.601-1.922c-0.419-1.28-0.874-2.555-1.339-3.812c-0.913-2.441-1.931-4.839-3.029-7.199
		c-0.003-0.008-0.005-0.01-0.012-0.009C127.723,58.456,127.712,58.467,127.716,58.48"/>
	<path fill="#010101" d="M138.031,75.531c6.063-0.045,5.993-9.447-0.07-9.403C131.897,66.173,131.966,75.578,138.031,75.531"/>
	<path fill="#010101" d="M154.114,93.749c0.004-0.016,0.005-0.036,0.008-0.054c0.004-0.034,0.008-0.072,0.013-0.107
		C154.127,93.641,154.118,93.695,154.114,93.749 M151.415,73.114c0.014,0.023,0.022,0.05,0.033,0.075
		C151.438,73.164,151.429,73.138,151.415,73.114 M131.04,49.419c5.346,4.166,10.397,8.756,14.585,14.094
		c-0.041-0.049-0.079-0.099-0.119-0.158c1.231,1.592,2.387,3.246,3.427,4.972c0.977,1.604,1.828,3.276,2.571,4.994
		c0.61,1.471,1.141,2.975,1.574,4.51c0.454,1.61,0.772,3.252,1.018,4.908c0.239,1.771,0.361,3.55,0.37,5.332
		c0.015,1.843-0.112,3.684-0.331,5.516c0.004-0.022,0.007-0.044,0.009-0.065c-0.006,0.06-0.014,0.117-0.021,0.173
		c-0.004,0.042-0.011,0.081-0.016,0.121c0.004-0.022,0.005-0.043,0.008-0.067c-0.765,5.704-2.467,11.245-4.649,16.553
		c0.018-0.04,0.037-0.084,0.055-0.123c-0.767,1.854-1.584,3.686-2.451,5.495c-0.967,2.012-2.001,3.993-3.059,5.954
		c-0.01,0.024,0.018,0.041,0.027,0.02c2.555-3.904,4.934-7.922,6.982-12.114c1.774-3.631,3.295-7.394,4.362-11.295
		c0.491-1.783,0.868-3.596,1.13-5.422c0.259-1.787,0.41-3.58,0.43-5.385c0.017-1.767-0.117-3.528-0.372-5.272
		c-0.25-1.696-0.652-3.36-1.168-4.989c-0.406-1.287-0.905-2.538-1.445-3.776c-0.549-1.233-1.173-2.438-1.848-3.61
		c-1.449-2.497-3.189-4.83-5.075-7.016c-2.114-2.453-4.482-4.691-6.963-6.774c-2.85-2.397-5.884-4.573-9.007-6.602
		c-0.002,0-0.005-0.003-0.005-0.003C131.043,49.388,131.033,49.411,131.04,49.419"/>
	<path fill="#010101" d="M152.512,95.05c0.001-0.004,0.001-0.009,0.001-0.012c0.007-0.044,0.012-0.089,0.018-0.134
		C152.524,94.953,152.519,95,152.512,95.05 M148.614,67.35c0.023,0.057,0.05,0.119,0.074,0.174
		C148.664,67.468,148.638,67.407,148.614,67.35 M125.405,49.437c-0.022,0-0.022,0.033-0.001,0.032
		c0.656,0.037,1.31,0.091,1.957,0.167c-0.011,0-0.016,0-0.026,0c1.075,0.141,2.14,0.346,3.192,0.622
		c1.022,0.262,2.027,0.61,3.002,1.011c-0.028-0.01-0.055-0.023-0.084-0.034c0.956,0.401,1.881,0.856,2.784,1.375
		c0.946,0.543,1.855,1.157,2.725,1.812c-0.038-0.027-0.083-0.063-0.123-0.09c0.96,0.732,1.859,1.529,2.712,2.376
		c0.871,0.87,1.681,1.795,2.441,2.762c-0.047-0.06-0.094-0.119-0.138-0.181c0.98,1.262,1.865,2.58,2.672,3.955
		c0.817,1.388,1.534,2.836,2.182,4.306c0.911,2.145,1.654,4.35,2.253,6.598c0.313,1.183,0.584,2.374,0.818,3.578
		c0.216,1.083,0.406,2.176,0.565,3.272c0-0.004,0.003-0.006,0.001-0.012c0.648,4.608,0.756,9.296,0.192,13.919
		c0.004-0.037,0.009-0.073,0.017-0.111c-0.012,0.079-0.022,0.161-0.034,0.245c-0.001,0.012-0.002,0.025-0.004,0.038
		c0-0.008,0.002-0.016,0.003-0.025c-0.465,3.425-1.297,6.801-2.605,9.999c-0.498,1.174-1.055,2.316-1.679,3.43
		c-0.636,1.134-1.351,2.219-2.134,3.259c0.019-0.023,0.032-0.045,0.05-0.068c-0.688,0.901-1.421,1.762-2.214,2.575
		c-0.779,0.812-1.625,1.561-2.516,2.264c0.003-0.003,0-0.006,0-0.006c-0.269,0.217-0.544,0.422-0.823,0.627
		c-0.02,0.014-0.002,0.041,0.017,0.027c1.182-0.721,2.296-1.524,3.342-2.414c1.081-0.913,2.08-1.918,3.005-2.988
		c1.853-2.146,3.371-4.576,4.59-7.134c1.275-2.676,2.215-5.509,2.854-8.402c0.343-1.516,0.579-3.049,0.759-4.594
		c0.18-1.522,0.271-3.056,0.294-4.586c0.027-1.537-0.033-3.075-0.164-4.605c-0.061-0.74-0.146-1.472-0.246-2.2
		c-0.116-0.859-0.24-1.71-0.411-2.558c-0.306-1.496-0.672-2.979-1.125-4.439c-0.443-1.443-0.97-2.862-1.562-4.25
		c-0.599-1.411-1.264-2.782-2.003-4.118c-0.704-1.271-1.495-2.491-2.34-3.672c-1.655-2.294-3.582-4.397-5.78-6.178
		c-1.103-0.892-2.28-1.7-3.511-2.416c-1.26-0.731-2.593-1.333-3.965-1.83c-2.626-0.945-5.417-1.371-8.201-1.352
		C125.896,49.421,125.649,49.427,125.405,49.437"/>
	<path fill="#010101" d="M137.717,49.347c-0.016-0.004-0.03-0.011-0.044-0.018C137.687,49.336,137.701,49.342,137.717,49.347
		 M129.906,47.179c1.335,0.209,2.656,0.495,3.963,0.845c1.295,0.354,2.564,0.798,3.804,1.305c-0.013-0.007-0.028-0.014-0.043-0.022
		c1.26,0.528,2.479,1.123,3.658,1.804c1.152,0.66,2.256,1.402,3.313,2.209c-0.029-0.022-0.059-0.046-0.086-0.068
		c1.017,0.784,1.978,1.63,2.891,2.521c0.966,0.955,1.866,1.971,2.706,3.039c-0.054-0.063-0.097-0.124-0.148-0.186
		c0.947,1.208,1.803,2.473,2.583,3.794c0.818,1.385,1.535,2.833,2.179,4.314c-0.046-0.096-0.086-0.189-0.125-0.288
		c1.58,3.708,2.603,7.623,3.192,11.61c-0.023-0.131-0.043-0.262-0.061-0.391c0.043,0.315,0.092,0.626,0.14,0.943
		c-0.024-0.131-0.043-0.261-0.062-0.389c0.353,2.471,0.551,4.967,0.564,7.466c0.02,2.509-0.128,5.02-0.442,7.514
		c0.013-0.107,0.026-0.214,0.039-0.322c-0.284,2.183-0.686,4.351-1.235,6.486c-0.537,2.11-1.22,4.184-2.047,6.199
		c0.023-0.06,0.046-0.115,0.067-0.171c-0.665,1.604-1.418,3.168-2.271,4.686c-0.869,1.547-1.854,3.036-2.928,4.45
		c0.004,0,0.004-0.003,0.007-0.005c-1.339,1.742-2.816,3.358-4.439,4.837c-0.019,0.012,0.005,0.039,0.02,0.026
		c1.171-0.904,2.281-1.88,3.337-2.924c1.089-1.076,2.103-2.225,3.055-3.424c1.902-2.398,3.525-5.021,4.87-7.772
		c1.383-2.818,2.462-5.783,3.26-8.823c0.807-3.087,1.274-6.273,1.455-9.461c0.083-1.561,0.085-3.131,0.01-4.696
		c-0.074-1.628-0.257-3.241-0.5-4.845c-0.111-0.734-0.26-1.463-0.418-2.185c-0.163-0.784-0.361-1.557-0.569-2.324
		c-0.402-1.473-0.892-2.915-1.462-4.33c-0.578-1.441-1.228-2.851-1.958-4.218c-0.699-1.312-1.489-2.573-2.347-3.785
		c-1.718-2.43-3.742-4.637-6.04-6.524c-1.199-0.979-2.466-1.871-3.792-2.663c-1.346-0.804-2.76-1.477-4.212-2.059
		c-3.156-1.277-6.529-1.975-9.921-2.215C129.889,47.138,129.884,47.171,129.906,47.179"/>
	<path fill="#010101" d="M153.527,88.761c0.005,0.044,0.013,0.085,0.017,0.125C153.538,88.845,153.531,88.804,153.527,88.761
		 M149.175,73.107c0.021,0.047,0.042,0.092,0.062,0.139C149.216,73.202,149.195,73.154,149.175,73.107 M133.335,52.799
		c0.481,0.333,0.964,0.678,1.438,1.031c-0.005-0.001-0.007-0.002-0.011-0.003c2.768,2.106,5.2,4.607,7.351,7.327
		c2.859,3.656,5.199,7.691,7.057,11.938c0.522,1.222,1.002,2.461,1.452,3.711c0.454,1.278,0.848,2.582,1.215,3.89
		c0.368,1.314,0.686,2.633,0.955,3.971c0.262,1.307,0.511,2.622,0.714,3.943c0.311,2.201,0.498,4.419,0.539,6.645
		c0.053,2.192-0.063,4.387-0.336,6.565c0.012-0.079,0.022-0.165,0.033-0.244c-0.102,0.791-0.218,1.584-0.366,2.369
		c-0.14,0.783-0.314,1.558-0.505,2.327c-0.379,1.594-0.902,3.149-1.522,4.658c0.015-0.031,0.025-0.063,0.039-0.097
		c-0.522,1.271-1.121,2.501-1.798,3.697c-0.68,1.204-1.459,2.351-2.292,3.453c0.011-0.016,0.021-0.027,0.034-0.047
		c-1.014,1.315-2.125,2.545-3.32,3.693c-0.015,0.013,0.007,0.039,0.023,0.023c0.709-0.576,1.394-1.18,2.056-1.812
		c0.695-0.659,1.352-1.365,1.979-2.097c1.159-1.335,2.196-2.789,3.117-4.3c0.92-1.514,1.695-3.114,2.367-4.758
		c0.326-0.804,0.616-1.62,0.891-2.444c0.299-0.883,0.537-1.795,0.754-2.704c0.429-1.784,0.701-3.606,0.876-5.428
		c0.185-1.842,0.216-3.692,0.151-5.54c-0.065-1.905-0.283-3.796-0.573-5.675c-0.135-0.893-0.312-1.778-0.507-2.659
		c-0.099-0.446-0.217-0.88-0.329-1.32c-0.137-0.512-0.274-1.021-0.422-1.528c-0.873-3.063-2.066-6.032-3.456-8.893
		c-1.357-2.799-2.974-5.482-4.807-7.999c-3.419-4.701-7.694-8.869-12.777-11.73c-0.005,0-0.007,0-0.012,0.001
		C133.326,52.764,133.318,52.79,133.335,52.799"/>
	<path fill="#93C83E" d="M113.966,52.131c-7.56,2.849-14.903,6.265-21.898,10.306c-1.755,1.014-3.483,2.079-5.182,3.175
		c-1.704,1.104-3.35,2.295-4.976,3.507c-3.224,2.415-6.342,4.986-9.347,7.676c-0.23,0.206-0.255,0.585-0.108,0.845
		c0.367,0.617,0.7,1.248,0.993,1.907c-0.017-0.052-0.039-0.097-0.057-0.147c0.142,0.351,0.281,0.693,0.408,1.046
		c0.116,0.334,0.214,0.678,0.307,1.022c0.181,0.648,0.3,1.319,0.4,1.991c-0.006-0.04-0.011-0.074-0.019-0.112
		c0.175,1.288,0.245,2.585,0.338,3.881c0.103,1.382,0.254,2.768,0.494,4.134c0.008,0.021,0.042,0.016,0.036-0.007
		c-0.044-0.616-0.078-1.237-0.093-1.859c-0.015-0.668-0.005-1.333,0.007-2.001c0.026-1.215,0.076-2.429,0.053-3.645
		c-0.019-1.07-0.134-2.13-0.341-3.179c-0.222-1.101-0.604-2.156-1.066-3.177c2.984-2.242,6.017-4.416,9.094-6.525
		c1.677-1.144,3.362-2.262,5.039-3.4c1.682-1.137,3.366-2.262,5.066-3.371c6.734-4.379,13.693-8.409,20.866-12.035
		c0.016-0.004,0.007-0.035-0.012-0.035L113.966,52.131"/>
</g>
</svg>
