<?xml version="1.0" encoding="utf-8"?>
<!-- Generator: Adobe Illustrator 14.0.0, SVG Export Plug-In . SVG Version: 6.00 Build 43363)  -->
<!DOCTYPE svg PUBLIC "-//W3C//DTD SVG 1.1//EN" "http://www.w3.org/Graphics/SVG/1.1/DTD/svg11.dtd">
<svg version="1.1" id="Layer_1" xmlns="http://www.w3.org/2000/svg" xmlns:xlink="http://www.w3.org/1999/xlink" x="0px" y="0px"
	 width="50px" height="50px" viewBox="0 0 50 50" enable-background="new 0 0 50 50" xml:space="preserve">
<g id="CAMERA_ACTIVE_1_">
	<circle fill="#FCE277" stroke="#000000" cx="24.86" cy="25.041" r="15.509"/>
	<g id="CAMERA_4_">
		<g>
			<path d="M13.981,25.92c0.544,1.237,1.132,2.454,1.743,3.66c0.307,0.604,0.619,1.207,0.935,1.81
				c0.157,0.301,0.316,0.602,0.476,0.9c0.159,0.3,0.323,0.599,0.486,0.895c0.534,0.971,1.07,1.942,1.588,2.921
				c0.511,0.97,1.003,1.948,1.469,2.939c0.001,0.003,0.004,0.002,0.004-0.001c-0.48-1.242-1.025-2.457-1.601-3.658
				c-0.293-0.61-0.596-1.216-0.904-1.819c-0.154-0.302-0.31-0.603-0.468-0.903c-0.158-0.3-0.321-0.599-0.485-0.896
				c-0.538-0.974-1.088-1.939-1.632-2.909c-0.547-0.976-1.087-1.951-1.607-2.938c0-0.002-0.001-0.002-0.001-0.002
				C13.981,25.917,13.979,25.919,13.981,25.92"/>
			<path d="M30.722,18.016c-1.044,0.604-2.115,1.165-3.201,1.693c-1.128,0.548-2.271,1.06-3.424,1.555
				c-0.203,0.086-0.405,0.172-0.608,0.259c-0.286,0.121-0.571,0.239-0.857,0.358C22.487,21.941,22.343,22,22.2,22.062
				c-0.07,0.03-0.14,0.059-0.211,0.088c-0.011,0.005-0.02,0.009-0.03,0.015c-0.002,0-0.005,0.001-0.006,0.002
				c-0.011,0.003-0.023,0.008-0.032,0.013c-0.068,0.029-0.135,0.058-0.204,0.086c-0.293,0.124-0.587,0.246-0.88,0.37
				c-1.169,0.487-2.34,0.967-3.512,1.446c-1.161,0.475-2.321,0.951-3.477,1.434c-0.003,0.002-0.002,0.005,0.001,0.004
				c1.155-0.399,2.312-0.795,3.463-1.205c1.188-0.422,2.371-0.857,3.546-1.313c0.296-0.115,0.592-0.234,0.886-0.351
				c0.108-0.044,0.216-0.087,0.322-0.131c0.012-0.003,0.022-0.008,0.033-0.012c0.178-0.074,0.357-0.148,0.536-0.224
				c0.583-0.249,1.162-0.508,1.737-0.774c1.132-0.523,2.251-1.081,3.348-1.679c1.027-0.56,2.032-1.159,3.005-1.812
				c0.002,0,0-0.004,0-0.004S30.724,18.014,30.722,18.016"/>
			<path d="M36.885,29.803c-0.62,0.283-1.241,0.567-1.861,0.846c-0.619,0.279-1.24,0.556-1.861,0.829
				c-1.236,0.549-2.477,1.092-3.711,1.647c-0.308,0.14-0.615,0.279-0.923,0.42c-0.306,0.142-0.61,0.287-0.915,0.433
				c-0.609,0.292-1.215,0.59-1.818,0.894c-0.604,0.306-1.207,0.617-1.802,0.937c-0.3,0.16-0.599,0.319-0.896,0.485
				c-0.297,0.166-0.593,0.335-0.887,0.506c-0.653,0.378-1.297,0.77-1.933,1.173c-0.003,0.002,0,0.005,0.001,0.002
				c0.603-0.326,1.21-0.646,1.82-0.958c0.304-0.156,0.61-0.31,0.915-0.46c0.147-0.074,0.293-0.146,0.439-0.22
				c0.159-0.079,0.317-0.157,0.476-0.236c1.218-0.595,2.444-1.17,3.676-1.739c0.307-0.143,0.612-0.283,0.92-0.425
				c0.306-0.143,0.609-0.288,0.915-0.434c0.61-0.287,1.219-0.577,1.828-0.868c1.218-0.583,2.433-1.173,3.638-1.786
				c0.663-0.339,1.327-0.687,1.982-1.042c0.002-0.002,0-0.006-0.002-0.006V29.803"/>
			<path d="M31.45,19.672c0-0.003-0.002-0.005-0.003-0.008C31.448,19.667,31.45,19.669,31.45,19.672 M30.989,18.553
				c0.21,0.634,0.436,1.262,0.674,1.885c0.236,0.614,0.485,1.222,0.742,1.828c0.257,0.611,0.522,1.216,0.793,1.821
				c0.064,0.145,0.13,0.29,0.194,0.434c0.07,0.156,0.142,0.312,0.215,0.468c0.137,0.298,0.278,0.596,0.418,0.894
				c0.271,0.585,0.547,1.168,0.813,1.754c0.273,0.599,0.539,1.2,0.796,1.807c-0.003-0.004-0.003-0.008-0.005-0.012
				c0.202,0.479,0.396,0.96,0.583,1.443c0.002,0.002,0.006,0.001,0.005-0.001c-0.387-1.261-0.86-2.496-1.368-3.712
				c-0.258-0.617-0.526-1.229-0.801-1.839c-0.135-0.301-0.271-0.602-0.412-0.9s-0.283-0.595-0.423-0.893
				c-0.61-1.275-1.214-2.556-1.764-3.857l0,0c-0.157-0.372-0.309-0.746-0.456-1.12c0-0.001-0.002-0.001-0.002-0.001
				C30.99,18.551,30.989,18.552,30.989,18.553"/>
			<path d="M14.784,20.695c-0.08,0.363-0.154,0.727-0.225,1.091c-0.074,0.382-0.143,0.765-0.202,1.148
				c-0.027,0.185-0.051,0.37-0.074,0.555c-0.023,0.194-0.045,0.389-0.066,0.583c-0.041,0.392-0.075,0.784-0.103,1.178
				c0,0.001,0.003,0.001,0.003,0c0.054-0.376,0.11-0.751,0.168-1.125c0.029-0.193,0.06-0.386,0.091-0.579
				c0.03-0.193,0.061-0.387,0.089-0.581c0.027-0.179,0.051-0.358,0.076-0.538c0.027-0.193,0.054-0.386,0.081-0.578
				c0.055-0.385,0.109-0.769,0.165-1.152c0-0.001-0.001-0.002-0.003-0.002C14.785,20.694,14.784,20.694,14.784,20.695"/>
			<path d="M32.005,12.773c-0.017,0.004-0.031,0.013-0.041,0.024c-0.076,0.062-0.15,0.124-0.225,0.183
				c0.004-0.005,0.012-0.01,0.018-0.016c-0.148,0.114-0.301,0.221-0.458,0.32c-0.17,0.11-0.343,0.211-0.521,0.309
				c-0.366,0.199-0.743,0.374-1.127,0.536c0.013-0.003,0.021-0.009,0.032-0.012c-0.537,0.227-1.088,0.426-1.64,0.618
				c-0.269,0.095-0.54,0.187-0.81,0.28c-0.289,0.101-0.579,0.204-0.868,0.309c-0.326,0.117-0.652,0.237-0.977,0.359
				c-0.156,0.059-0.311,0.119-0.467,0.178c-0.168,0.065-0.335,0.131-0.503,0.197c-0.646,0.255-1.288,0.52-1.929,0.787
				c-1.28,0.537-2.555,1.088-3.826,1.645c-0.317,0.14-0.634,0.278-0.952,0.418c-0.317,0.139-0.636,0.277-0.952,0.417
				c-0.632,0.281-1.267,0.56-1.901,0.836c-0.202,0.088-0.407,0.176-0.61,0.263c-0.002,0.001,0,0.005,0.001,0.005
				c0.653-0.232,1.304-0.47,1.954-0.712c0.325-0.121,0.649-0.244,0.972-0.368c0.323-0.126,0.647-0.252,0.969-0.379
				c1.291-0.507,2.574-1.03,3.862-1.546c0.644-0.258,1.287-0.516,1.933-0.771c0.322-0.127,0.646-0.254,0.968-0.381
				c0.323-0.127,0.645-0.255,0.969-0.381c0.323-0.127,0.647-0.253,0.972-0.377c0.265-0.1,0.529-0.198,0.793-0.298
				c0.546-0.203,1.092-0.408,1.629-0.635c0.512-0.217,1.016-0.451,1.503-0.725c0.233-0.132,0.462-0.276,0.686-0.43
				c0.105-0.074,0.208-0.15,0.311-0.229c0.011-0.006,0.018-0.015,0.028-0.022c-0.088,0.2-0.173,0.397-0.265,0.595
				c-0.128,0.279-0.258,0.558-0.386,0.835c-0.252,0.549-0.494,1.101-0.693,1.67c-0.002,0.002,0.004,0.004,0.004,0.001
				c0.01-0.025,0.021-0.049,0.031-0.073l0,0c0.24-0.565,0.521-1.109,0.804-1.651c0.14-0.272,0.282-0.543,0.42-0.815
				c0.067-0.131,0.133-0.262,0.195-0.394c0.068-0.144,0.135-0.29,0.198-0.434c0.011-0.014,0.013-0.03,0.013-0.046
				c0-0.025-0.01-0.048-0.025-0.064c-0.018-0.018-0.042-0.027-0.065-0.027C32.021,12.771,32.012,12.772,32.005,12.773"/>
			<path d="M32.598,13.464c0.54,1.252,1.15,2.475,1.785,3.68c0.077,0.145,0.153,0.29,0.232,0.434c0.084,0.155,0.17,0.31,0.257,0.465
				c0.164,0.297,0.329,0.593,0.495,0.89c0.33,0.591,0.656,1.183,0.973,1.781c0.139,0.262,0.274,0.523,0.41,0.787
				c0.001,0.003,0.005,0,0.003-0.001c-0.264-0.624-0.547-1.238-0.844-1.847c-0.295-0.611-0.604-1.217-0.921-1.82
				c-0.076-0.146-0.151-0.289-0.229-0.435c-0.084-0.154-0.17-0.31-0.258-0.465c-0.163-0.297-0.33-0.595-0.496-0.892
				c-0.332-0.595-0.665-1.188-0.986-1.788c-0.143-0.262-0.28-0.525-0.417-0.791c-0.003,0-0.003-0.001-0.003-0.001
				C32.598,13.46,32.597,13.463,32.598,13.464"/>
			<path d="M35.065,22.402l0.002,0.001C35.065,22.402,35.065,22.402,35.065,22.402L35.065,22.402 M33.939,21.206
				c0.004,0.008,0.008,0.016,0.011,0.024C33.947,21.222,33.943,21.214,33.939,21.206 M33.95,18.396
				c-0.214,0.333-0.348,0.714-0.414,1.103c-0.035,0.205-0.05,0.411-0.048,0.618c0.001,0.208,0.022,0.417,0.062,0.622
				c0.037,0.201,0.097,0.397,0.175,0.586c0.036,0.092,0.079,0.182,0.126,0.268c0.047,0.091,0.103,0.179,0.161,0.263
				c0.117,0.162,0.254,0.309,0.41,0.435c0.074,0.061,0.155,0.117,0.238,0.167c0.09,0.056,0.189,0.101,0.288,0.143
				c0.1,0.041,0.204,0.072,0.312,0.098c0.027,0.007,0.057,0.004,0.083-0.012c0.023-0.015,0.041-0.036,0.05-0.065
				c0.051-0.175,0.093-0.352,0.125-0.531c0.035-0.19,0.058-0.382,0.07-0.574c0.028-0.374,0.008-0.75-0.059-1.118
				c-0.062-0.356-0.183-0.704-0.356-1.021c-0.082-0.149-0.178-0.291-0.287-0.422c-0.119-0.149-0.259-0.284-0.41-0.403
				c-0.002-0.001-0.004,0.001-0.004,0.002c0.062,0.056,0.12,0.113,0.176,0.174c0.056,0.058,0.105,0.121,0.154,0.185
				c0-0.001,0-0.003-0.002-0.004c0.073,0.096,0.14,0.193,0.2,0.295c0.064,0.109,0.119,0.223,0.168,0.339
				c0.057,0.137,0.104,0.276,0.143,0.418c0.044,0.155,0.073,0.314,0.096,0.473c0-0.006-0.002-0.012-0.002-0.017
				c0.025,0.201,0.039,0.403,0.037,0.606c0,0.206-0.018,0.411-0.042,0.615l0,0c-0.039,0.278-0.101,0.552-0.183,0.821
				c-0.051-0.017-0.1-0.035-0.149-0.055c0.005,0.001,0.009,0.004,0.013,0.006c-0.005-0.002-0.01-0.005-0.015-0.008
				c-0.003-0.001-0.007-0.002-0.012-0.003c0.005,0.001,0.009,0.002,0.011,0.003c-0.067-0.029-0.136-0.063-0.202-0.101
				c-0.075-0.042-0.146-0.091-0.215-0.143c-0.067-0.054-0.129-0.11-0.192-0.169c-0.072-0.073-0.138-0.15-0.199-0.23
				c0.003,0.005,0.008,0.01,0.01,0.015c-0.062-0.085-0.122-0.175-0.176-0.268c-0.052-0.089-0.099-0.182-0.14-0.276
				c-0.053-0.125-0.097-0.255-0.133-0.387c-0.039-0.138-0.067-0.277-0.088-0.418c-0.039-0.304-0.04-0.611-0.001-0.914
				c0.016-0.132,0.043-0.263,0.076-0.392c0.034-0.129,0.078-0.257,0.129-0.381c-0.002,0.005-0.004,0.012-0.008,0.018
				c0.029-0.071,0.062-0.14,0.1-0.208c0.146,0.157,0.285,0.32,0.417,0.49c-0.003-0.004-0.005-0.007-0.008-0.01
				c0.134,0.176,0.262,0.358,0.382,0.547c0.119,0.189,0.225,0.385,0.326,0.585c0,0.003,0.005,0,0.002-0.001
				c-0.061-0.15-0.126-0.299-0.199-0.446c-0.083-0.166-0.173-0.328-0.269-0.486c-0.181-0.301-0.39-0.582-0.618-0.848
				c-0.012-0.013-0.032-0.019-0.049-0.019C33.983,18.36,33.963,18.374,33.95,18.396"/>
			<path d="M34.874,14.131c-0.118,0.373-0.219,0.75-0.309,1.129c-0.043,0.18-0.082,0.363-0.117,0.544
				c-0.04,0.195-0.075,0.39-0.107,0.586c-0.029,0.175-0.052,0.351-0.075,0.527c-0.025,0.198-0.048,0.396-0.071,0.595
				c-0.045,0.392-0.084,0.782-0.124,1.173c-0.001,0.001,0.004,0.003,0.004,0c0.067-0.374,0.13-0.748,0.189-1.124
				c0.062-0.379,0.125-0.76,0.187-1.142c0.03-0.183,0.057-0.367,0.089-0.55c0.029-0.197,0.062-0.395,0.098-0.59
				c0.07-0.385,0.15-0.769,0.241-1.149C34.878,14.131,34.878,14.13,34.874,14.131L34.874,14.131"/>
			<path d="M37.419,24.579c-0.106,0.397-0.189,0.801-0.261,1.206c-0.079,0.445-0.145,0.892-0.198,1.341
				c-0.014,0.107-0.022,0.215-0.034,0.323c-0.011,0.119-0.021,0.237-0.03,0.357c-0.021,0.235-0.039,0.472-0.059,0.708
				c-0.029,0.431-0.058,0.859-0.087,1.288c-0.002,0.003,0.003,0.004,0.003,0.001c0.104-0.699,0.189-1.402,0.273-2.103
				c0.021-0.18,0.044-0.36,0.063-0.541c0.021-0.188,0.039-0.378,0.06-0.568c0.038-0.365,0.079-0.73,0.128-1.093
				c0,0-0.001,0.001-0.001,0.003c0.042-0.309,0.089-0.616,0.146-0.922c0.001-0.001-0.002-0.002-0.002-0.002
				S37.419,24.578,37.419,24.579"/>
			<path d="M36.213,20.428c0.105,0.285,0.216,0.568,0.327,0.849c0.119,0.3,0.239,0.599,0.36,0.897
				c0.057,0.138,0.113,0.274,0.17,0.41c0.062,0.148,0.12,0.297,0.177,0.445c0.112,0.29,0.216,0.584,0.306,0.881
				c0,0.004,0.005,0.002,0.003,0c-0.062-0.291-0.143-0.578-0.233-0.86c-0.097-0.305-0.208-0.605-0.326-0.901
				c-0.057-0.141-0.119-0.28-0.182-0.42c-0.064-0.146-0.132-0.292-0.2-0.439c-0.13-0.288-0.265-0.574-0.396-0.862
				c0-0.001-0.002-0.001-0.002-0.001C36.215,20.425,36.213,20.427,36.213,20.428"/>
			<path d="M34.206,18.417c-0.184,0.199-0.377,0.388-0.577,0.568c-0.102,0.09-0.204,0.178-0.307,0.266
				c-0.103,0.085-0.207,0.17-0.313,0.252l0.002-0.001c-0.176,0.136-0.36,0.266-0.547,0.389c-0.003,0.001,0,0.005,0.003,0.003
				c0.326-0.182,0.639-0.387,0.926-0.625c0.076-0.062,0.148-0.128,0.221-0.196c0.071-0.067,0.14-0.136,0.207-0.207
				c0.138-0.142,0.266-0.292,0.388-0.446C34.209,18.418,34.208,18.416,34.206,18.417C34.206,18.416,34.206,18.416,34.206,18.417"/>
			<path d="M36.215,22.033c-0.28,0.184-0.562,0.36-0.848,0.534c-0.069,0.042-0.137,0.084-0.204,0.127
				c-0.08,0.048-0.16,0.097-0.239,0.146c-0.15,0.09-0.3,0.179-0.45,0.266c-0.002,0.001-0.002,0.004,0.002,0.003
				c0.314-0.148,0.624-0.311,0.921-0.493c0.147-0.091,0.29-0.189,0.433-0.29c0.133-0.093,0.26-0.189,0.389-0.288
				C36.219,22.036,36.218,22.033,36.215,22.033L36.215,22.033"/>
			<path d="M34.875,21.364c-0.001,0-0.002,0.002,0,0.003c1.276,0.349,2.536,0.739,3.809,1.1c0.55,0.157,1.103,0.309,1.659,0.443
				c-0.036-0.079-0.069-0.158-0.104-0.239c-0.636-0.153-1.269-0.31-1.901-0.469c-0.646-0.165-1.291-0.328-1.938-0.486
				c-0.505-0.123-1.014-0.242-1.522-0.352H34.875"/>
			<path d="M16.387,34.089c0.004,0,0.006,0.002,0.009,0.002C16.393,34.091,16.391,34.089,16.387,34.089 M14.802,32.559
				c0.002,0.006,0.006,0.012,0.008,0.018C14.808,32.57,14.805,32.564,14.802,32.559 M14.382,28.999
				c-0.079,0.315-0.121,0.638-0.142,0.962c-0.023,0.363-0.014,0.727,0.02,1.088c0.034,0.365,0.098,0.729,0.195,1.081
				c0.047,0.171,0.103,0.339,0.168,0.504c0.062,0.159,0.135,0.315,0.22,0.463c0.077,0.136,0.165,0.265,0.261,0.387
				c0.09,0.114,0.19,0.219,0.3,0.313c0.106,0.092,0.222,0.172,0.346,0.236c0.126,0.069,0.263,0.119,0.403,0.151
				c0.14,0.03,0.284,0.041,0.426,0.035c0.164-0.006,0.326-0.038,0.483-0.084c0.173-0.05,0.339-0.123,0.498-0.207
				c0.203-0.105,0.395-0.234,0.576-0.374c0.002,0,0-0.006-0.003-0.003c-0.213,0.137-0.434,0.262-0.668,0.36
				c0.002,0,0.004-0.002,0.007-0.003c-0.106,0.045-0.217,0.083-0.327,0.115c-0.102,0.029-0.204,0.05-0.309,0.064
				c0,0,0.001,0,0.002,0c-0.073,0.008-0.147,0.014-0.222,0.015c-0.073,0-0.147-0.003-0.22-0.013c-0.138-0.02-0.272-0.056-0.401-0.11
				c0.006,0.003,0.012,0.006,0.018,0.008c-0.128-0.055-0.247-0.125-0.357-0.209c-0.143-0.111-0.27-0.242-0.381-0.383
				c0,0,0,0,0.001,0.001c-0.191-0.252-0.34-0.532-0.465-0.821c-0.222-0.526-0.358-1.089-0.436-1.655
				c0.001,0.006,0.001,0.012,0.002,0.018c-0.04-0.304-0.063-0.607-0.066-0.914c-0.005-0.281,0.01-0.563,0.046-0.843
				c0,0,0,0.001,0,0.003c0.008-0.062,0.018-0.123,0.029-0.185c0-0.001-0.001-0.002-0.003-0.002
				C14.383,28.998,14.382,28.998,14.382,28.999"/>
			<path d="M15.99,24.714c-0.105,0.459-0.197,0.923-0.267,1.393c-0.015,0.099-0.026,0.199-0.039,0.299
				c-0.014,0.124-0.027,0.248-0.039,0.373c-0.024,0.249-0.042,0.498-0.058,0.748c0,0.002,0.005,0.003,0.005,0
				c0.031-0.233,0.064-0.467,0.099-0.7c0.034-0.232,0.07-0.466,0.105-0.701c0.017-0.109,0.03-0.22,0.045-0.331
				c0.017-0.125,0.034-0.25,0.051-0.375c0.032-0.236,0.066-0.47,0.102-0.705c0-0.003-0.002-0.003-0.002-0.003
				S15.99,24.712,15.99,24.714"/>
			<path d="M17.864,23.91c-0.136,0.396-0.273,0.792-0.405,1.19c-0.076,0.23-0.149,0.461-0.219,0.694
				c-0.075,0.248-0.145,0.498-0.208,0.748c-0.111,0.45-0.201,0.906-0.254,1.366c-0.022,0.199-0.036,0.397-0.035,0.599
				c0,0.165,0.013,0.333,0.049,0.494c0,0.003,0.003,0.002,0.003-0.001c-0.001-0.013-0.003-0.024-0.006-0.036l0,0
				c-0.017-0.136-0.018-0.275-0.015-0.411c0.006-0.162,0.023-0.325,0.044-0.486c0,0.003,0,0.006-0.001,0.008
				c0.048-0.346,0.12-0.688,0.2-1.026c0.045-0.189,0.093-0.377,0.142-0.565c0.049-0.19,0.099-0.381,0.148-0.571
				c0.096-0.358,0.195-0.714,0.295-1.07c0.087-0.31,0.177-0.619,0.263-0.931c0-0.001,0-0.002-0.001-0.002
				C17.867,23.908,17.865,23.908,17.864,23.91"/>
			<path d="M18.266,24.579c-0.08,0.488-0.15,0.976-0.219,1.464c-0.035,0.248-0.068,0.496-0.103,0.747
				c-0.034,0.239-0.069,0.482-0.102,0.724c0-0.002,0.001-0.006,0.001-0.008c-0.063,0.47-0.129,0.941-0.21,1.409
				c-0.083,0.479-0.183,0.954-0.305,1.423c0,0.003,0.003,0.004,0.005,0.002c0.152-0.459,0.276-0.928,0.38-1.403
				c0.105-0.478,0.188-0.961,0.257-1.445c0.016-0.111,0.029-0.222,0.042-0.333c0.014-0.117,0.028-0.237,0.041-0.354
				c0.027-0.251,0.051-0.499,0.075-0.749c0.046-0.492,0.091-0.984,0.141-1.475c0.001-0.001,0-0.002-0.001-0.002
				C18.268,24.578,18.267,24.578,18.266,24.579"/>
			<path d="M19.873,23.775c-0.253,1.301-0.517,2.598-0.76,3.899c-0.031,0.16-0.06,0.318-0.088,0.477
				c-0.032,0.175-0.062,0.347-0.091,0.52c-0.057,0.332-0.111,0.663-0.165,0.995c-0.104,0.643-0.199,1.286-0.277,1.933
				c-0.026,0.216-0.049,0.432-0.073,0.649c0,0.009,0.007,0.017,0.014,0.019c0.011,0.003,0.02-0.004,0.024-0.013
				c0.074-0.191,0.144-0.383,0.216-0.574c0-0.002-0.003-0.004-0.004-0.002c-0.064,0.143-0.129,0.286-0.19,0.43
				c0.039-0.27,0.081-0.541,0.122-0.811c0.05-0.323,0.101-0.649,0.153-0.975c0.025-0.158,0.05-0.314,0.076-0.473
				c0.028-0.174,0.055-0.346,0.085-0.517c0.056-0.332,0.114-0.664,0.171-0.995c0.115-0.665,0.228-1.331,0.343-1.996
				c0.113-0.651,0.229-1.303,0.343-1.954c0.037-0.204,0.072-0.407,0.107-0.61c0-0.002-0.001-0.003-0.002-0.003L19.873,23.775"/>
			<path d="M21.747,22.569c-0.2,1.252-0.372,2.507-0.556,3.76c-0.188,1.28-0.389,2.561-0.64,3.83
				c-0.038,0.189-0.077,0.38-0.117,0.569c-0.041,0.189-0.083,0.377-0.127,0.565c-0.088,0.374-0.181,0.747-0.28,1.118
				c-0.049,0.185-0.1,0.368-0.154,0.554c-0.053,0.184-0.108,0.364-0.165,0.545c-0.057,0.183-0.114,0.364-0.174,0.543
				c-0.063,0.189-0.13,0.381-0.195,0.571c-0.001,0.001,0.003,0.003,0.004,0c0.117-0.291,0.223-0.59,0.324-0.888
				c0.101-0.303,0.191-0.604,0.281-0.91c0.179-0.616,0.331-1.237,0.469-1.864c0.138-0.632,0.263-1.266,0.376-1.901
				c0.114-0.637,0.214-1.278,0.31-1.921c0.226-1.521,0.417-3.048,0.651-4.57c0-0.001-0.002-0.002-0.002-0.002L21.747,22.569"/>
			<path d="M24.159,22.705c-0.328,1.332-0.682,2.658-1.032,3.985c-0.178,0.671-0.354,1.342-0.524,2.017
				c-0.17,0.674-0.333,1.35-0.491,2.025c-0.077,0.324-0.149,0.647-0.22,0.973c-0.071,0.324-0.138,0.649-0.203,0.974
				c-0.065,0.324-0.127,0.648-0.185,0.974c-0.058,0.323-0.112,0.647-0.157,0.973c0,0.002,0.004,0.004,0.004,0.001
				c0.063-0.335,0.125-0.671,0.19-1.007c0.064-0.336,0.133-0.674,0.202-1.01c0.07-0.34,0.145-0.675,0.219-1.013
				c0.075-0.339,0.153-0.678,0.232-1.014c0.079-0.339,0.162-0.676,0.244-1.013c0.084-0.338,0.168-0.675,0.252-1.013
				c0.169-0.673,0.34-1.346,0.513-2.018c0.327-1.277,0.655-2.553,0.96-3.833l-0.002-0.004C24.161,22.702,24.16,22.703,24.159,22.705
				"/>
			<path d="M25.767,20.293c-0.236,1.337-0.466,2.675-0.702,4.013c-0.12,0.668-0.241,1.34-0.367,2.009
				c-0.063,0.336-0.126,0.668-0.192,1.003c-0.066,0.334-0.135,0.667-0.205,1.002c-0.127,0.6-0.256,1.197-0.392,1.797
				c-0.138,0.611-0.285,1.219-0.438,1.826c-0.151,0.606-0.313,1.212-0.483,1.813c-0.083,0.301-0.17,0.602-0.259,0.901
				c-0.044,0.143-0.086,0.287-0.13,0.43c-0.048,0.155-0.098,0.311-0.146,0.467c-0.007,0.021,0.004,0.047,0.024,0.059
				c0.025,0.015,0.057,0.006,0.071-0.02c0.166-0.263,0.317-0.533,0.456-0.812c0.133-0.269,0.25-0.544,0.356-0.826
				c0,0-0.003-0.002-0.005,0c-0.12,0.271-0.253,0.54-0.398,0.8c-0.09,0.158-0.184,0.314-0.284,0.468
				c0.012-0.035,0.023-0.07,0.034-0.106c0.055-0.168,0.109-0.335,0.163-0.505c0.101-0.323,0.198-0.649,0.292-0.976
				c0.094-0.326,0.183-0.655,0.269-0.983c0.087-0.33,0.17-0.658,0.251-0.989c0.161-0.662,0.308-1.326,0.447-1.994
				c0.07-0.333,0.137-0.668,0.202-1.001c0.065-0.336,0.126-0.671,0.188-1.007c0.053-0.296,0.108-0.59,0.162-0.886
				c0.057-0.309,0.111-0.617,0.164-0.927c0.107-0.617,0.211-1.235,0.313-1.855c0.204-1.232,0.404-2.465,0.612-3.699
				C25.771,20.293,25.77,20.292,25.767,20.293L25.767,20.293"/>
			<path d="M28.578,20.695c-0.253,1.059-0.531,2.113-0.814,3.166c-0.308,1.156-0.625,2.31-0.927,3.465
				c-0.067,0.257-0.135,0.514-0.2,0.771c-0.065,0.255-0.129,0.509-0.193,0.766c-0.129,0.499-0.253,0.999-0.37,1.499
				c-0.06,0.242-0.115,0.486-0.17,0.729c-0.054,0.236-0.105,0.473-0.154,0.71c-0.094,0.447-0.181,0.897-0.25,1.352
				c0,0.003,0.003,0.004,0.003,0.001c0.051-0.25,0.102-0.5,0.154-0.748c0.054-0.263,0.111-0.526,0.168-0.786
				c0.06-0.271,0.119-0.544,0.183-0.814c0.063-0.279,0.13-0.558,0.197-0.837c0.069-0.284,0.14-0.569,0.209-0.855
				c0.071-0.289,0.146-0.577,0.22-0.866c0.152-0.585,0.305-1.167,0.459-1.751c0.268-1.009,0.538-2.017,0.801-3.029
				c0.239-0.92,0.475-1.842,0.69-2.769c0-0.001-0.001-0.002-0.003-0.002C28.58,20.694,28.578,20.694,28.578,20.695"/>
			<path d="M29.783,22.167c-0.326,1.245-0.723,2.468-1.098,3.697c-0.095,0.316-0.19,0.633-0.28,0.953
				c-0.09,0.317-0.172,0.637-0.255,0.958c-0.161,0.633-0.306,1.271-0.423,1.912c-0.096,0.527-0.174,1.057-0.221,1.591
				c0,0.002,0.006,0.002,0.006,0c0.046-0.312,0.101-0.62,0.16-0.929c0.062-0.315,0.13-0.629,0.202-0.941
				c0.151-0.638,0.321-1.271,0.498-1.901c0.09-0.318,0.185-0.635,0.272-0.953c0.091-0.318,0.179-0.636,0.269-0.955
				c0.175-0.626,0.348-1.254,0.511-1.886c0.132-0.512,0.255-1.026,0.364-1.543c0-0.002,0-0.003-0.003-0.003L29.783,22.167"/>
			<path d="M28.934,30.376c0-0.002,0-0.003,0-0.004C28.934,30.373,28.934,30.374,28.934,30.376 M31.124,22.705
				c-0.102,0.34-0.215,0.676-0.33,1.011c-0.145,0.421-0.292,0.84-0.438,1.258c-0.166,0.472-0.328,0.943-0.483,1.419
				c-0.162,0.492-0.314,0.99-0.455,1.49c-0.091,0.325-0.174,0.652-0.25,0.982c-0.076,0.324-0.145,0.648-0.201,0.977
				c-0.05,0.289-0.087,0.578-0.109,0.871c-0.021,0.276-0.028,0.554-0.01,0.831c0,0.003,0.002,0.003,0.002,0
				c-0.003-0.394,0.031-0.785,0.084-1.175c0,0,0,0,0,0.002c0.03-0.229,0.069-0.458,0.112-0.686c0.046-0.24,0.095-0.48,0.151-0.718
				c0.117-0.501,0.253-0.996,0.396-1.49c0.283-0.963,0.597-1.917,0.917-2.87c0.117-0.349,0.234-0.697,0.351-1.047
				c0.093-0.285,0.185-0.569,0.267-0.855l-0.001-0.004C31.127,22.702,31.124,22.703,31.124,22.705"/>
			<path d="M32.329,25.383c-0.167,0.534-0.335,1.065-0.501,1.599c-0.124,0.391-0.245,0.784-0.359,1.18
				c-0.102,0.36-0.199,0.724-0.293,1.089c-0.052,0.207-0.102,0.415-0.153,0.625c-0.057,0.242-0.114,0.485-0.167,0.73
				c0,0.003,0.004,0.004,0.004,0.001c0.065-0.231,0.13-0.463,0.194-0.694c0.056-0.207,0.114-0.415,0.174-0.622
				c0.104-0.361,0.211-0.724,0.316-1.085c0.115-0.392,0.228-0.785,0.337-1.179c0.153-0.547,0.305-1.094,0.452-1.644
				c0.002-0.001-0.001-0.003-0.001-0.003S32.329,25.38,32.329,25.383"/>
			<path d="M30.722,18.819c-0.06,0.058-0.121,0.113-0.188,0.165l0.002-0.001c-0.104,0.079-0.21,0.15-0.324,0.215
				c-0.129,0.073-0.263,0.135-0.398,0.192c0.002-0.002,0.006-0.003,0.009-0.004c-0.467,0.194-0.959,0.319-1.451,0.43
				c-0.502,0.114-1.009,0.21-1.512,0.333c-0.112,0.027-0.223,0.057-0.334,0.088c-0.145,0.04-0.287,0.087-0.43,0.131
				c-0.32,0.103-0.641,0.208-0.959,0.316c-0.636,0.218-1.267,0.449-1.894,0.69c-0.226,0.085-0.451,0.173-0.674,0.263
				c-0.226,0.089-0.45,0.182-0.672,0.275c-0.46,0.192-0.918,0.389-1.375,0.584c-0.911,0.394-1.818,0.792-2.732,1.176
				c0.009-0.004,0.017-0.006,0.025-0.01c-1.221,0.515-2.45,1.01-3.699,1.451c-0.002,0.001-0.001,0.004,0.001,0.004
				c1.294-0.372,2.568-0.81,3.83-1.279c1.257-0.467,2.501-0.963,3.747-1.458c0.311-0.124,0.623-0.248,0.935-0.375
				c0.312-0.125,0.623-0.252,0.933-0.378c0.625-0.25,1.252-0.498,1.884-0.734c0.314-0.119,0.633-0.234,0.952-0.348
				c0.228-0.082,0.461-0.153,0.696-0.22c0.499-0.139,1.005-0.262,1.502-0.407c0.41-0.12,0.817-0.256,1.203-0.439
				c0.345-0.162,0.673-0.371,0.926-0.658c0.002-0.001,0-0.003,0-0.003S30.722,18.818,30.722,18.819"/>
			<path d="M32.288,31.277c-0.009,0.004-0.016,0.008-0.025,0.01C32.272,31.283,32.279,31.281,32.288,31.277 M36.101,29.543
				c-0.058,0.005-0.116,0.009-0.175,0.015c-0.151,0.016-0.302,0.037-0.45,0.059c-0.253,0.036-0.504,0.087-0.753,0.144
				c-0.519,0.122-1.029,0.285-1.529,0.472c-0.274,0.103-0.548,0.216-0.817,0.332c-0.262,0.11-0.519,0.229-0.773,0.351
				c-0.523,0.249-1.037,0.518-1.544,0.797c-1.024,0.563-2.023,1.17-3.024,1.773c-0.479,0.289-0.959,0.577-1.443,0.858
				c-0.454,0.264-0.912,0.52-1.377,0.762c-0.131,0.067-0.262,0.134-0.394,0.2c-0.151,0.079-0.301,0.16-0.452,0.241
				c-0.295,0.163-0.588,0.334-0.876,0.512c-0.571,0.352-1.127,0.729-1.679,1.109c-0.002,0.002-0.001,0.006,0.003,0.005
				c0.532-0.321,1.068-0.637,1.614-0.933c0.274-0.147,0.55-0.29,0.829-0.427c0.292-0.143,0.589-0.279,0.887-0.41
				c0.478-0.208,0.945-0.436,1.408-0.671c0.496-0.252,0.987-0.514,1.478-0.777c0.86-0.467,1.72-0.94,2.584-1.395
				c0.861-0.45,1.732-0.883,2.625-1.262c0.549-0.231,1.105-0.441,1.675-0.617c-0.501,0.254-1,0.508-1.499,0.763
				c-1.224,0.622-2.445,1.25-3.668,1.872c-2.455,1.246-4.917,2.475-7.413,3.634c-0.353,0.164-0.705,0.327-1.058,0.486
				c-0.003,0.001,0,0.004,0.001,0.004c1.286-0.493,2.561-1.013,3.827-1.553c1.269-0.54,2.53-1.101,3.784-1.676
				c1.252-0.572,2.497-1.156,3.74-1.745c0.625-0.293,1.245-0.591,1.867-0.886c0.623-0.297,1.247-0.595,1.869-0.89
				c0.176-0.084,0.351-0.166,0.523-0.249c0.189-0.089,0.376-0.18,0.563-0.267c0.051-0.031,0.093-0.071,0.124-0.124
				c0.047-0.079,0.06-0.175,0.033-0.266c-0.015-0.058-0.044-0.108-0.088-0.15c-0.022-0.019-0.046-0.037-0.069-0.054
				c-0.053-0.032-0.11-0.048-0.173-0.048C36.221,29.536,36.162,29.538,36.101,29.543"/>
			<path d="M34.74,27.3c0-0.003,0-0.007-0.002-0.01c-0.004-0.007-0.009-0.016-0.01-0.023C34.732,27.278,34.737,27.288,34.74,27.3
				 M28.713,18.018c0.63,1.189,1.304,2.35,1.993,3.504c0.697,1.168,1.411,2.324,2.116,3.484c0.487,0.803,0.973,1.606,1.445,2.417
				c0.233,0.396,0.462,0.795,0.691,1.196c0.113,0.199,0.226,0.4,0.337,0.602c0.119,0.212,0.235,0.424,0.35,0.64
				c0.018,0.029,0.041,0.054,0.07,0.07c0.047,0.027,0.101,0.034,0.151,0.021s0.095-0.046,0.12-0.091
				c0.026-0.046,0.034-0.102,0.021-0.152c-0.035-0.139-0.073-0.278-0.111-0.417c-0.021-0.07-0.041-0.14-0.062-0.209
				c-0.023-0.082-0.052-0.161-0.078-0.242c-0.096-0.29-0.202-0.576-0.313-0.861c-0.23-0.583-0.49-1.154-0.768-1.718
				c-0.282-0.569-0.586-1.13-0.899-1.683c-0.317-0.559-0.647-1.113-0.983-1.661c-0.489-0.808-0.992-1.608-1.488-2.415
				c-0.476-0.775-0.943-1.556-1.381-2.352c-0.003-0.002-0.007-0.001-0.006,0.001c0.552,1.11,1.161,2.192,1.771,3.272
				c0.632,1.118,1.271,2.233,1.863,3.374c0.42,0.807,0.82,1.629,1.176,2.469c-0.002-0.001-0.003-0.006-0.003-0.009
				c0.003,0.012,0.007,0.022,0.013,0.032c0.002,0.006,0.003,0.01,0.006,0.015c-0.001-0.003-0.001-0.004-0.004-0.005
				c0.09,0.212,0.177,0.425,0.258,0.641c-0.006-0.013-0.015-0.024-0.021-0.038c-0.348-0.582-0.703-1.162-1.064-1.735
				c-0.725-1.152-1.47-2.293-2.213-3.435c-0.509-0.783-1.019-1.568-1.521-2.356c-0.496-0.78-0.984-1.567-1.46-2.359
				c-0.003-0.003-0.003-0.003-0.003-0.003C28.713,18.014,28.713,18.017,28.713,18.018"/>
			<path d="M31.004,14.121c0-0.001,0.002-0.002,0.002-0.003c0.001-0.003,0.004-0.007,0.005-0.011
				C31.009,14.111,31.007,14.117,31.004,14.121 M31.666,12.405c-0.029,0.017-0.049,0.044-0.058,0.075
				c-0.173,0.552-0.373,1.094-0.598,1.626c0.002-0.003,0.003-0.008,0.005-0.011c-0.003,0.008-0.006,0.016-0.01,0.022
				c0,0-0.002,0.003-0.002,0.005v-0.002c-0.303,0.714-0.647,1.41-1.014,2.094c-0.369,0.696-0.758,1.38-1.143,2.069
				c-0.002,0.003,0.002,0.004,0.002,0.003c0.587-0.913,1.173-1.826,1.696-2.774c0.059-0.104,0.114-0.209,0.171-0.314
				c-0.041,0.098-0.08,0.194-0.122,0.292c0.003-0.005,0.003-0.009,0.006-0.013c-0.165,0.39-0.333,0.777-0.501,1.167
				c-0.155,0.366-0.308,0.732-0.448,1.104c-0.002,0.003,0.004,0.004,0.004,0.001c0.189-0.414,0.394-0.821,0.598-1.228
				c0.218-0.435,0.436-0.87,0.643-1.309c0.205-0.437,0.397-0.882,0.567-1.334c0.162-0.433,0.298-0.877,0.389-1.331
				c0.001-0.01,0.002-0.022,0.004-0.034c0-0.023-0.006-0.044-0.018-0.063c-0.017-0.028-0.043-0.049-0.075-0.057
				c-0.012-0.004-0.022-0.005-0.032-0.005C31.707,12.389,31.685,12.395,31.666,12.405"/>
			<path d="M37.686,23.106c-0.347,0.896-0.659,1.809-0.975,2.717c-0.16,0.456-0.321,0.911-0.489,1.363
				c-0.036,0.104-0.076,0.207-0.113,0.308c0.101-0.348,0.201-0.694,0.3-1.042c0.259-0.923,0.496-1.857,0.613-2.811
				c0-0.002-0.004-0.002-0.004,0c-0.089,0.461-0.2,0.917-0.327,1.37c-0.133,0.469-0.28,0.934-0.432,1.398
				c-0.152,0.467-0.31,0.931-0.458,1.398c-0.147,0.466-0.287,0.934-0.404,1.408c-0.013,0.052,0.008,0.107,0.054,0.134
				c0.029,0.015,0.061,0.021,0.091,0.012c0.012-0.004,0.021-0.009,0.029-0.012c0.018-0.012,0.032-0.024,0.044-0.044
				c0.052-0.113,0.104-0.228,0.155-0.343c0.055-0.125,0.106-0.252,0.16-0.381c0.1-0.249,0.194-0.5,0.289-0.753
				c0.191-0.525,0.362-1.058,0.527-1.591c0.321-1.042,0.611-2.095,0.945-3.131c0-0.003,0-0.003-0.003-0.003
				C37.688,23.105,37.688,23.105,37.686,23.106"/>
			<path d="M14.249,24.58c0.485,1.237,0.978,2.473,1.471,3.704c0.246,0.613,0.492,1.227,0.738,1.839
				c0.126,0.313,0.251,0.626,0.377,0.939c0.063,0.156,0.126,0.313,0.19,0.471c0.06,0.147,0.119,0.298,0.183,0.446
				c0.249,0.606,0.504,1.212,0.758,1.817c0.256,0.61,0.512,1.22,0.769,1.83c0.515,1.228,1.027,2.456,1.541,3.687
				c0.001,0.001,0.005,0.001,0.004-0.001c-0.446-1.323-0.926-2.632-1.424-3.937c-0.25-0.654-0.506-1.309-0.767-1.962
				c-0.261-0.651-0.524-1.302-0.799-1.947c-0.243-0.57-0.489-1.136-0.738-1.703c-0.254-0.579-0.508-1.158-0.763-1.735
				c-0.509-1.153-1.023-2.301-1.536-3.449c0-0.001-0.001-0.001-0.001-0.001C14.249,24.578,14.248,24.579,14.249,24.58"/>
			<path d="M14.138,23.765c0,0.001,0,0.002-0.001,0.005C14.137,23.769,14.138,23.768,14.138,23.765L14.138,23.765 M14.716,20.63
				c-0.001,0.007-0.002,0.014-0.004,0.022C14.714,20.644,14.715,20.637,14.716,20.63 M15.317,19.684
				c-0.061,0.208-0.122,0.419-0.183,0.627c0.001-0.038,0.003-0.074,0.003-0.112c0-0.072-0.004-0.146-0.008-0.22
				c-0.003-0.039-0.006-0.081-0.004-0.119c0.001-0.007,0.003-0.013,0.004-0.019c0.003-0.006,0.006-0.01,0.01-0.015
				c0.021-0.025,0.046-0.047,0.072-0.068C15.245,19.733,15.282,19.708,15.317,19.684 M31.66,13.594
				c-1.322,0.388-2.618,0.859-3.918,1.31c-0.65,0.227-1.304,0.447-1.963,0.652c-0.28,0.088-0.562,0.171-0.846,0.252
				c-0.253,0.071-0.508,0.141-0.763,0.209c-1.094,0.289-2.196,0.552-3.288,0.85c-0.559,0.151-1.114,0.315-1.663,0.493
				c-0.271,0.088-0.539,0.18-0.805,0.279c-0.269,0.098-0.535,0.205-0.799,0.316c-0.488,0.208-0.967,0.438-1.427,0.703
				c-0.216,0.123-0.424,0.258-0.634,0.39c-0.142,0.089-0.286,0.179-0.425,0.271c-0.044,0.028-0.086,0.061-0.128,0.092
				c-0.045,0.034-0.089,0.068-0.129,0.108c-0.01,0.01-0.021,0.021-0.03,0.034c-0.019,0.022-0.037,0.044-0.052,0.068
				c-0.006,0.01-0.013,0.021-0.018,0.033c-0.012,0.026-0.024,0.054-0.032,0.082c-0.003,0.012-0.006,0.023-0.008,0.035
				c-0.004,0.029-0.008,0.058-0.01,0.084c-0.001,0.031,0,0.062,0.003,0.093c0.005,0.084,0.013,0.168,0.015,0.252
				c0.003,0.139-0.006,0.276-0.023,0.413c-0.033,0.239-0.087,0.476-0.151,0.71c-0.087,0.322-0.205,0.636-0.321,0.948
				c-0.108,0.292-0.213,0.586-0.29,0.89c-0.083,0.328-0.125,0.666-0.122,1.003c0.002,0.062,0.042,0.119,0.103,0.136
				c0.035,0.009,0.075,0.003,0.107-0.015c0.009-0.008,0.019-0.015,0.028-0.022c0.017-0.017,0.029-0.038,0.036-0.061
				c0.151-0.391,0.283-0.79,0.405-1.192c0.127-0.412,0.24-0.829,0.349-1.246c0.18-0.699,0.339-1.403,0.499-2.106
				c0.056-0.037,0.112-0.071,0.169-0.106c0.085-0.053,0.173-0.105,0.259-0.157c0.119-0.07,0.236-0.143,0.354-0.213
				c0.481-0.286,0.989-0.529,1.504-0.746c0.504-0.211,1.017-0.399,1.533-0.577c0.547-0.188,1.098-0.36,1.651-0.526
				c1.088-0.325,2.186-0.619,3.276-0.94c0.521-0.153,1.04-0.316,1.555-0.493c0.652-0.224,1.3-0.469,1.943-0.722
				c0.643-0.251,1.283-0.511,1.923-0.765c0.644-0.257,1.288-0.507,1.938-0.743c0.066-0.023,0.131-0.047,0.198-0.07
				c0.001-0.001,0-0.005-0.001-0.005H31.66"/>
			<path d="M34.589,18.941L34.589,18.941L34.589,18.941C34.588,18.94,34.589,18.94,34.589,18.941 M34.583,19.595
				c0,0,0.001,0,0.003-0.001C34.584,19.593,34.583,19.595,34.583,19.595 M34.995,19.627c0-0.001-0.001-0.004-0.003-0.007
				C34.994,19.623,34.995,19.625,34.995,19.627 M33.845,20.291c-0.001,0.001-0.001,0.002-0.001,0.003
				c0-0.002,0.003-0.003,0.003-0.007C33.847,20.288,33.847,20.29,33.845,20.291 M35.179,20.296c0,0,0-0.004,0-0.005l0,0
				c0,0.001,0,0.003,0,0.003 M33.963,20.848l0.002,0.001C33.965,20.849,33.963,20.848,33.963,20.848
				C33.962,20.847,33.962,20.847,33.963,20.848 M33.938,18.287c0.121,0.097,0.237,0.201,0.35,0.311
				c0.108,0.109,0.208,0.223,0.301,0.342v-0.001c0,0.001,0,0.001,0,0.001c0.001,0.001,0.001,0.001,0.001,0.001l0,0
				c0.078,0.103,0.151,0.208,0.219,0.318c0.07,0.116,0.13,0.237,0.185,0.361c0-0.001-0.001-0.003-0.003-0.006
				c0.044,0.106,0.083,0.215,0.117,0.327c0.032,0.114,0.055,0.232,0.072,0.35l0,0l0,0c0,0.006,0.003,0.013,0.003,0.018
				c-0.002-0.004-0.003-0.009-0.003-0.013c0.013,0.102,0.018,0.206,0.018,0.31c0.002,0.102-0.006,0.204-0.019,0.303
				c0.001-0.001,0.001-0.001,0.001-0.003c-0.013,0.089-0.031,0.174-0.052,0.261c-0.018,0.073-0.039,0.145-0.062,0.216
				c-0.152-0.047-0.303-0.1-0.451-0.162c-0.108-0.046-0.215-0.098-0.318-0.155c-0.114-0.063-0.226-0.136-0.33-0.217
				c0.003,0.002,0.006,0.005,0.008,0.008c-0.002-0.004-0.008-0.007-0.01-0.01c-0.001-0.001-0.002-0.001-0.002-0.001h0.001
				c-0.038-0.031-0.076-0.062-0.114-0.096c-0.032-0.03-0.064-0.061-0.095-0.093c0-0.009,0.002-0.017,0.002-0.026
				c0.008-0.06,0.021-0.119,0.035-0.178c0.015-0.054,0.033-0.107,0.054-0.16l-0.002,0.002c0.002-0.002,0.002-0.003,0.003-0.005
				c0.002-0.002,0.002-0.004,0.002-0.006c0,0.001,0,0.002,0,0.002c0.018-0.042,0.039-0.084,0.062-0.126
				c0.025-0.049,0.06-0.097,0.095-0.142c-0.002,0.002-0.004,0.005-0.007,0.007c0.032-0.04,0.064-0.078,0.1-0.112
				c0.041-0.042,0.085-0.079,0.131-0.115c0.05-0.037,0.103-0.071,0.155-0.103c0.063-0.038,0.131-0.07,0.201-0.101h-0.002
				c0.098-0.041,0.195-0.074,0.294-0.103c0.004,0,0.003-0.005,0-0.003c-0.082,0.016-0.164,0.038-0.243,0.062
				c-0.067,0.02-0.133,0.045-0.195,0.073c-0.069,0.028-0.133,0.063-0.196,0.1c-0.055,0.032-0.104,0.069-0.153,0.109
				c-0.101,0.08-0.184,0.178-0.257,0.284c-0.07,0.111-0.121,0.234-0.157,0.359c-0.011,0.035-0.019,0.07-0.024,0.105
				c-0.005,0.019-0.008,0.037-0.009,0.055c-0.003,0.013-0.006,0.028-0.009,0.042c0,0.029,0.021,0.047,0.039,0.066
				c0.028,0.033,0.058,0.065,0.088,0.096c0.062,0.062,0.13,0.119,0.198,0.173c0.066,0.051,0.137,0.099,0.207,0.145
				c0.148,0.095,0.309,0.176,0.471,0.245c0.151,0.063,0.304,0.118,0.462,0.162c0.021,0.006,0.044,0.002,0.062-0.008
				c0.021-0.011,0.032-0.029,0.039-0.051c0.028-0.076,0.053-0.152,0.073-0.23c0.021-0.075,0.035-0.152,0.047-0.229
				c0.026-0.157,0.035-0.314,0.029-0.472c-0.005-0.155-0.028-0.308-0.063-0.457c-0.03-0.146-0.081-0.292-0.141-0.43
				c-0.03-0.069-0.062-0.135-0.095-0.2c-0.035-0.066-0.073-0.13-0.111-0.193c-0.083-0.131-0.177-0.254-0.275-0.372
				c-0.209-0.245-0.456-0.458-0.721-0.641v-0.001C33.938,18.281,33.936,18.285,33.938,18.287"/>
			<path d="M33.87,17.995L33.87,17.995c0.001-0.001,0.001-0.003,0.002-0.004C33.871,17.992,33.87,17.994,33.87,17.995
				 M34.472,12.792c-0.026,0.596-0.03,1.19-0.05,1.787c-0.008,0.303-0.023,0.608-0.044,0.913c-0.022,0.3-0.047,0.599-0.087,0.898
				c0.001-0.006,0.001-0.012,0.001-0.017c-0.036,0.272-0.086,0.542-0.152,0.809c-0.069,0.276-0.158,0.547-0.268,0.809l0,0
				c0,0.001-0.001,0.003-0.002,0.004l0,0l0,0c-0.062,0.144-0.128,0.285-0.201,0.422c-0.002,0.003,0.002,0.004,0.004,0.003
				c0.064-0.104,0.124-0.208,0.181-0.315c0.058-0.106,0.107-0.214,0.156-0.324c0.091-0.21,0.167-0.425,0.232-0.644
				c0.134-0.454,0.211-0.923,0.256-1.393c0.021-0.241,0.03-0.484,0.032-0.727c0.006-0.244,0.003-0.487-0.003-0.731
				c-0.012-0.499-0.038-0.996-0.052-1.494c0-0.001-0.001-0.001-0.001-0.001C34.474,12.791,34.472,12.791,34.472,12.792"/>
			<path d="M35.411,20.831c0.397,0.143,0.795,0.289,1.191,0.431c0.413,0.146,0.827,0.291,1.247,0.415
				c0.104,0.032,0.207,0.062,0.313,0.088c0.104,0.03,0.21,0.055,0.316,0.083c0.212,0.052,0.424,0.099,0.637,0.141
				c0.412,0.083,0.832,0.145,1.25,0.183c0.003,0,0.004-0.004,0.001-0.005c-0.199-0.031-0.397-0.068-0.596-0.11
				c-0.212-0.044-0.423-0.094-0.635-0.146c-0.421-0.106-0.838-0.233-1.254-0.357c-0.197-0.06-0.395-0.116-0.591-0.174
				c-0.207-0.062-0.417-0.125-0.628-0.187c-0.416-0.125-0.832-0.248-1.252-0.364l0,0C35.409,20.827,35.409,20.831,35.411,20.831"/>
		</g>
	</g>
</g>
</svg>
