<?xml version="1.0" encoding="utf-8"?>
<!-- Generator: Adobe Illustrator 14.0.0, SVG Export Plug-In . SVG Version: 6.00 Build 43363)  -->
<!DOCTYPE svg PUBLIC "-//W3C//DTD SVG 1.1//EN" "http://www.w3.org/Graphics/SVG/1.1/DTD/svg11.dtd">
<svg version="1.1" id="Layer_1" xmlns="http://www.w3.org/2000/svg" xmlns:xlink="http://www.w3.org/1999/xlink" x="0px" y="0px"
	 width="50px" height="50px" viewBox="0 0 50 50" enable-background="new 0 0 50 50" xml:space="preserve">
<g id="CAMERA_ACTIVE_1_">
	<g id="CAMERA_4_">
		<g>
			<path d="M5.389,25.965c0.901,2.048,1.874,4.061,2.884,6.057c0.507,1.001,1.024,1.997,1.547,2.995
				c0.26,0.498,0.523,0.996,0.787,1.489c0.264,0.496,0.536,0.991,0.805,1.481c0.884,1.605,1.771,3.215,2.628,4.833
				c0.846,1.604,1.661,3.225,2.43,4.864c0.002,0.005,0.007,0.004,0.007-0.001c-0.794-2.056-1.697-4.066-2.649-6.054
				c-0.486-1.01-0.987-2.013-1.496-3.011c-0.254-0.5-0.513-0.998-0.774-1.495c-0.262-0.496-0.532-0.991-0.803-1.483
				c-0.89-1.612-1.801-3.21-2.701-4.814c-0.905-1.615-1.799-3.229-2.659-4.862c0-0.003-0.002-0.003-0.002-0.003
				C5.389,25.961,5.386,25.964,5.389,25.965"/>
			<path d="M33.092,12.884c-1.727,0.999-3.5,1.928-5.297,2.802c-1.866,0.907-3.759,1.754-5.666,2.573
				c-0.336,0.143-0.669,0.285-1.007,0.428c-0.473,0.199-0.946,0.395-1.418,0.592c-0.24,0.102-0.477,0.2-0.714,0.301
				c-0.115,0.049-0.232,0.098-0.35,0.145c-0.018,0.009-0.032,0.015-0.05,0.025c-0.003,0-0.008,0.001-0.01,0.003
				c-0.018,0.005-0.038,0.013-0.053,0.021c-0.112,0.048-0.224,0.095-0.336,0.142c-0.485,0.205-0.972,0.407-1.457,0.613
				c-1.935,0.806-3.872,1.6-5.812,2.393c-1.922,0.786-3.84,1.573-5.754,2.373c-0.005,0.003-0.003,0.008,0.001,0.007
				c1.912-0.66,3.825-1.316,5.731-1.994c1.965-0.699,3.924-1.418,5.868-2.173c0.49-0.19,0.979-0.387,1.467-0.581
				c0.178-0.072,0.357-0.145,0.533-0.217c0.019-0.005,0.036-0.013,0.054-0.021c0.295-0.122,0.591-0.244,0.887-0.37
				c0.966-0.412,1.922-0.841,2.874-1.281c1.873-0.866,3.725-1.788,5.541-2.778c1.7-0.926,3.363-1.917,4.972-2.998
				c0.004,0,0-0.007,0-0.007S33.096,12.882,33.092,12.884"/>
			<path d="M43.291,32.39c-1.025,0.47-2.054,0.939-3.079,1.4c-1.025,0.462-2.053,0.919-3.081,1.372
				c-2.045,0.908-4.098,1.807-6.142,2.726c-0.509,0.231-1.018,0.463-1.526,0.695c-0.507,0.234-1.01,0.476-1.515,0.716
				c-1.009,0.483-2.01,0.976-3.009,1.479c-1,0.506-1.997,1.021-2.982,1.549c-0.497,0.266-0.992,0.529-1.483,0.804
				c-0.492,0.274-0.981,0.555-1.468,0.837c-1.081,0.626-2.146,1.274-3.199,1.941c-0.005,0.003,0,0.008,0.002,0.003
				c0.998-0.54,2.002-1.069,3.012-1.585c0.504-0.26,1.009-0.513,1.515-0.762c0.243-0.123,0.485-0.241,0.726-0.363
				c0.263-0.131,0.524-0.261,0.787-0.392c2.015-0.983,4.045-1.936,6.083-2.878c0.508-0.235,1.014-0.469,1.523-0.703
				c0.505-0.236,1.009-0.477,1.514-0.718c1.011-0.475,2.017-0.954,3.025-1.436c2.016-0.966,4.026-1.942,6.02-2.957
				c1.098-0.56,2.196-1.136,3.281-1.725c0.003-0.002,0-0.01-0.004-0.01V32.39"/>
			<path d="M34.298,15.626c0-0.005-0.003-0.009-0.005-0.013C34.295,15.617,34.298,15.621,34.298,15.626 M33.535,13.773
				c0.348,1.049,0.722,2.088,1.114,3.12c0.392,1.017,0.804,2.023,1.229,3.024c0.425,1.012,0.865,2.013,1.313,3.013
				c0.106,0.24,0.215,0.479,0.321,0.719c0.115,0.258,0.233,0.517,0.355,0.774c0.226,0.493,0.46,0.986,0.691,1.479
				c0.449,0.969,0.905,1.935,1.346,2.903c0.452,0.991,0.893,1.986,1.317,2.99c-0.004-0.007-0.004-0.013-0.008-0.02
				c0.334,0.792,0.656,1.589,0.965,2.389c0.003,0.004,0.01,0.001,0.008-0.002c-0.64-2.086-1.423-4.13-2.264-6.143
				c-0.427-1.021-0.872-2.033-1.325-3.044c-0.224-0.498-0.449-0.996-0.682-1.489c-0.233-0.493-0.469-0.985-0.7-1.478
				c-1.01-2.111-2.01-4.23-2.919-6.383l0,0c-0.26-0.616-0.511-1.234-0.755-1.854c0-0.002-0.003-0.002-0.003-0.002
				C33.537,13.771,33.535,13.772,33.535,13.773"/>
			<path d="M6.718,17.318c-0.131,0.601-0.255,1.203-0.373,1.806c-0.122,0.633-0.237,1.266-0.334,1.9
				c-0.045,0.306-0.084,0.612-0.122,0.919c-0.039,0.32-0.076,0.643-0.109,0.963c-0.068,0.649-0.124,1.297-0.171,1.95
				c0,0.001,0.006,0.002,0.006,0c0.089-0.623,0.182-1.243,0.278-1.863c0.048-0.319,0.099-0.64,0.15-0.959
				c0.049-0.32,0.101-0.64,0.148-0.961c0.044-0.297,0.085-0.593,0.126-0.891c0.045-0.32,0.09-0.639,0.133-0.957
				c0.091-0.637,0.181-1.271,0.273-1.907c0-0.002-0.002-0.004-0.005-0.004C6.719,17.316,6.718,17.316,6.718,17.318"/>
			<path d="M35.216,4.209c-0.027,0.006-0.052,0.022-0.067,0.04c-0.127,0.104-0.249,0.205-0.372,0.304
				c0.006-0.009,0.02-0.018,0.029-0.027c-0.246,0.189-0.499,0.366-0.758,0.531c-0.281,0.183-0.567,0.35-0.862,0.512
				c-0.605,0.329-1.229,0.618-1.864,0.887c0.021-0.005,0.034-0.015,0.054-0.02c-0.89,0.375-1.801,0.704-2.714,1.022
				c-0.444,0.156-0.894,0.308-1.34,0.462c-0.479,0.167-0.958,0.337-1.436,0.511c-0.54,0.193-1.08,0.393-1.617,0.594
				c-0.259,0.097-0.514,0.196-0.773,0.294c-0.279,0.107-0.555,0.217-0.833,0.326c-1.07,0.422-2.132,0.86-3.193,1.303
				c-2.119,0.888-4.227,1.801-6.331,2.723c-0.524,0.231-1.05,0.46-1.575,0.692c-0.526,0.23-1.053,0.459-1.576,0.691
				c-1.047,0.465-2.096,0.926-3.146,1.384c-0.335,0.146-0.673,0.291-1.01,0.435c-0.004,0.002,0,0.008,0.002,0.008
				c1.082-0.384,2.159-0.778,3.233-1.179c0.539-0.2,1.074-0.403,1.608-0.608c0.535-0.209,1.071-0.417,1.604-0.628
				c2.136-0.838,4.259-1.705,6.391-2.559c1.065-0.427,2.13-0.854,3.199-1.276c0.533-0.21,1.068-0.42,1.602-0.631
				c0.534-0.211,1.067-0.422,1.604-0.631c0.535-0.21,1.072-0.418,1.608-0.624c0.438-0.165,0.876-0.328,1.313-0.493
				c0.902-0.336,1.807-0.676,2.694-1.051c0.847-0.359,1.681-0.746,2.487-1.2c0.386-0.218,0.765-0.457,1.134-0.712
				c0.176-0.122,0.346-0.249,0.515-0.379c0.018-0.01,0.029-0.024,0.047-0.036c-0.145,0.33-0.286,0.656-0.438,0.984
				c-0.211,0.462-0.426,0.923-0.638,1.383c-0.417,0.909-0.817,1.822-1.147,2.765c-0.003,0.003,0.007,0.006,0.007,0.001
				c0.016-0.041,0.034-0.082,0.052-0.121l0,0c0.397-0.935,0.86-1.835,1.33-2.731c0.23-0.45,0.467-0.898,0.695-1.35
				c0.11-0.216,0.22-0.433,0.323-0.651c0.112-0.239,0.222-0.48,0.327-0.719c0.018-0.023,0.021-0.049,0.021-0.077
				c0-0.042-0.017-0.08-0.042-0.106c-0.029-0.029-0.07-0.045-0.108-0.045C35.242,4.204,35.227,4.207,35.216,4.209"/>
			<path d="M36.197,5.352c0.894,2.072,1.904,4.095,2.954,6.089c0.128,0.24,0.253,0.48,0.385,0.718
				c0.139,0.257,0.281,0.512,0.425,0.77c0.271,0.491,0.544,0.981,0.819,1.472c0.547,0.978,1.086,1.957,1.609,2.947
				c0.229,0.433,0.454,0.866,0.679,1.302c0.002,0.005,0.009,0,0.005-0.002c-0.436-1.032-0.905-2.049-1.396-3.057
				c-0.487-1.011-1-2.014-1.524-3.012c-0.125-0.241-0.249-0.477-0.379-0.719c-0.14-0.254-0.281-0.512-0.427-0.77
				c-0.271-0.492-0.547-0.984-0.82-1.476c-0.551-0.985-1.101-1.965-1.633-2.958c-0.235-0.433-0.464-0.869-0.69-1.308
				c-0.005,0-0.005-0.002-0.005-0.002C36.197,5.346,36.195,5.35,36.197,5.352"/>
			<path d="M40.28,20.143l0.004,0.002C40.28,20.143,40.28,20.143,40.28,20.143L40.28,20.143 M38.417,18.163
				c0.007,0.014,0.014,0.026,0.019,0.041C38.431,18.19,38.424,18.177,38.417,18.163 M38.436,13.513
				c-0.354,0.551-0.576,1.181-0.686,1.825c-0.058,0.338-0.082,0.679-0.08,1.022c0.003,0.345,0.038,0.69,0.104,1.029
				c0.062,0.332,0.159,0.657,0.288,0.97c0.061,0.152,0.132,0.3,0.209,0.443c0.077,0.15,0.17,0.297,0.267,0.436
				c0.194,0.269,0.42,0.512,0.679,0.719c0.122,0.101,0.258,0.193,0.394,0.276c0.15,0.093,0.314,0.167,0.477,0.237
				c0.166,0.068,0.338,0.119,0.517,0.162c0.045,0.012,0.093,0.007,0.137-0.02c0.04-0.024,0.068-0.06,0.083-0.107
				c0.083-0.291,0.153-0.583,0.207-0.879c0.058-0.315,0.095-0.633,0.116-0.95c0.046-0.618,0.013-1.241-0.098-1.85
				c-0.103-0.59-0.302-1.165-0.59-1.69c-0.135-0.246-0.293-0.481-0.475-0.699c-0.197-0.247-0.428-0.471-0.679-0.667
				c-0.003-0.002-0.007,0.002-0.007,0.003c0.102,0.093,0.199,0.188,0.291,0.288c0.092,0.096,0.175,0.2,0.256,0.305
				c0-0.002,0-0.005-0.003-0.007c0.12,0.16,0.23,0.321,0.33,0.489c0.107,0.181,0.198,0.37,0.279,0.562
				c0.093,0.227,0.172,0.456,0.235,0.692c0.072,0.256,0.121,0.52,0.157,0.783c0-0.01-0.002-0.02-0.002-0.027
				c0.042,0.332,0.063,0.667,0.062,1.003c0,0.34-0.029,0.68-0.07,1.018l0,0c-0.063,0.459-0.166,0.913-0.302,1.358
				c-0.084-0.028-0.165-0.059-0.247-0.09c0.007,0.002,0.015,0.006,0.021,0.01c-0.009-0.004-0.016-0.008-0.024-0.013
				c-0.005-0.002-0.011-0.004-0.019-0.006c0.008,0.002,0.014,0.004,0.018,0.006c-0.112-0.049-0.225-0.104-0.334-0.167
				c-0.126-0.071-0.241-0.15-0.356-0.237c-0.11-0.089-0.213-0.182-0.318-0.28c-0.119-0.121-0.229-0.25-0.329-0.381
				c0.005,0.008,0.013,0.017,0.016,0.024c-0.103-0.141-0.202-0.289-0.291-0.443c-0.086-0.146-0.163-0.301-0.23-0.456
				c-0.088-0.208-0.16-0.422-0.22-0.641c-0.065-0.228-0.112-0.459-0.146-0.693c-0.063-0.502-0.065-1.011-0.001-1.513
				c0.025-0.219,0.071-0.436,0.126-0.648c0.057-0.214,0.129-0.425,0.213-0.63c-0.003,0.008-0.006,0.02-0.013,0.03
				c0.048-0.118,0.104-0.232,0.165-0.344c0.24,0.26,0.472,0.53,0.69,0.811c-0.005-0.006-0.009-0.011-0.014-0.017
				c0.222,0.291,0.434,0.593,0.633,0.905c0.196,0.313,0.372,0.637,0.539,0.969c0,0.005,0.009,0,0.004-0.002
				c-0.101-0.249-0.209-0.495-0.331-0.738c-0.136-0.274-0.285-0.542-0.443-0.804c-0.3-0.498-0.645-0.962-1.023-1.404
				c-0.02-0.021-0.054-0.032-0.081-0.032C38.49,13.455,38.456,13.477,38.436,13.513"/>
			<path d="M39.965,6.457c-0.196,0.616-0.362,1.241-0.512,1.869c-0.07,0.298-0.136,0.602-0.193,0.901
				c-0.066,0.323-0.124,0.646-0.179,0.971c-0.048,0.289-0.086,0.581-0.124,0.873c-0.043,0.328-0.079,0.656-0.117,0.984
				c-0.075,0.648-0.14,1.294-0.206,1.942c-0.002,0.002,0.007,0.005,0.007,0c0.111-0.618,0.215-1.237,0.313-1.86
				c0.103-0.627,0.207-1.258,0.308-1.889c0.051-0.303,0.095-0.607,0.147-0.909c0.049-0.326,0.104-0.653,0.162-0.976
				c0.117-0.637,0.248-1.273,0.399-1.901c0-0.002,0-0.004-0.005-0.004L39.965,6.457"/>
			<path d="M44.176,23.746c-0.176,0.658-0.313,1.327-0.432,1.996c-0.132,0.738-0.239,1.476-0.328,2.219
				c-0.023,0.178-0.038,0.354-0.057,0.535c-0.018,0.196-0.034,0.392-0.05,0.591c-0.034,0.39-0.065,0.781-0.098,1.172
				c-0.048,0.713-0.096,1.422-0.144,2.131c-0.003,0.005,0.005,0.008,0.005,0.003c0.171-1.157,0.313-2.321,0.452-3.48
				c0.034-0.297,0.072-0.597,0.105-0.895c0.033-0.312,0.064-0.626,0.099-0.941c0.062-0.604,0.131-1.208,0.211-1.808
				c0,0-0.001,0.002-0.001,0.005c0.07-0.511,0.147-1.019,0.242-1.525c0.002-0.002-0.003-0.004-0.003-0.004
				S44.176,23.743,44.176,23.746"/>
			<path d="M42.18,16.877c0.174,0.472,0.357,0.939,0.541,1.404c0.198,0.497,0.396,0.992,0.596,1.484
				c0.095,0.228,0.188,0.454,0.281,0.678c0.103,0.245,0.199,0.493,0.294,0.737c0.186,0.479,0.356,0.967,0.505,1.458
				c0,0.006,0.009,0.004,0.005,0c-0.104-0.481-0.236-0.957-0.386-1.423c-0.16-0.505-0.344-1.002-0.539-1.492
				c-0.095-0.234-0.198-0.463-0.301-0.695c-0.107-0.243-0.219-0.484-0.332-0.728c-0.215-0.476-0.438-0.949-0.656-1.426
				c0-0.002-0.003-0.002-0.003-0.002C42.183,16.872,42.18,16.875,42.18,16.877"/>
			<path d="M38.859,13.549c-0.305,0.329-0.624,0.642-0.956,0.94c-0.168,0.149-0.338,0.294-0.507,0.439
				c-0.17,0.141-0.343,0.281-0.519,0.417l0.002-0.002c-0.291,0.224-0.596,0.439-0.903,0.643c-0.007,0.002,0,0.009,0.004,0.005
				c0.54-0.3,1.057-0.641,1.532-1.033c0.126-0.103,0.246-0.213,0.365-0.324c0.117-0.112,0.23-0.226,0.343-0.343
				c0.227-0.235,0.439-0.483,0.641-0.739c0.003-0.002,0-0.006-0.002-0.006C38.859,13.547,38.859,13.547,38.859,13.549"/>
			<path d="M42.183,19.532c-0.464,0.305-0.93,0.597-1.402,0.883c-0.114,0.071-0.227,0.14-0.338,0.211
				c-0.133,0.079-0.266,0.16-0.396,0.241c-0.249,0.149-0.496,0.295-0.745,0.439c-0.004,0.002-0.004,0.007,0.003,0.005
				c0.52-0.246,1.032-0.513,1.523-0.815c0.244-0.15,0.48-0.313,0.716-0.48c0.22-0.154,0.431-0.313,0.644-0.477
				c0.002-0.002,0-0.007-0.003-0.007H42.183"/>
			<path d="M39.966,18.426c-0.001,0-0.004,0.004,0,0.005c2.111,0.578,4.197,1.224,6.303,1.82c0.91,0.259,1.824,0.512,2.745,0.733
				c-0.06-0.13-0.114-0.262-0.171-0.395c-1.053-0.253-2.1-0.512-3.146-0.776c-1.067-0.272-2.137-0.543-3.208-0.804
				c-0.836-0.204-1.678-0.401-2.519-0.583H39.966"/>
			<path d="M9.37,39.483c0.007,0,0.01,0.004,0.015,0.004C9.379,39.487,9.376,39.483,9.37,39.483 M6.748,36.951
				c0.004,0.01,0.01,0.02,0.014,0.029C6.757,36.971,6.752,36.961,6.748,36.951 M6.052,31.06c-0.129,0.523-0.2,1.057-0.234,1.592
				c-0.04,0.603-0.024,1.203,0.032,1.801c0.057,0.604,0.162,1.206,0.323,1.79c0.077,0.282,0.17,0.56,0.278,0.834
				c0.104,0.263,0.224,0.521,0.364,0.765c0.127,0.226,0.272,0.438,0.432,0.641c0.149,0.188,0.316,0.362,0.497,0.52
				c0.175,0.151,0.367,0.283,0.573,0.391c0.209,0.114,0.436,0.196,0.667,0.25c0.232,0.051,0.469,0.068,0.705,0.059
				c0.272-0.011,0.54-0.063,0.8-0.14c0.286-0.082,0.561-0.203,0.824-0.343c0.336-0.174,0.653-0.388,0.953-0.618
				c0.003,0,0-0.01-0.005-0.005c-0.353,0.226-0.719,0.433-1.106,0.597c0.004,0,0.007-0.004,0.011-0.005
				c-0.176,0.073-0.359,0.138-0.541,0.19c-0.168,0.049-0.338,0.082-0.511,0.106c0,0,0.002,0,0.004,0
				c-0.122,0.013-0.243,0.022-0.367,0.024c-0.122,0-0.243-0.005-0.365-0.021c-0.229-0.033-0.45-0.094-0.664-0.184
				c0.009,0.005,0.019,0.01,0.03,0.013c-0.212-0.09-0.408-0.206-0.591-0.345c-0.236-0.185-0.446-0.402-0.63-0.634
				c0,0,0,0,0.002,0.001c-0.317-0.417-0.562-0.881-0.77-1.358c-0.367-0.871-0.593-1.803-0.72-2.739
				c0.001,0.01,0.002,0.02,0.003,0.028c-0.066-0.503-0.104-1.005-0.109-1.513c-0.008-0.465,0.017-0.932,0.077-1.394
				c0,0,0,0.001,0,0.005c0.014-0.103,0.03-0.204,0.048-0.306c0-0.003-0.002-0.004-0.005-0.004
				C6.054,31.059,6.053,31.059,6.052,31.06"/>
			<path d="M8.713,23.969c-0.174,0.76-0.327,1.527-0.442,2.305c-0.025,0.162-0.044,0.329-0.064,0.493
				c-0.023,0.205-0.044,0.411-0.064,0.618c-0.04,0.411-0.071,0.824-0.097,1.238c0,0.002,0.009,0.004,0.009,0
				c0.052-0.387,0.106-0.772,0.164-1.159c0.055-0.385,0.115-0.771,0.174-1.161c0.027-0.181,0.049-0.363,0.074-0.547
				c0.027-0.206,0.055-0.413,0.083-0.62c0.053-0.391,0.109-0.777,0.169-1.167c0-0.005-0.003-0.005-0.003-0.005
				S8.713,23.965,8.713,23.969"/>
			<path d="M11.815,22.638c-0.225,0.656-0.453,1.312-0.67,1.969c-0.125,0.381-0.248,0.763-0.362,1.148
				c-0.124,0.409-0.24,0.823-0.344,1.237c-0.183,0.744-0.333,1.499-0.42,2.261c-0.037,0.329-0.059,0.657-0.059,0.99
				c0.001,0.272,0.022,0.552,0.083,0.818c0,0.005,0.005,0.002,0.005-0.003c-0.002-0.021-0.005-0.039-0.01-0.059l0,0
				c-0.028-0.225-0.03-0.456-0.024-0.681c0.01-0.268,0.039-0.538,0.074-0.805c-0.001,0.005-0.001,0.01-0.001,0.013
				c0.08-0.571,0.198-1.139,0.331-1.699c0.074-0.313,0.154-0.623,0.235-0.935c0.082-0.315,0.163-0.63,0.244-0.946
				c0.159-0.592,0.323-1.182,0.49-1.771c0.144-0.513,0.292-1.024,0.434-1.54c0-0.002,0-0.003-0.002-0.003
				C11.819,22.635,11.816,22.636,11.815,22.638"/>
			<path d="M12.48,23.746c-0.133,0.808-0.25,1.615-0.362,2.423c-0.057,0.41-0.113,0.82-0.17,1.235
				c-0.056,0.396-0.115,0.799-0.168,1.197c0.001-0.002,0.001-0.01,0.001-0.012c-0.105,0.777-0.213,1.558-0.348,2.331
				c-0.136,0.792-0.303,1.579-0.505,2.354c0,0.005,0.005,0.008,0.009,0.004c0.252-0.759,0.457-1.535,0.628-2.322
				c0.174-0.79,0.311-1.59,0.425-2.392c0.026-0.185,0.048-0.366,0.071-0.552c0.023-0.193,0.046-0.393,0.067-0.586
				c0.044-0.415,0.084-0.827,0.125-1.239c0.077-0.814,0.15-1.629,0.233-2.441c0.001-0.002,0-0.004-0.002-0.004
				C12.483,23.743,12.481,23.743,12.48,23.746"/>
			<path d="M15.14,22.416c-0.419,2.152-0.856,4.299-1.258,6.452c-0.051,0.266-0.099,0.527-0.146,0.788
				c-0.053,0.29-0.102,0.574-0.15,0.86c-0.094,0.549-0.184,1.097-0.272,1.647c-0.173,1.063-0.329,2.128-0.459,3.198
				c-0.043,0.356-0.082,0.714-0.121,1.073c0,0.015,0.012,0.028,0.023,0.032c0.018,0.004,0.033-0.008,0.04-0.022
				c0.123-0.315,0.238-0.633,0.357-0.949c0-0.004-0.005-0.006-0.006-0.004c-0.106,0.236-0.214,0.475-0.315,0.712
				c0.064-0.446,0.133-0.896,0.201-1.342c0.083-0.534,0.167-1.075,0.253-1.612c0.042-0.262,0.083-0.521,0.125-0.783
				c0.046-0.287,0.09-0.572,0.141-0.854c0.093-0.549,0.188-1.1,0.283-1.647c0.191-1.101,0.377-2.202,0.568-3.303
				c0.188-1.078,0.379-2.156,0.567-3.233c0.061-0.337,0.119-0.674,0.177-1.009c0-0.003-0.002-0.005-0.003-0.005L15.14,22.416"/>
			<path d="M18.241,20.42c-0.331,2.072-0.616,4.148-0.919,6.222c-0.312,2.119-0.645,4.237-1.06,6.339
				c-0.063,0.313-0.128,0.628-0.194,0.942c-0.067,0.313-0.138,0.623-0.21,0.935c-0.146,0.619-0.3,1.237-0.463,1.852
				c-0.082,0.306-0.166,0.609-0.256,0.916c-0.087,0.304-0.179,0.604-0.272,0.901c-0.094,0.303-0.19,0.604-0.289,0.899
				c-0.105,0.313-0.215,0.63-0.324,0.944c-0.001,0.003,0.005,0.005,0.007,0c0.194-0.481,0.37-0.977,0.536-1.469
				c0.167-0.501,0.316-0.999,0.464-1.506c0.296-1.02,0.548-2.048,0.776-3.086c0.229-1.045,0.435-2.094,0.623-3.146
				c0.188-1.054,0.354-2.116,0.512-3.179c0.374-2.518,0.69-5.045,1.078-7.563c0-0.002-0.003-0.004-0.003-0.004L18.241,20.42"/>
			<path d="M22.231,20.644c-0.542,2.204-1.128,4.399-1.708,6.594c-0.294,1.11-0.585,2.221-0.868,3.337
				c-0.282,1.116-0.55,2.233-0.812,3.353c-0.127,0.536-0.248,1.071-0.365,1.609c-0.118,0.536-0.228,1.074-0.335,1.611
				c-0.108,0.537-0.21,1.072-0.305,1.61c-0.095,0.535-0.185,1.072-0.261,1.61c0,0.004,0.007,0.006,0.007,0.001
				c0.104-0.554,0.206-1.11,0.315-1.665c0.106-0.557,0.22-1.115,0.334-1.672c0.116-0.562,0.239-1.117,0.363-1.676
				c0.125-0.562,0.253-1.121,0.384-1.678c0.13-0.561,0.267-1.118,0.403-1.676c0.14-0.559,0.279-1.116,0.418-1.675
				c0.279-1.114,0.563-2.229,0.848-3.34c0.542-2.113,1.084-4.225,1.589-6.344l-0.003-0.006
				C22.236,20.639,22.233,20.642,22.231,20.644"/>
			<path d="M24.893,16.653c-0.391,2.213-0.771,4.427-1.162,6.641c-0.199,1.106-0.398,2.217-0.608,3.325
				c-0.104,0.556-0.209,1.105-0.317,1.659c-0.109,0.553-0.223,1.104-0.339,1.658c-0.211,0.992-0.424,1.981-0.649,2.974
				c-0.229,1.012-0.471,2.018-0.724,3.022c-0.25,1.003-0.518,2.005-0.799,3c-0.138,0.498-0.282,0.996-0.429,1.491
				c-0.073,0.237-0.143,0.476-0.215,0.713c-0.08,0.257-0.162,0.514-0.243,0.771c-0.012,0.035,0.007,0.078,0.04,0.097
				c0.041,0.024,0.094,0.01,0.119-0.032c0.274-0.435,0.525-0.882,0.754-1.345c0.22-0.443,0.414-0.9,0.59-1.367
				c0,0-0.005-0.002-0.008,0c-0.199,0.45-0.419,0.895-0.66,1.324c-0.149,0.262-0.304,0.52-0.469,0.774
				c0.019-0.059,0.039-0.117,0.056-0.176c0.09-0.279,0.181-0.556,0.269-0.837c0.167-0.534,0.328-1.073,0.484-1.614
				c0.156-0.539,0.303-1.084,0.445-1.627c0.144-0.547,0.281-1.09,0.416-1.638c0.267-1.096,0.509-2.193,0.739-3.299
				c0.116-0.552,0.227-1.105,0.335-1.657c0.108-0.556,0.208-1.11,0.31-1.666c0.088-0.49,0.179-0.977,0.267-1.466
				c0.094-0.511,0.184-1.021,0.271-1.534c0.177-1.02,0.35-2.044,0.518-3.069c0.338-2.039,0.669-4.08,1.014-6.121
				c0.001-0.002,0-0.003-0.004-0.003l0,0"/>
			<path d="M29.545,17.318c-0.419,1.752-0.88,3.498-1.348,5.239c-0.509,1.914-1.034,3.823-1.534,5.735
				c-0.11,0.425-0.223,0.851-0.33,1.275c-0.108,0.421-0.214,0.842-0.321,1.267c-0.212,0.826-0.418,1.653-0.612,2.48
				c-0.099,0.401-0.19,0.805-0.281,1.205c-0.089,0.393-0.175,0.783-0.255,1.176c-0.156,0.739-0.299,1.485-0.414,2.236
				c0,0.005,0.005,0.007,0.005,0.002c0.083-0.414,0.167-0.828,0.255-1.238c0.089-0.435,0.184-0.871,0.278-1.301
				c0.099-0.448,0.197-0.9,0.302-1.348c0.105-0.462,0.215-0.923,0.327-1.386c0.115-0.469,0.231-0.941,0.346-1.415
				c0.119-0.479,0.243-0.955,0.363-1.434c0.253-0.968,0.505-1.931,0.761-2.897c0.442-1.67,0.891-3.338,1.325-5.013
				c0.396-1.522,0.785-3.049,1.143-4.582c0-0.002-0.003-0.004-0.005-0.004C29.549,17.316,29.545,17.316,29.545,17.318"/>
			<path d="M31.539,19.754c-0.54,2.061-1.196,4.083-1.816,6.118c-0.157,0.522-0.315,1.048-0.464,1.576
				c-0.148,0.524-0.284,1.054-0.422,1.586c-0.267,1.047-0.506,2.104-0.7,3.164c-0.158,0.872-0.287,1.748-0.364,2.633
				c0,0.003,0.01,0.003,0.01,0c0.076-0.518,0.166-1.026,0.265-1.537c0.103-0.522,0.216-1.04,0.335-1.559
				c0.25-1.055,0.531-2.102,0.824-3.146c0.148-0.527,0.306-1.051,0.45-1.577c0.15-0.527,0.296-1.052,0.445-1.581
				c0.288-1.037,0.574-2.076,0.845-3.121c0.219-0.848,0.421-1.698,0.603-2.554c0-0.003,0-0.005-0.005-0.005L31.539,19.754"/>
			<path d="M30.133,33.34c0-0.004,0-0.006,0-0.008C30.133,33.334,30.133,33.336,30.133,33.34 M33.758,20.644
				c-0.168,0.562-0.354,1.119-0.545,1.673c-0.24,0.696-0.484,1.39-0.725,2.083c-0.275,0.781-0.543,1.561-0.8,2.348
				c-0.27,0.814-0.521,1.639-0.753,2.467c-0.151,0.538-0.288,1.079-0.414,1.626c-0.127,0.536-0.239,1.072-0.333,1.615
				c-0.082,0.479-0.144,0.957-0.181,1.442c-0.036,0.457-0.048,0.916-0.016,1.376c0,0.005,0.002,0.005,0.002,0
				c-0.005-0.652,0.052-1.3,0.139-1.945c0,0,0,0,0,0.003c0.051-0.38,0.114-0.758,0.186-1.134c0.076-0.397,0.157-0.796,0.251-1.188
				c0.194-0.829,0.419-1.648,0.657-2.467c0.468-1.593,0.986-3.173,1.517-4.75c0.194-0.577,0.389-1.154,0.58-1.733
				c0.153-0.472,0.306-0.941,0.442-1.416l-0.003-0.006C33.763,20.639,33.758,20.642,33.758,20.644"/>
			<path d="M35.753,25.077c-0.276,0.884-0.556,1.762-0.829,2.647c-0.205,0.646-0.405,1.297-0.595,1.952
				c-0.168,0.597-0.33,1.197-0.485,1.802c-0.086,0.343-0.168,0.687-0.254,1.034c-0.094,0.4-0.189,0.803-0.276,1.209
				c0,0.005,0.007,0.006,0.007,0.001c0.108-0.382,0.215-0.766,0.322-1.148c0.092-0.343,0.188-0.687,0.287-1.029
				c0.171-0.599,0.349-1.198,0.523-1.796c0.19-0.647,0.377-1.3,0.558-1.951c0.253-0.905,0.504-1.81,0.748-2.72
				c0.004-0.001-0.001-0.004-0.001-0.004S35.753,25.072,35.753,25.077"/>
			<path d="M33.092,14.214c-0.098,0.096-0.2,0.188-0.31,0.272l0.003-0.002c-0.171,0.131-0.348,0.249-0.537,0.356
				c-0.212,0.121-0.435,0.224-0.658,0.317c0.003-0.003,0.01-0.005,0.014-0.006c-0.771,0.322-1.587,0.527-2.401,0.711
				c-0.83,0.189-1.669,0.348-2.501,0.552c-0.187,0.044-0.368,0.095-0.553,0.145c-0.239,0.066-0.476,0.145-0.712,0.217
				c-0.529,0.169-1.06,0.343-1.586,0.524c-1.053,0.361-2.096,0.743-3.134,1.142c-0.374,0.14-0.746,0.287-1.116,0.435
				c-0.373,0.147-0.745,0.3-1.112,0.455c-0.761,0.318-1.519,0.644-2.274,0.966c-1.508,0.651-3.01,1.31-4.522,1.946
				c0.015-0.006,0.028-0.01,0.042-0.016c-2.02,0.852-4.055,1.671-6.122,2.4c-0.003,0.001-0.002,0.007,0.002,0.007
				c2.142-0.615,4.25-1.34,6.338-2.117c2.08-0.774,4.139-1.594,6.201-2.413c0.515-0.205,1.03-0.41,1.546-0.621
				c0.515-0.208,1.03-0.417,1.544-0.626c1.034-0.414,2.073-0.823,3.118-1.214c0.52-0.196,1.047-0.388,1.575-0.576
				c0.378-0.136,0.764-0.254,1.152-0.364c0.827-0.23,1.663-0.433,2.486-0.673c0.678-0.198,1.353-0.424,1.991-0.727
				c0.57-0.268,1.113-0.614,1.531-1.088c0.004-0.002,0-0.005,0-0.005S33.092,14.213,33.092,14.214"/>
			<path d="M35.684,34.831c-0.014,0.006-0.025,0.012-0.041,0.016C35.658,34.841,35.67,34.837,35.684,34.831 M41.994,31.96
				c-0.096,0.009-0.193,0.015-0.289,0.024c-0.252,0.026-0.5,0.062-0.745,0.098c-0.419,0.06-0.834,0.144-1.246,0.236
				c-0.858,0.203-1.703,0.474-2.531,0.781c-0.453,0.17-0.906,0.357-1.353,0.55c-0.434,0.183-0.858,0.379-1.28,0.579
				c-0.865,0.413-1.716,0.857-2.555,1.319c-1.695,0.933-3.349,1.937-5.005,2.935c-0.794,0.479-1.587,0.956-2.389,1.421
				c-0.751,0.437-1.51,0.86-2.279,1.261c-0.217,0.111-0.434,0.221-0.652,0.331c-0.25,0.132-0.499,0.266-0.748,0.399
				c-0.489,0.271-0.973,0.553-1.45,0.847c-0.945,0.582-1.865,1.207-2.779,1.836c-0.003,0.004-0.002,0.01,0.004,0.009
				c0.88-0.532,1.768-1.054,2.671-1.544c0.453-0.244,0.91-0.48,1.372-0.706c0.484-0.236,0.974-0.462,1.468-0.68
				c0.791-0.344,1.564-0.72,2.33-1.109c0.821-0.417,1.634-0.85,2.445-1.287c1.424-0.772,2.847-1.556,4.276-2.307
				c1.426-0.745,2.866-1.462,4.344-2.088c0.908-0.384,1.829-0.731,2.771-1.022c-0.829,0.421-1.654,0.841-2.479,1.263
				c-2.025,1.029-4.048,2.068-6.07,3.098c-4.063,2.062-8.137,4.096-12.268,6.015c-0.584,0.271-1.167,0.54-1.75,0.804
				c-0.004,0.002,0,0.007,0.002,0.007c2.127-0.815,4.238-1.676,6.334-2.569c2.1-0.895,4.186-1.822,6.26-2.774
				c2.072-0.946,4.134-1.912,6.191-2.888c1.034-0.483,2.06-0.978,3.089-1.465c1.03-0.491,2.063-0.984,3.093-1.473
				c0.291-0.139,0.581-0.274,0.866-0.412c0.314-0.147,0.623-0.297,0.934-0.44c0.083-0.052,0.153-0.118,0.205-0.205
				c0.077-0.132,0.099-0.29,0.054-0.44c-0.023-0.096-0.072-0.179-0.145-0.249c-0.037-0.03-0.076-0.062-0.114-0.089
				c-0.088-0.054-0.184-0.079-0.286-0.079C42.192,31.949,42.096,31.952,41.994,31.96"/>
			<path d="M39.742,28.248c0-0.005,0-0.011-0.003-0.016c-0.007-0.012-0.015-0.026-0.017-0.038
				C39.729,28.213,39.737,28.229,39.742,28.248 M29.769,12.889c1.041,1.967,2.157,3.889,3.298,5.798
				c1.154,1.933,2.335,3.846,3.502,5.766c0.807,1.329,1.61,2.657,2.392,3.999c0.387,0.656,0.765,1.315,1.145,1.979
				c0.187,0.33,0.373,0.662,0.558,0.995c0.197,0.352,0.39,0.701,0.579,1.059c0.029,0.05,0.067,0.089,0.116,0.117
				c0.077,0.044,0.166,0.057,0.251,0.033c0.083-0.022,0.155-0.076,0.197-0.15c0.044-0.076,0.057-0.168,0.034-0.252
				c-0.058-0.229-0.121-0.46-0.184-0.689c-0.034-0.117-0.068-0.231-0.103-0.347c-0.038-0.135-0.086-0.267-0.129-0.4
				c-0.158-0.48-0.334-0.953-0.52-1.425c-0.381-0.966-0.811-1.91-1.27-2.844c-0.467-0.941-0.97-1.87-1.488-2.785
				c-0.525-0.924-1.072-1.841-1.627-2.749c-0.81-1.337-1.643-2.661-2.463-3.996c-0.787-1.283-1.562-2.574-2.286-3.892
				c-0.005-0.003-0.011-0.002-0.01,0.003c0.914,1.837,1.923,3.627,2.933,5.414c1.045,1.85,2.103,3.695,3.083,5.584
				c0.695,1.336,1.358,2.696,1.945,4.086c-0.003-0.003-0.004-0.01-0.004-0.016c0.004,0.021,0.011,0.037,0.021,0.054
				c0.003,0.01,0.004,0.016,0.011,0.024c-0.003-0.005-0.003-0.008-0.008-0.009c0.148,0.352,0.293,0.704,0.428,1.061
				c-0.01-0.021-0.024-0.041-0.036-0.063c-0.576-0.963-1.164-1.923-1.761-2.871c-1.2-1.907-2.434-3.796-3.663-5.685
				c-0.842-1.294-1.686-2.594-2.519-3.899c-0.82-1.292-1.628-2.593-2.416-3.903c-0.005-0.005-0.005-0.005-0.005-0.005
				C29.769,12.882,29.769,12.887,29.769,12.889"/>
			<path d="M33.559,6.439c0-0.002,0.004-0.004,0.004-0.005c0.001-0.005,0.006-0.011,0.009-0.019
				C33.567,6.423,33.563,6.432,33.559,6.439 M34.654,3.6c-0.048,0.028-0.08,0.074-0.095,0.124c-0.286,0.915-0.617,1.811-0.988,2.692
				c0.002-0.006,0.005-0.013,0.007-0.019c-0.005,0.013-0.01,0.026-0.016,0.037c0,0.001-0.004,0.005-0.004,0.008V6.439
				c-0.5,1.181-1.07,2.333-1.677,3.465c-0.611,1.151-1.254,2.284-1.89,3.423c-0.004,0.005,0.002,0.007,0.002,0.005
				c0.972-1.511,1.941-3.021,2.807-4.59c0.098-0.172,0.189-0.346,0.284-0.52c-0.069,0.162-0.133,0.321-0.203,0.482
				c0.005-0.008,0.005-0.014,0.01-0.022c-0.272,0.645-0.551,1.286-0.829,1.931c-0.257,0.605-0.508,1.212-0.741,1.828
				c-0.003,0.005,0.006,0.007,0.006,0.002c0.314-0.684,0.652-1.358,0.99-2.032c0.359-0.72,0.72-1.439,1.062-2.166
				c0.34-0.723,0.658-1.459,0.939-2.208c0.268-0.715,0.492-1.452,0.643-2.202c0.002-0.017,0.004-0.037,0.007-0.056
				c0-0.039-0.01-0.074-0.029-0.105c-0.027-0.046-0.071-0.082-0.124-0.094c-0.02-0.006-0.038-0.008-0.054-0.008
				C34.724,3.572,34.686,3.582,34.654,3.6"/>
			<path d="M44.616,21.308c-0.573,1.484-1.091,2.993-1.612,4.497c-0.265,0.755-0.532,1.509-0.81,2.257
				c-0.061,0.171-0.127,0.343-0.188,0.509c0.167-0.575,0.334-1.15,0.496-1.725c0.429-1.528,0.822-3.073,1.016-4.651
				c0-0.004-0.007-0.004-0.007,0c-0.146,0.764-0.33,1.518-0.541,2.268c-0.22,0.777-0.464,1.546-0.714,2.314
				c-0.252,0.771-0.513,1.539-0.758,2.314c-0.245,0.771-0.476,1.544-0.67,2.33c-0.021,0.086,0.014,0.178,0.09,0.221
				c0.048,0.024,0.1,0.034,0.149,0.02c0.02-0.006,0.034-0.015,0.048-0.02c0.03-0.02,0.055-0.04,0.074-0.072
				c0.086-0.188,0.173-0.377,0.257-0.567c0.091-0.206,0.176-0.416,0.265-0.63c0.165-0.413,0.322-0.828,0.479-1.246
				c0.316-0.869,0.6-1.75,0.873-2.633c0.53-1.725,1.011-3.467,1.563-5.182c0-0.005,0-0.005-0.005-0.005
				C44.621,21.306,44.62,21.306,44.616,21.308"/>
			<path d="M5.832,23.748c0.803,2.047,1.618,4.091,2.435,6.129c0.407,1.016,0.815,2.03,1.221,3.044
				c0.209,0.519,0.417,1.035,0.625,1.555c0.105,0.258,0.209,0.519,0.315,0.778c0.099,0.244,0.196,0.493,0.303,0.738
				c0.412,1.004,0.834,2.006,1.253,3.009c0.424,1.01,0.848,2.018,1.273,3.027c0.853,2.032,1.699,4.064,2.549,6.102
				c0.002,0.001,0.009,0.001,0.006-0.003c-0.738-2.188-1.533-4.354-2.357-6.514c-0.415-1.083-0.838-2.165-1.269-3.246
				c-0.432-1.079-0.868-2.154-1.323-3.224c-0.402-0.943-0.81-1.879-1.221-2.817c-0.42-0.958-0.84-1.917-1.263-2.872
				c-0.843-1.908-1.692-3.808-2.542-5.708c0-0.002-0.002-0.002-0.002-0.002C5.832,23.743,5.83,23.746,5.832,23.748"/>
			<path d="M5.649,22.399c0,0.001,0,0.004-0.002,0.009c0-0.004,0.002-0.005,0.002-0.008V22.399 M6.606,17.21
				c-0.002,0.012-0.004,0.023-0.007,0.036C6.602,17.234,6.604,17.222,6.606,17.21 M7.6,15.646c-0.1,0.345-0.201,0.693-0.303,1.038
				c0.001-0.062,0.005-0.123,0.005-0.186c0-0.12-0.007-0.242-0.013-0.364c-0.005-0.064-0.01-0.133-0.007-0.197
				c0.002-0.011,0.005-0.022,0.007-0.031c0.005-0.01,0.01-0.017,0.016-0.025c0.036-0.041,0.077-0.078,0.119-0.112
				C7.48,15.727,7.541,15.686,7.6,15.646 M34.645,5.568c-2.188,0.642-4.332,1.422-6.482,2.168c-1.076,0.375-2.157,0.74-3.249,1.078
				c-0.464,0.146-0.931,0.284-1.4,0.417c-0.419,0.118-0.84,0.233-1.262,0.346c-1.81,0.477-3.634,0.914-5.441,1.406
				c-0.924,0.25-1.843,0.521-2.751,0.815c-0.448,0.146-0.891,0.299-1.332,0.461c-0.445,0.163-0.885,0.339-1.323,0.522
				c-0.807,0.345-1.6,0.726-2.362,1.164c-0.357,0.203-0.701,0.427-1.049,0.646C7.757,14.74,7.519,14.888,7.29,15.04
				c-0.073,0.047-0.143,0.101-0.212,0.152c-0.074,0.056-0.148,0.112-0.214,0.178c-0.017,0.017-0.034,0.034-0.049,0.056
				c-0.031,0.036-0.061,0.072-0.087,0.113c-0.01,0.018-0.021,0.035-0.029,0.054c-0.02,0.043-0.04,0.09-0.053,0.135
				c-0.004,0.02-0.009,0.038-0.013,0.058c-0.006,0.047-0.013,0.095-0.016,0.14c-0.001,0.051,0.001,0.103,0.005,0.154
				c0.008,0.14,0.021,0.279,0.025,0.418c0.005,0.23-0.01,0.457-0.039,0.684c-0.055,0.396-0.145,0.787-0.25,1.175
				c-0.145,0.532-0.338,1.052-0.531,1.569c-0.179,0.483-0.353,0.97-0.48,1.473c-0.138,0.542-0.207,1.103-0.202,1.66
				c0.003,0.103,0.069,0.196,0.17,0.225c0.058,0.014,0.124,0.005,0.177-0.024c0.015-0.014,0.031-0.024,0.046-0.037
				c0.028-0.029,0.047-0.062,0.059-0.101c0.25-0.647,0.468-1.308,0.67-1.972c0.21-0.683,0.397-1.372,0.577-2.062
				c0.297-1.156,0.562-2.321,0.826-3.486c0.091-0.061,0.185-0.118,0.279-0.176c0.141-0.088,0.286-0.174,0.428-0.259
				c0.196-0.115,0.391-0.236,0.586-0.353c0.796-0.474,1.637-0.875,2.489-1.234c0.833-0.35,1.682-0.661,2.536-0.955
				c0.905-0.312,1.817-0.596,2.732-0.87c1.801-0.538,3.618-1.024,5.421-1.556c0.863-0.254,1.721-0.524,2.573-0.815
				c1.08-0.371,2.151-0.777,3.215-1.195c1.064-0.417,2.124-0.846,3.183-1.266c1.065-0.426,2.132-0.84,3.209-1.23
				c0.109-0.039,0.216-0.078,0.326-0.115c0.003-0.002,0-0.008-0.001-0.008H34.645"/>
			<path d="M39.492,14.416v-0.001H39.49C39.49,14.414,39.492,14.414,39.492,14.416 M39.483,15.498c0,0,0.001,0,0.004-0.002
				C39.484,15.495,39.483,15.498,39.483,15.498 M40.165,15.551c0-0.002-0.003-0.007-0.005-0.012
				C40.162,15.544,40.165,15.548,40.165,15.551 M38.261,16.649c-0.001,0.002-0.001,0.004-0.001,0.006
				c0-0.003,0.004-0.006,0.004-0.013C38.264,16.645,38.264,16.647,38.261,16.649 M40.468,16.658c0,0,0-0.006,0-0.009l0,0
				c0,0.002,0,0.006,0,0.006 M38.456,17.571l0.004,0.002c0,0-0.004-0.002-0.005-0.004C38.455,17.569,38.455,17.569,38.456,17.571
				 M38.414,13.333c0.2,0.161,0.394,0.333,0.579,0.515c0.179,0.181,0.344,0.369,0.497,0.567v-0.002c0,0.002,0,0.002,0,0.002
				c0.002,0.001,0.002,0.001,0.002,0.001l0,0c0.13,0.17,0.25,0.343,0.362,0.526c0.116,0.192,0.215,0.393,0.306,0.598
				c0-0.002-0.003-0.005-0.005-0.01c0.072,0.176,0.136,0.357,0.193,0.542c0.054,0.188,0.09,0.384,0.119,0.579l0,0l0,0
				c0,0.011,0.005,0.021,0.005,0.03c-0.003-0.007-0.005-0.015-0.005-0.021c0.021,0.169,0.03,0.341,0.03,0.512
				c0.002,0.168-0.01,0.337-0.031,0.502c0.001-0.002,0.001-0.002,0.001-0.005c-0.021,0.146-0.051,0.288-0.086,0.432
				c-0.029,0.121-0.063,0.24-0.103,0.358c-0.252-0.077-0.501-0.165-0.747-0.268c-0.18-0.078-0.355-0.163-0.527-0.257
				c-0.188-0.105-0.373-0.226-0.545-0.359c0.005,0.004,0.01,0.009,0.013,0.014c-0.003-0.007-0.013-0.011-0.017-0.016
				c-0.001-0.002-0.004-0.002-0.004-0.002h0.003c-0.063-0.051-0.127-0.103-0.189-0.158c-0.054-0.05-0.106-0.101-0.157-0.154
				c0-0.015,0.004-0.028,0.004-0.043c0.013-0.098,0.035-0.197,0.058-0.294c0.024-0.089,0.056-0.177,0.09-0.264l-0.004,0.003
				c0.004-0.003,0.004-0.005,0.005-0.009c0.003-0.004,0.003-0.007,0.003-0.01c0,0.001,0,0.003,0,0.003
				c0.029-0.068,0.064-0.139,0.102-0.208c0.042-0.081,0.1-0.161,0.157-0.235c-0.004,0.004-0.006,0.009-0.011,0.012
				c0.053-0.065,0.106-0.129,0.164-0.186c0.068-0.069,0.141-0.131,0.217-0.189c0.082-0.062,0.169-0.118,0.257-0.171
				c0.105-0.062,0.217-0.116,0.334-0.167h-0.004c0.161-0.067,0.323-0.123,0.486-0.171c0.006,0,0.005-0.008,0-0.005
				c-0.137,0.027-0.271,0.062-0.403,0.103c-0.111,0.033-0.22,0.075-0.322,0.12c-0.114,0.047-0.22,0.105-0.326,0.166
				c-0.09,0.053-0.17,0.115-0.253,0.181c-0.167,0.131-0.304,0.293-0.425,0.469c-0.116,0.184-0.2,0.387-0.261,0.595
				c-0.017,0.058-0.03,0.117-0.04,0.174c-0.008,0.031-0.013,0.061-0.015,0.091c-0.004,0.021-0.009,0.046-0.014,0.07
				c0,0.048,0.034,0.078,0.063,0.109c0.047,0.055,0.096,0.107,0.146,0.159c0.104,0.104,0.215,0.197,0.328,0.287
				c0.109,0.084,0.226,0.164,0.343,0.24c0.245,0.157,0.51,0.291,0.778,0.405c0.251,0.105,0.503,0.195,0.765,0.268
				c0.035,0.011,0.072,0.003,0.102-0.014c0.035-0.019,0.053-0.049,0.065-0.084c0.046-0.125,0.087-0.251,0.12-0.381
				c0.034-0.124,0.059-0.252,0.077-0.379c0.044-0.26,0.059-0.52,0.049-0.78c-0.008-0.257-0.046-0.509-0.105-0.756
				c-0.049-0.242-0.134-0.482-0.231-0.711c-0.051-0.115-0.103-0.224-0.157-0.331c-0.059-0.11-0.121-0.215-0.185-0.32
				c-0.137-0.216-0.292-0.421-0.456-0.615c-0.345-0.406-0.754-0.758-1.192-1.06v-0.002C38.414,13.324,38.411,13.33,38.414,13.333"/>
			<path d="M38.303,12.851L38.303,12.851c0.001-0.002,0.001-0.005,0.004-0.007C38.304,12.846,38.303,12.848,38.303,12.851
				 M39.298,4.241c-0.043,0.985-0.05,1.969-0.082,2.957c-0.013,0.501-0.039,1.006-0.073,1.51c-0.036,0.496-0.077,0.99-0.144,1.486
				C39,10.184,39,10.174,39,10.166c-0.059,0.451-0.141,0.896-0.251,1.339c-0.115,0.457-0.262,0.905-0.442,1.338l0,0
				c0,0.002-0.003,0.005-0.004,0.007l0,0l0,0c-0.102,0.237-0.213,0.472-0.333,0.698c-0.004,0.004,0.004,0.007,0.006,0.004
				c0.107-0.171,0.205-0.345,0.3-0.521s0.177-0.354,0.258-0.537c0.15-0.348,0.276-0.704,0.385-1.066
				c0.223-0.751,0.349-1.527,0.424-2.305c0.035-0.398,0.051-0.801,0.053-1.203c0.01-0.403,0.005-0.807-0.005-1.209
				c-0.019-0.826-0.062-1.647-0.085-2.472c0-0.002-0.002-0.002-0.002-0.002C39.302,4.238,39.298,4.238,39.298,4.241"/>
			<path d="M40.853,17.543c0.658,0.236,1.315,0.478,1.972,0.713c0.684,0.242,1.369,0.481,2.063,0.686
				c0.172,0.053,0.343,0.101,0.52,0.146c0.172,0.049,0.348,0.091,0.523,0.138c0.35,0.085,0.701,0.163,1.054,0.233
				c0.682,0.137,1.377,0.24,2.068,0.302c0.005,0,0.007-0.007,0.002-0.009c-0.33-0.05-0.658-0.113-0.985-0.182
				c-0.352-0.073-0.7-0.155-1.052-0.242c-0.696-0.176-1.386-0.386-2.074-0.591c-0.327-0.099-0.652-0.192-0.979-0.288
				c-0.342-0.104-0.689-0.207-1.039-0.31c-0.688-0.206-1.377-0.41-2.07-0.603l0,0C40.849,17.537,40.849,17.543,40.853,17.543"/>
		</g>
	</g>
</g>
</svg>
